mtllib material.mtl
usemtl material_shoulder_2
v 0.00041615 0.05246120 0.03909999
v 0.00033498 0.05247879 0.04344922
v 0.00109029 0.05210226 0.04347044
v 0.00122487 0.05194658 0.03909987
v 0.00041615 0.05246120 0.03909999
v 0.00109029 0.05210226 0.04347044
v -0.00073623 0.05238395 0.03909987
v -0.00146162 0.05142128 0.03909999
v -0.00151938 0.05127406 0.04345607
v -0.00073623 0.05238395 0.03909987
v -0.00151938 0.05127406 0.04345607
v -0.00069720 0.05240094 0.04345208
v 0.00122487 0.05194658 0.03909987
v 0.00109029 0.05210226 0.04347044
v 0.00152719 0.05106920 0.04344570
v 0.00151586 0.05084818 0.03909999
v 0.00122487 0.05194658 0.03909987
v 0.00152719 0.05106920 0.04344570
v -0.00073623 0.05238395 0.03909987
v -0.00069720 0.05240094 0.04345208
v 0.00033498 0.05247879 0.04344922
v 0.00041615 0.05246120 0.03909999
v -0.00073623 0.05238395 0.03909987
v 0.00033498 0.05247879 0.04344922
v -0.00062981 0.04831039 0.04470056
v -0.00082920 0.04973965 0.04345422
v 0.00001897 0.04947698 0.04345262
v -0.00137806 0.05280900 0.04418092
v -0.00074114 0.05370020 0.04470539
v -0.00069720 0.05240094 0.04345208
v -0.00151938 0.05127406 0.04345607
v -0.00137806 0.05280900 0.04418092
v -0.00069720 0.05240094 0.04345208
v -0.00227028 0.05266028 0.04470121
v -0.00137806 0.05280900 0.04418092
v -0.00151938 0.05127406 0.04345607
v -0.00151938 0.05127406 0.04345607
v -0.00276828 0.05110412 0.04470247
v -0.00227028 0.05266028 0.04470121
v -0.00257343 0.04998522 0.04470109
v -0.00129098 0.05019420 0.04342865
v -0.00198609 0.04908490 0.04467189
v -0.00257343 0.04998522 0.04470109
v -0.00151938 0.05127406 0.04345607
v -0.00129098 0.05019420 0.04342865
v -0.00082920 0.04973965 0.04345422
v -0.00146222 0.04865419 0.04469841
v -0.00129098 0.05019420 0.04342865
v -0.00146222 0.04865419 0.04469841
v -0.00082920 0.04973965 0.04345422
v -0.00062981 0.04831039 0.04470056
v -0.00146222 0.04865419 0.04469841
v -0.00198609 0.04908490 0.04467189
v -0.00129098 0.05019420 0.04342865
v -0.00069720 0.05240094 0.04345208
v -0.00074114 0.05370020 0.04470539
v 0.00033498 0.05247879 0.04344922
v 0.00013879 0.04823893 0.04470026
v -0.00062981 0.04831039 0.04470056
v 0.00001897 0.04947698 0.04345262
v -0.00137806 0.05280900 0.04418092
v -0.00227028 0.05266028 0.04470121
v -0.00074114 0.05370020 0.04470539
v -0.00151938 0.05127406 0.04345607
v -0.00257343 0.04998522 0.04470109
v -0.00276828 0.05110412 0.04470247
v 0.00244898 0.05224162 0.04469239
v 0.00193197 0.05299013 0.04470449
v 0.00218385 0.05273866 0.04509961
v 0.00273252 0.05145436 0.04470998
v 0.00218385 0.05273866 0.04509961
v 0.00279540 0.05117720 0.04509907
v -0.00074114 0.05370020 0.04470539
v -0.00095758 0.05360376 0.04509991
v 0.00055547 0.05375444 0.04509997
v 0.00273252 0.05145436 0.04470998
v 0.00244898 0.05224162 0.04469239
v 0.00218385 0.05273866 0.04509961
v 0.00078821 0.05365580 0.04470038
v -0.00074114 0.05370020 0.04470539
v 0.00055547 0.05375444 0.04509997
v -0.00227028 0.05266028 0.04470121
v -0.00282294 0.05086690 0.04509997
v -0.00213563 0.05281049 0.04509973
v -0.00227028 0.05266028 0.04470121
v -0.00276828 0.05110412 0.04470247
v -0.00282294 0.05086690 0.04509997
v 0.00271553 0.05049157 0.04469037
v 0.00273252 0.05145436 0.04470998
v 0.00279540 0.05117720 0.04509907
v 0.00193197 0.05299013 0.04470449
v 0.00078821 0.05365580 0.04470038
v 0.00055547 0.05375444 0.04509997
v 0.00193197 0.05299013 0.04470449
v 0.00055547 0.05375444 0.04509997
v 0.00218385 0.05273866 0.04509961
v -0.00074114 0.05370020 0.04470539
v -0.00213563 0.05281049 0.04509973
v -0.00095758 0.05360376 0.04509991
v -0.00074114 0.05370020 0.04470539
v -0.00227028 0.05266028 0.04470121
v -0.00213563 0.05281049 0.04509973
v -0.00057347 0.04959589 0.03910005
v 0.00026453 0.04949790 0.03909993
v 0.00001897 0.04947698 0.04345262
v -0.00057347 0.04959589 0.03910005
v 0.00001897 0.04947698 0.04345262
v -0.00082920 0.04973965 0.04345422
v 0.00151586 0.05084818 0.03909999
v 0.00152719 0.05106920 0.04344570
v 0.00121331 0.05007499 0.04345691
v -0.00139725 0.05034238 0.03909993
v -0.00082920 0.04973965 0.04345422
v -0.00129098 0.05019420 0.04342865
v -0.00139725 0.05034238 0.03909993
v -0.00057347 0.04959589 0.03910005
v -0.00082920 0.04973965 0.04345422
v 0.00109267 0.04993885 0.03909999
v 0.00151586 0.05084818 0.03909999
v 0.00121331 0.05007499 0.04345691
v 0.00109267 0.04993885 0.03909999
v 0.00121331 0.05007499 0.04345691
v 0.00056134 0.04958868 0.04344719
v -0.00139725 0.05034238 0.03909993
v -0.00129098 0.05019420 0.04342865
v -0.00151938 0.05127406 0.04345607
v 0.00026453 0.04949790 0.03909993
v 0.00109267 0.04993885 0.03909999
v 0.00056134 0.04958868 0.04344719
v -0.00146162 0.05142128 0.03909999
v -0.00139725 0.05034238 0.03909993
v -0.00151938 0.05127406 0.04345607
v 0.00026453 0.04949790 0.03909993
v 0.00056134 0.04958868 0.04344719
v 0.00001897 0.04947698 0.04345262
v 0.00026453 0.04949790 0.03909993
v -0.00057347 0.04959589 0.03910005
v -0.00139725 0.05034238 0.03909993
v -0.00146162 0.05142128 0.03909999
v -0.00073623 0.05238395 0.03909987
v 0.00041615 0.05246120 0.03909999
v 0.00122487 0.05194658 0.03909987
v 0.00109267 0.04993885 0.03909999
v 0.00151586 0.05084818 0.03909999
v 0.00124890 0.04852318 0.04470068
v 0.00013879 0.04823893 0.04470026
v 0.00056134 0.04958868 0.04344719
v 0.00121331 0.05007499 0.04345691
v 0.00124890 0.04852318 0.04470068
v 0.00056134 0.04958868 0.04344719
v 0.00234550 0.04951077 0.04468864
v 0.00121331 0.05007499 0.04345691
v 0.00271553 0.05049157 0.04469037
v 0.00273252 0.05145436 0.04470998
v 0.00271553 0.05049157 0.04469037
v 0.00152719 0.05106920 0.04344570
v 0.00244898 0.05224162 0.04469239
v 0.00273252 0.05145436 0.04470998
v 0.00152719 0.05106920 0.04344570
v 0.00244898 0.05224162 0.04469239
v 0.00152719 0.05106920 0.04344570
v 0.00109029 0.05210226 0.04347044
v 0.00109029 0.05210226 0.04347044
v 0.00193197 0.05299013 0.04470449
v 0.00244898 0.05224162 0.04469239
v 0.00078821 0.05365580 0.04470038
v 0.00109029 0.05210226 0.04347044
v 0.00033498 0.05247879 0.04344922
v 0.00078821 0.05365580 0.04470038
v 0.00193197 0.05299013 0.04470449
v 0.00109029 0.05210226 0.04347044
v 0.00056134 0.04958868 0.04344719
v 0.00013879 0.04823893 0.04470026
v 0.00001897 0.04947698 0.04345262
v 0.00078821 0.05365580 0.04470038
v 0.00033498 0.05247879 0.04344922
v -0.00074114 0.05370020 0.04470539
v 0.00121331 0.05007499 0.04345691
v 0.00234550 0.04951077 0.04468864
v 0.00124890 0.04852318 0.04470068
v 0.00271553 0.05049157 0.04469037
v 0.00121331 0.05007499 0.04345691
v 0.00152719 0.05106920 0.04344570
v -0.00257343 0.04998522 0.04470109
v -0.00200886 0.04907798 0.04510021
v -0.00282294 0.05086690 0.04509997
v -0.00257343 0.04998522 0.04470109
v -0.00198609 0.04908490 0.04467189
v -0.00200886 0.04907798 0.04510021
v 0.00013879 0.04823893 0.04470026
v 0.00124890 0.04852318 0.04470068
v 0.00059986 0.04826146 0.04509991
v 0.00271553 0.05049157 0.04469037
v 0.00279540 0.05117720 0.04509907
v 0.00226969 0.04934501 0.04510152
v -0.00062981 0.04831039 0.04470056
v 0.00013879 0.04823893 0.04470026
v 0.00059986 0.04826146 0.04509991
v -0.00062981 0.04831039 0.04470056
v 0.00059986 0.04826146 0.04509991
v -0.00083823 0.04835909 0.04509985
v -0.00276828 0.05110412 0.04470247
v -0.00257343 0.04998522 0.04470109
v -0.00282294 0.05086690 0.04509997
v 0.00234550 0.04951077 0.04468864
v 0.00271553 0.05049157 0.04469037
v 0.00226969 0.04934501 0.04510152
v -0.00146222 0.04865419 0.04469841
v -0.00062981 0.04831039 0.04470056
v -0.00083823 0.04835909 0.04509985
v -0.00146222 0.04865419 0.04469841
v -0.00083823 0.04835909 0.04509985
v -0.00200886 0.04907798 0.04510021
v 0.00124890 0.04852318 0.04470068
v 0.00234550 0.04951077 0.04468864
v 0.00226969 0.04934501 0.04510152
v 0.00124890 0.04852318 0.04470068
v 0.00226969 0.04934501 0.04510152
v 0.00059986 0.04826146 0.04509991
v -0.00198609 0.04908490 0.04467189
v -0.00146222 0.04865419 0.04469841
v -0.00200886 0.04907798 0.04510021
v 0.00226969 0.04934501 0.04510152
v 0.00279540 0.05117720 0.04509907
v 0.00119036 0.05008733 0.04510003
v 0.00059986 0.04826146 0.04509991
v 0.00041348 0.05000317 0.04510003
v -0.00019497 0.04951256 0.04510003
v -0.00083823 0.04835909 0.04509985
v 0.00106978 0.05085957 0.04510003
v -0.00200886 0.04907798 0.04510021
v 0.00218385 0.05273866 0.04509961
v 0.00138545 0.05157452 0.04510003
v -0.00121528 0.05044400 0.04510003
v 0.00022080 0.05231779 0.04509997
v 0.00055547 0.05375444 0.04509997
v -0.00282294 0.05086690 0.04509997
v -0.00106978 0.05114001 0.04510003
v -0.00095758 0.05360376 0.04509991
v -0.00119036 0.05191224 0.04510003
v -0.00041348 0.05199640 0.04510003
v -0.00213563 0.05281049 0.04509973
v 0.00041348 0.05000317 0.04510003
v 0.00119036 0.05008733 0.04426991
v -0.00012638 0.04966944 0.04426997
v 0.00041348 0.05000317 0.04510003
v 0.00119036 0.05008733 0.04510003
v 0.00119036 0.05008733 0.04426991
v -0.00019497 0.04951256 0.04510003
v 0.00041348 0.05000317 0.04510003
v -0.00012638 0.04966944 0.04426997
v -0.00019497 0.04951256 0.04510003
v -0.00012638 0.04966944 0.04426997
v -0.00065640 0.05014342 0.04426991
v -0.00121528 0.05044400 0.04510003
v -0.00019497 0.04951256 0.04510003
v -0.00065640 0.05014342 0.04426991
v -0.00121528 0.05044400 0.04510003
v -0.00065640 0.05014342 0.04426991
v -0.00138545 0.05042505 0.04426991
v -0.00106978 0.05114001 0.04510003
v -0.00138545 0.05042505 0.04426991
v -0.00108880 0.05177450 0.04426991
v -0.00106978 0.05114001 0.04510003
v -0.00121528 0.05044400 0.04510003
v -0.00138545 0.05042505 0.04426991
v -0.00119036 0.05191224 0.04510003
v -0.00106978 0.05114001 0.04510003
v -0.00108880 0.05177450 0.04426991
v -0.00119036 0.05191224 0.04510003
v -0.00108880 0.05177450 0.04426991
v -0.00041348 0.05199640 0.04426991
v -0.00041348 0.05199640 0.04510003
v -0.00119036 0.05191224 0.04510003
v -0.00041348 0.05199640 0.04426991
v -0.00041348 0.05199640 0.04510003
v -0.00041348 0.05199640 0.04426991
v 0.00019497 0.05248713 0.04426991
v 0.00022080 0.05231779 0.04509997
v -0.00041348 0.05199640 0.04510003
v 0.00019497 0.05248713 0.04426991
v 0.00022080 0.05231779 0.04509997
v 0.00019497 0.05248713 0.04426991
v 0.00065640 0.05185616 0.04426991
v 0.00138545 0.05157452 0.04510003
v 0.00065640 0.05185616 0.04426991
v 0.00138545 0.05157452 0.04426991
v 0.00138545 0.05157452 0.04510003
v 0.00022080 0.05231779 0.04509997
v 0.00065640 0.05185616 0.04426991
v 0.00138545 0.05157452 0.04510003
v 0.00138545 0.05157452 0.04426991
v 0.00106978 0.05085957 0.04426991
v 0.00106978 0.05085957 0.04510003
v 0.00106978 0.05085957 0.04510003
v 0.00106978 0.05085957 0.04426991
v 0.00119036 0.05008733 0.04426991
v 0.00119036 0.05008733 0.04510003
v -0.00108880 0.05177450 0.04426991
v -0.00138545 0.05042505 0.04426991
v -0.00065640 0.05014342 0.04426991
v -0.00012638 0.04966944 0.04426997
v 0.00106978 0.05085957 0.04426991
v 0.00119036 0.05008733 0.04426991
v 0.00065640 0.05185616 0.04426991
v -0.00041348 0.05199640 0.04426991
v 0.00019497 0.05248713 0.04426991
v 0.00138545 0.05157452 0.04426991
v -0.03178817 0.01950675 0.04360038
v -0.03316408 0.02014631 0.04360044
v -0.03248119 0.02004575 0.05197453
v -0.03434175 0.01942217 0.04360044
v -0.03456360 0.01821374 0.05197715
v -0.03443914 0.01919245 0.05195754
v -0.03434175 0.01942217 0.04360044
v -0.03455400 0.01830637 0.04360044
v -0.03456360 0.01821374 0.05197715
v -0.03178817 0.01950675 0.04360038
v -0.03248119 0.02004575 0.05197453
v -0.03166729 0.01922619 0.05194783
v -0.03178817 0.01950675 0.04360038
v -0.03166729 0.01922619 0.05194783
v -0.03152793 0.01847690 0.05194967
v -0.03434175 0.01942217 0.04360044
v -0.03443914 0.01919245 0.05195754
v -0.03377377 0.01995307 0.05195665
v -0.03154081 0.01836657 0.04360044
v -0.03178817 0.01950675 0.04360038
v -0.03152793 0.01847690 0.05194967
v -0.03316408 0.02014631 0.04360044
v -0.03434175 0.01942217 0.04360044
v -0.03377377 0.01995307 0.05195665
v -0.03316408 0.02014631 0.04360044
v -0.03377377 0.01995307 0.05195665
v -0.03248119 0.02004575 0.05197453
v -0.03539502 0.02011662 0.05322098
v -0.03377377 0.01995307 0.05195665
v -0.03443914 0.01919245 0.05195754
v -0.03539502 0.02011662 0.05322098
v -0.03453463 0.02091550 0.05319833
v -0.03377377 0.01995307 0.05195665
v -0.03580480 0.01870685 0.05319601
v -0.03443914 0.01919245 0.05195754
v -0.03456360 0.01821374 0.05197715
v -0.03456360 0.01821374 0.05197715
v -0.03558784 0.01746588 0.05319881
v -0.03580480 0.01870685 0.05319601
v -0.03470170 0.01635026 0.05319422
v -0.03558784 0.01746588 0.05319881
v -0.03456360 0.01821374 0.05197715
v -0.03470170 0.01635026 0.05319422
v -0.03456360 0.01821374 0.05197715
v -0.03372114 0.01721155 0.05196797
v -0.03316223 0.01581567 0.05319601
v -0.03470170 0.01635026 0.05319422
v -0.03372114 0.01721155 0.05196797
v -0.03323096 0.02137237 0.05320841
v -0.03248119 0.02004575 0.05197453
v -0.03377377 0.01995307 0.05195665
v -0.03316223 0.01581567 0.05319601
v -0.03372114 0.01721155 0.05196797
v -0.03283691 0.01708865 0.05196130
v -0.03377377 0.01995307 0.05195665
v -0.03453463 0.02091550 0.05319833
v -0.03323096 0.02137237 0.05320841
v -0.03443914 0.01919245 0.05195754
v -0.03580480 0.01870685 0.05319601
v -0.03539502 0.02011662 0.05322098
v -0.03323096 0.02137237 0.05320841
v -0.03406095 0.02117085 0.05360025
v -0.03276240 0.02136009 0.05360037
v -0.03539502 0.02011662 0.05322098
v -0.03580480 0.01870685 0.05319601
v -0.03579568 0.01898694 0.05360049
v -0.03178089 0.02106851 0.05320924
v -0.03323096 0.02137237 0.05320841
v -0.03276240 0.02136009 0.05360037
v -0.03539502 0.02011662 0.05322098
v -0.03579568 0.01898694 0.05360049
v -0.03514957 0.02043336 0.05360049
v -0.03178089 0.02106851 0.05320924
v -0.03276240 0.02136009 0.05360037
v -0.03146672 0.02087181 0.05360049
v -0.03088092 0.02029991 0.05319464
v -0.03178089 0.02106851 0.05320924
v -0.03146672 0.02087181 0.05360049
v -0.03453463 0.02091550 0.05319833
v -0.03539502 0.02011662 0.05322098
v -0.03514957 0.02043336 0.05360049
v -0.03088092 0.02029991 0.05319464
v -0.03146672 0.02087181 0.05360049
v -0.03035539 0.01948416 0.05360066
v -0.03453463 0.02091550 0.05319833
v -0.03514957 0.02043336 0.05360049
v -0.03406095 0.02117085 0.05360025
v -0.03029799 0.01907485 0.05320525
v -0.03088092 0.02029991 0.05319464
v -0.03035539 0.01948416 0.05360066
v -0.03323096 0.02137237 0.05320841
v -0.03453463 0.02091550 0.05319833
v -0.03406095 0.02117085 0.05360025
v -0.03390014 0.01730000 0.04360032
v -0.03372114 0.01721155 0.05196797
v -0.03456360 0.01821374 0.05197715
v -0.03154081 0.01836657 0.04360044
v -0.03152793 0.01847690 0.05194967
v -0.03180009 0.01772058 0.05194258
v -0.03455400 0.01830637 0.04360044
v -0.03390014 0.01730000 0.04360032
v -0.03456360 0.01821374 0.05197715
v -0.03201383 0.01745951 0.04360044
v -0.03154081 0.01836657 0.04360044
v -0.03180009 0.01772058 0.05194258
v -0.03201383 0.01745951 0.04360044
v -0.03180009 0.01772058 0.05194258
v -0.03223896 0.01731199 0.05194509
v -0.03201383 0.01745951 0.04360044
v -0.03223896 0.01731199 0.05194509
v -0.03283691 0.01708865 0.05196130
v -0.03288531 0.01708745 0.04360044
v -0.03201383 0.01745951 0.04360044
v -0.03283691 0.01708865 0.05196130
v -0.03288531 0.01708745 0.04360044
v -0.03283691 0.01708865 0.05196130
v -0.03372114 0.01721155 0.05196797
v -0.03390014 0.01730000 0.04360032
v -0.03288531 0.01708745 0.04360044
v -0.03372114 0.01721155 0.05196797
v -0.03288531 0.01708745 0.04360044
v -0.03390014 0.01730000 0.04360032
v -0.03455400 0.01830637 0.04360044
v -0.03201383 0.01745951 0.04360044
v -0.03178817 0.01950675 0.04360038
v -0.03434175 0.01942217 0.04360044
v -0.03316408 0.02014631 0.04360044
v -0.03154081 0.01836657 0.04360044
v -0.03223896 0.01731199 0.05194509
v -0.03316223 0.01581567 0.05319601
v -0.03283691 0.01708865 0.05196130
v -0.03223896 0.01731199 0.05194509
v -0.03160971 0.01620262 0.05321782
v -0.03316223 0.01581567 0.05319601
v -0.03180009 0.01772058 0.05194258
v -0.03045761 0.01751583 0.05321258
v -0.03160971 0.01620262 0.05321782
v -0.03180009 0.01772058 0.05194258
v -0.03160971 0.01620262 0.05321782
v -0.03223896 0.01731199 0.05194509
v -0.03103888 0.01803040 0.05250573
v -0.03180009 0.01772058 0.05194258
v -0.03152793 0.01847690 0.05194967
v -0.03103888 0.01803040 0.05250573
v -0.03045761 0.01751583 0.05321258
v -0.03180009 0.01772058 0.05194258
v -0.03029799 0.01907485 0.05320525
v -0.03152793 0.01847690 0.05194967
v -0.03166729 0.01922619 0.05194783
v -0.03029799 0.01907485 0.05320525
v -0.03103888 0.01803040 0.05250573
v -0.03152793 0.01847690 0.05194967
v -0.03248119 0.02004575 0.05197453
v -0.03178089 0.02106851 0.05320924
v -0.03088092 0.02029991 0.05319464
v -0.03323096 0.02137237 0.05320841
v -0.03178089 0.02106851 0.05320924
v -0.03248119 0.02004575 0.05197453
v -0.03029799 0.01907485 0.05320525
v -0.03045761 0.01751583 0.05321258
v -0.03103888 0.01803040 0.05250573
v -0.03088092 0.02029991 0.05319464
v -0.03166729 0.01922619 0.05194783
v -0.03248119 0.02004575 0.05197453
v -0.03088092 0.02029991 0.05319464
v -0.03029799 0.01907485 0.05320525
v -0.03166729 0.01922619 0.05194783
v -0.03316223 0.01581567 0.05319601
v -0.03160971 0.01620262 0.05321782
v -0.03178262 0.01607179 0.05360096
v -0.03045761 0.01751583 0.05321258
v -0.03035539 0.01948416 0.05360066
v -0.03050732 0.01745057 0.05360102
v -0.03045761 0.01751583 0.05321258
v -0.03029799 0.01907485 0.05320525
v -0.03035539 0.01948416 0.05360066
v -0.03580480 0.01870685 0.05319601
v -0.03567320 0.01769304 0.05360096
v -0.03579568 0.01898694 0.05360049
v -0.03580480 0.01870685 0.05319601
v -0.03558784 0.01746588 0.05319881
v -0.03567320 0.01769304 0.05360096
v -0.03316223 0.01581567 0.05319601
v -0.03178262 0.01607179 0.05360096
v -0.03354156 0.01587116 0.05360037
v -0.03470170 0.01635026 0.05319422
v -0.03316223 0.01581567 0.05319601
v -0.03354156 0.01587116 0.05360037
v -0.03470170 0.01635026 0.05319422
v -0.03354156 0.01587116 0.05360037
v -0.03483217 0.01645326 0.05359977
v -0.03045761 0.01751583 0.05321258
v -0.03050732 0.01745057 0.05360102
v -0.03178262 0.01607179 0.05360096
v -0.03160971 0.01620262 0.05321782
v -0.03045761 0.01751583 0.05321258
v -0.03178262 0.01607179 0.05360096
v -0.03558784 0.01746588 0.05319881
v -0.03470170 0.01635026 0.05319422
v -0.03483217 0.01645326 0.05359977
v -0.03558784 0.01746588 0.05319881
v -0.03483217 0.01645326 0.05359977
v -0.03567320 0.01769304 0.05360096
v -0.03354156 0.01587116 0.05360037
v -0.03178262 0.01607179 0.05360096
v -0.03299844 0.01725798 0.05360043
v -0.03434509 0.01784360 0.05360049
v -0.03412503 0.01859349 0.05360049
v -0.03579568 0.01898694 0.05360049
v -0.03174704 0.01784360 0.05360049
v -0.03567320 0.01769304 0.05360096
v -0.03483217 0.01645326 0.05359977
v -0.03035539 0.01948416 0.05360066
v -0.03196704 0.01859349 0.05360049
v -0.03417885 0.01930254 0.05360049
v -0.03304994 0.01997113 0.05360049
v -0.03276240 0.02136009 0.05360037
v -0.03406095 0.02117085 0.05360025
v -0.03174704 0.01934361 0.05360049
v -0.03358548 0.01765900 0.05360049
v -0.03146672 0.02087181 0.05360049
v -0.03514957 0.02043336 0.05360049
v -0.03050732 0.01745057 0.05360102
v -0.03358548 0.01765900 0.05360049
v -0.03304594 0.01709347 0.05277049
v -0.03417885 0.01788455 0.05277037
v -0.03358548 0.01765900 0.05360049
v -0.03299844 0.01725798 0.05360043
v -0.03304594 0.01709347 0.05277049
v -0.03434509 0.01784360 0.05360049
v -0.03358548 0.01765900 0.05360049
v -0.03417885 0.01788455 0.05277037
v -0.03434509 0.01784360 0.05360049
v -0.03417885 0.01788455 0.05277037
v -0.03412503 0.01859349 0.05277049
v -0.03412503 0.01859349 0.05360049
v -0.03434509 0.01784360 0.05360049
v -0.03412503 0.01859349 0.05277049
v -0.03412503 0.01859349 0.05360049
v -0.03412503 0.01859349 0.05277049
v -0.03434509 0.01934361 0.05277049
v -0.03417885 0.01930254 0.05360049
v -0.03412503 0.01859349 0.05360049
v -0.03434509 0.01934361 0.05277049
v -0.03417885 0.01930254 0.05360049
v -0.03434509 0.01934361 0.05277049
v -0.03304213 0.01997113 0.05277049
v -0.03304994 0.01997113 0.05360049
v -0.03417885 0.01930254 0.05360049
v -0.03304213 0.01997113 0.05277049
v -0.03304994 0.01997113 0.05360049
v -0.03304213 0.01997113 0.05277049
v -0.03250658 0.01952809 0.05277049
v -0.03174704 0.01934361 0.05360049
v -0.03250658 0.01952809 0.05277049
v -0.03174704 0.01934361 0.05277049
v -0.03174704 0.01934361 0.05360049
v -0.03304994 0.01997113 0.05360049
v -0.03250658 0.01952809 0.05277049
v -0.03196704 0.01859349 0.05360049
v -0.03174704 0.01934361 0.05277049
v -0.03186559 0.01796704 0.05277049
v -0.03196704 0.01859349 0.05360049
v -0.03174704 0.01934361 0.05360049
v -0.03174704 0.01934361 0.05277049
v -0.03174704 0.01784360 0.05360049
v -0.03196704 0.01859349 0.05360049
v -0.03186559 0.01796704 0.05277049
v -0.03174704 0.01784360 0.05360049
v -0.03186559 0.01796704 0.05277049
v -0.03250658 0.01765900 0.05277049
v -0.03299844 0.01725798 0.05360043
v -0.03174704 0.01784360 0.05360049
v -0.03250658 0.01765900 0.05277049
v -0.03299844 0.01725798 0.05360043
v -0.03250658 0.01765900 0.05277049
v -0.03304594 0.01709347 0.05277049
v -0.03250658 0.01765900 0.05277049
v -0.03417885 0.01788455 0.05277037
v -0.03304594 0.01709347 0.05277049
v -0.03412503 0.01859349 0.05277049
v -0.03304213 0.01997113 0.05277049
v -0.03434509 0.01934361 0.05277049
v -0.03250658 0.01952809 0.05277049
v -0.03186559 0.01796704 0.05277049
v -0.03174704 0.01934361 0.05277049
f 1 2 3
f 4 5 6
f 7 8 9
f 10 11 12
f 13 14 15
f 16 17 18
f 19 20 21
f 22 23 24
f 25 26 27
f 28 29 30
f 31 32 33
f 34 35 36
f 37 38 39
f 40 41 42
f 43 44 45
f 46 47 48
f 49 50 51
f 52 53 54
f 55 56 57
f 58 59 60
f 61 62 63
f 64 65 66
f 67 68 69
f 70 71 72
f 73 74 75
f 76 77 78
f 79 80 81
f 82 83 84
f 85 86 87
f 88 89 90
f 91 92 93
f 94 95 96
f 97 98 99
f 100 101 102
f 103 104 105
f 106 107 108
f 109 110 111
f 112 113 114
f 115 116 117
f 118 119 120
f 121 122 123
f 124 125 126
f 127 128 129
f 130 131 132
f 133 134 135
f 136 137 138
f 139 140 141
f 138 139 142
f 143 136 142
f 144 143 142
f 139 141 142
f 136 138 142
f 145 146 147
f 148 149 150
f 151 152 153
f 154 155 156
f 157 158 159
f 160 161 162
f 163 164 165
f 166 167 168
f 169 170 171
f 172 173 174
f 175 176 177
f 178 179 180
f 181 182 183
f 184 185 186
f 187 188 189
f 190 191 192
f 193 194 195
f 196 197 198
f 199 200 201
f 202 203 204
f 205 206 207
f 208 209 210
f 211 212 213
f 214 215 216
f 217 218 219
f 220 221 222
f 223 224 225
f 226 223 225
f 226 225 227
f 226 227 228
f 229 226 228
f 225 224 230
f 229 228 231
f 224 232 233
f 230 224 233
f 231 228 234
f 233 232 235
f 235 232 236
f 231 234 237
f 234 238 237
f 235 236 239
f 238 240 237
f 241 235 239
f 237 240 242
f 240 241 239
f 240 239 242
f 243 244 245
f 246 247 248
f 249 250 251
f 252 253 254
f 255 256 257
f 258 259 260
f 261 262 263
f 264 265 266
f 267 268 269
f 270 271 272
f 273 274 275
f 276 277 278
f 279 280 281
f 282 283 284
f 285 286 287
f 288 289 290
f 291 292 293
f 294 291 293
f 295 296 297
f 298 295 297
f 299 300 301
f 302 299 301
f 303 302 304
f 303 299 302
f 305 306 299
f 305 299 303
f 307 306 305
f 308 305 303
f 309 310 311
f 312 313 314
f 315 316 317
f 318 319 320
f 321 322 323
f 324 325 326
f 327 328 329
f 330 331 332
f 333 334 335
f 336 337 338
f 339 340 341
f 342 343 344
f 345 346 347
f 348 349 350
f 351 352 353
f 354 355 356
f 357 358 359
f 360 361 362
f 363 364 365
f 366 367 368
f 369 370 371
f 372 373 374
f 375 376 377
f 378 379 380
f 381 382 383
f 384 385 386
f 387 388 389
f 390 391 392
f 393 394 395
f 396 397 398
f 399 400 401
f 402 403 404
f 405 406 407
f 408 409 410
f 411 412 413
f 414 415 416
f 417 418 419
f 420 421 422
f 423 424 425
f 426 427 428
f 429 430 431
f 432 429 433
f 429 434 433
f 434 435 433
f 436 432 433
f 429 431 434
f 437 438 439
f 440 441 442
f 443 444 445
f 446 447 448
f 449 450 451
f 452 453 454
f 455 456 457
f 458 459 460
f 461 462 463
f 464 465 466
f 467 468 469
f 470 471 472
f 473 474 475
f 476 477 478
f 479 480 481
f 482 483 484
f 485 486 487
f 488 489 490
f 491 492 493
f 494 495 496
f 497 498 499
f 500 501 502
f 503 504 505
f 506 507 508
f 509 510 511
f 512 513 514
f 515 516 517
f 513 518 514
f 519 515 517
f 512 514 520
f 518 521 522
f 516 523 517
f 524 525 526
f 522 521 527
f 520 514 528
f 523 524 526
f 527 521 529
f 517 523 530
f 523 526 530
f 520 528 515
f 524 527 529
f 520 515 519
f 531 521 518
f 513 531 518
f 524 529 525
f 532 533 534
f 535 536 537
f 538 539 540
f 541 542 543
f 544 545 546
f 547 548 549
f 550 551 552
f 553 554 555
f 556 557 558
f 559 560 561
f 562 563 564
f 565 566 567
f 568 569 570
f 571 572 573
f 574 575 576
f 577 578 579
f 580 581 582
f 583 584 585
f 586 587 588
f 586 589 587
f 590 591 589
f 592 590 589
f 592 589 586
f 592 586 593
f 594 592 593

