mtllib material.mtl
usemtl material_base_1
v 0.04395204 0.03769367 0.00599998
v 0.03382951 0.03871279 0.00599998
v 0.04174882 0.04054093 0.00599998
v 0.03590279 0.04335427 0.00599998
v 0.04031437 0.04420346 0.00599998
v -0.03803676 0.04207825 0.00599998
v -0.04341197 0.03668534 0.00599998
v -0.04277992 0.04277992 0.00599998
v 0.04265111 0.04290419 0.03013920
v 0.04226732 0.04323244 0.03024351
v 0.04031437 0.04420346 0.00599998
v -0.04164069 -0.04365402 0.00599986
v -0.04265111 -0.04290425 0.03013914
v -0.04031413 -0.04420346 0.00599986
v 0.03487783 -0.03531497 0.06154352
v 0.03366780 -0.03736335 0.05966091
v 0.03741276 -0.03371286 0.05945426
v -0.03655719 -0.04122430 0.00599986
v -0.03724086 -0.04174876 0.00599986
v -0.04031413 -0.04420346 0.00599986
v 0.04267549 -0.03532350 0.00599986
v 0.04031419 -0.04420334 0.00599986
v 0.03369212 -0.03904443 0.00599986
v 0.04129552 0.04381424 0.03097105
v 0.04360181 0.04168277 0.03064459
v 0.04226732 0.04323244 0.03024351
v 0.03862988 0.03436952 0.00599998
v 0.04277992 0.04277992 0.00599998
v 0.04031437 0.04420346 0.00599998
v 0.04226732 0.04323244 0.03024351
v 0.04277998 -0.04277968 0.00599980
v 0.04317659 -0.04232871 0.03023278
v 0.04235225 -0.04316467 0.03021448
v 0.04268687 -0.04287070 0.03013557
v 0.04277998 -0.04277968 0.00599980
v 0.04164069 -0.04365402 0.00599986
v 0.04277992 0.04277992 0.00599998
v 0.03603285 -0.03724098 0.00599980
v 0.03733777 -0.03382951 0.00599986
v 0.03507912 0.03456830 0.06269115
v 0.03714382 0.03371596 0.06004136
v 0.03411066 0.03636461 0.06090909
v -0.04121577 0.04382258 0.03110605
v -0.04365354 0.04187870 0.03013461
v -0.04438132 0.03921622 0.03382170
v 0.04430431 0.03852969 0.03528857
v 0.04001921 0.04427385 0.03250473
v 0.03835856 0.04433351 0.03555595
v 0.04268687 -0.04287070 0.03013557
v 0.04164069 -0.04365402 0.00599986
v 0.04031419 -0.04420334 0.00599986
v -0.04396027 0.03675740 0.03938609
v -0.04289388 0.03489255 0.04519957
v -0.03674244 0.04395407 0.03942745
v 0.04381197 -0.04126209 0.03103852
v 0.04235225 -0.04316467 0.03021448
v 0.04317659 -0.04232871 0.03023278
v -0.04361110 -0.04194736 0.03009581
v -0.04078376 -0.04397851 0.03162413
v -0.03852403 -0.04436630 0.03517293
v 0.03974497 -0.04207843 0.00599986
v 0.03889065 -0.04219079 0.00599986
v 0.04031419 -0.04420334 0.00599986
v -0.04265111 -0.04290425 0.03013914
v -0.04226732 -0.04323244 0.03024345
v -0.04031413 -0.04420346 0.00599986
v -0.04008781 0.03382951 0.00599998
v -0.03382951 0.04008775 0.00599998
v -0.04398024 -0.03859472 0.00599986
v -0.04031413 -0.04420346 0.00599986
v -0.04278010 -0.04277956 0.00599980
v 0.04267549 -0.03532350 0.00599986
v 0.04207819 -0.03803676 0.00599986
v 0.04219079 -0.03889065 0.00599986
v 0.03803676 -0.04207843 0.00599986
v 0.03889065 -0.04219079 0.00599986
v 0.03889065 -0.04219079 0.00000000
v -0.04122430 0.03655719 0.00599998
v -0.04174876 0.03724086 0.00599998
v -0.04341197 0.03668534 0.00599998
v 0.03733777 -0.03382951 0.00599986
v 0.03974497 -0.03570330 0.00599986
v 0.03803676 0.04207819 0.00599998
v 0.03724086 0.04174870 0.00599998
v 0.03724086 0.04174876 0.00000000
v -0.03570330 -0.03974497 0.00599986
v -0.03603297 -0.04054087 0.00599986
v -0.03434687 -0.04091221 0.00599986
v -0.03830718 0.04432815 0.03566485
v -0.03974497 -0.04207843 0.00599986
v -0.03889065 -0.04219079 0.00599986
v -0.03889065 -0.04219079 0.00000000
v -0.03724080 0.04174870 0.00599986
v 0.03889065 0.03339082 0.05688261
v 0.04036265 0.03361195 0.05321466
v 0.03340601 0.03930217 0.05594831
v -0.04219079 -0.03889065 0.00599986
v -0.04207819 -0.03803676 0.00599986
v -0.04398024 -0.03859472 0.00599986
v 0.04395204 0.03769367 0.00599998
v 0.04207819 0.03974497 0.00599998
v 0.04219079 0.03889065 0.00599998
v 0.03724086 0.04174870 0.00599998
v 0.03655719 0.04122430 0.00599998
v 0.03655719 0.04122430 0.00000000
v 0.03655719 -0.04122430 0.00599986
v 0.03603297 -0.04054087 0.00599986
v 0.03369212 -0.03904443 0.00599986
v 0.03724086 -0.03603297 0.00599986
v 0.03803676 -0.03570330 0.00599986
v -0.04054087 -0.04174876 0.00599986
v -0.04122430 -0.04122430 0.00599986
v -0.04278010 -0.04277956 0.00599980
v -0.04174876 0.04054087 0.00599998
v -0.04122430 0.04122430 0.00599998
v -0.04277992 0.04277992 0.00599998
v -0.03724086 0.03603297 0.00599998
v -0.03803676 0.03570330 0.00599998
v -0.04008781 0.03382951 0.00599998
v 0.03724086 0.04174870 0.00599998
v 0.03803676 0.04207819 0.00599998
v 0.03590279 0.04335427 0.00599998
v 0.04164069 0.04365396 0.00599998
v 0.04031437 0.04420346 0.00599998
v 0.03974497 0.04207819 0.00599998
v -0.03803676 -0.04207843 0.00599986
v 0.04277992 0.04277992 0.00599998
v 0.04122430 0.04122430 0.00599998
v 0.04174882 0.04054093 0.00599998
v -0.03733777 -0.03382951 0.00599986
v -0.03603291 -0.03724086 0.00599986
v -0.04054081 -0.03603291 0.00599980
v 0.03655719 0.03655719 0.00599998
v 0.03603297 0.03724086 0.00599998
v 0.03382951 0.03871279 0.00599998
v 0.03889065 -0.03559064 0.00599986
v -0.04235136 0.04316461 0.03021526
v -0.04031419 0.04420346 0.00599998
v -0.04235136 0.04316461 0.03021526
v -0.04268687 0.04287064 0.03013563
v -0.04031419 0.04420346 0.00599998
v -0.04277992 0.04277992 0.00599998
v -0.04268687 0.04287064 0.03013563
v -0.04365354 0.04187870 0.03013461
v -0.04277992 0.04277992 0.00599998
v -0.04235136 0.04316461 0.03021526
v -0.04031419 0.04420346 0.00599998
v 0.03365635 -0.04043626 0.05296772
v 0.03453183 -0.04224485 0.04731863
v 0.04062074 -0.03369855 0.05247986
v -0.03485292 0.04284358 0.04538512
v -0.03975576 0.03354460 0.05468130
v -0.03655725 0.03655725 0.00599998
v -0.03658801 -0.04375791 0.04014569
v -0.03420680 -0.04177433 0.04896843
v -0.04200929 -0.03436022 0.04816079
v -0.04386699 -0.03681504 0.03948080
v -0.04081249 -0.03373742 0.05198216
v 0.03966397 -0.04432952 0.03307116
v 0.04109865 -0.04390716 0.03116571
v -0.04439079 -0.03885465 0.03449177
v -0.03434687 -0.04091221 0.00599986
v -0.04278010 -0.04277956 0.00599980
v -0.04361110 -0.04194736 0.03009581
v -0.04265111 -0.04290425 0.03013914
v -0.04164069 -0.04365402 0.00599986
v -0.04226732 -0.04323244 0.03024345
v 0.04298639 0.04256170 0.03015315
v 0.04277992 0.04277992 0.00599998
v 0.04226732 0.04323244 0.03024351
v -0.03466731 0.03530395 0.06202352
v -0.03403425 0.03644859 0.06088978
v -0.03638797 0.03401458 0.06106895
v 0.03640174 -0.04369264 0.04063588
v 0.04208421 -0.03398180 0.04868036
v 0.03889065 -0.04439067 0.03442335
v 0.04397320 -0.03711211 0.03869003
v 0.04298639 0.04256170 0.03015315
v 0.03622955 0.04370409 0.04093390
v 0.04384738 0.03650683 0.04010206
v -0.04361110 -0.04194736 0.03009581
v -0.04278010 -0.04277956 0.00599980
v -0.04226732 -0.04323244 0.03024345
v 0.04438132 -0.03921622 0.03382170
v -0.03974497 0.04207819 0.00000000
v -0.03889065 0.04219079 0.00000000
v -0.03889065 0.04219079 0.00599998
v -0.03974497 0.04207819 0.00599998
v -0.03974497 0.04207819 0.00000000
v -0.03974497 0.04207819 0.00599998
v -0.04054087 0.04174876 0.00000000
v -0.04054087 0.04174876 0.00000000
v -0.04054087 0.04174870 0.00599998
v -0.04122430 0.04122430 0.00000000
v -0.04174876 0.04054087 0.00000000
v -0.04122430 0.04122430 0.00000000
v -0.04174876 0.04054087 0.00599998
v -0.04122430 0.04122430 0.00599998
v -0.04207819 0.03974497 0.00000000
v -0.04174876 0.04054087 0.00000000
v -0.04207819 0.03974497 0.00599998
v -0.04219079 0.03889065 0.00000000
v -0.04207819 0.03974497 0.00000000
v -0.04207819 0.03974497 0.00599998
v -0.04174876 0.04054087 0.00599998
v -0.04207819 0.03803676 0.00000000
v -0.04219079 0.03889065 0.00000000
v -0.04219079 0.03889065 0.00599998
v -0.04219079 0.03889065 0.00599998
v -0.04207819 0.03803676 0.00599998
v -0.04174876 0.03724086 0.00000000
v -0.04207819 0.03803676 0.00000000
v -0.04174876 0.03724086 0.00599998
v -0.04122430 0.03655719 0.00000000
v -0.04174876 0.03724086 0.00000000
v -0.04174876 0.03724086 0.00599998
v -0.04207819 0.03803676 0.00599998
v -0.04122430 0.03655719 0.00599998
v -0.04054087 0.03603297 0.00000000
v -0.04122430 0.03655719 0.00000000
v -0.04054087 0.03603297 0.00599998
v -0.03974497 0.03570330 0.00000000
v -0.04054087 0.03603297 0.00000000
v -0.04054087 0.03603297 0.00599998
v -0.04122430 0.03655719 0.00599998
v -0.03974497 0.03570330 0.00599998
v -0.03889065 0.03559064 0.00000000
v -0.03974497 0.03570330 0.00000000
v -0.03889065 0.03559064 0.00599998
v -0.03974497 0.03570330 0.00599998
v -0.03974497 -0.03570330 0.00000000
v -0.03889065 -0.03559064 0.00000000
v -0.03889065 -0.03559064 0.00599986
v -0.03974497 -0.03570330 0.00599986
v -0.04054087 -0.03603297 0.00000000
v -0.03974497 -0.03570330 0.00000000
v -0.04054081 -0.03603291 0.00599980
v -0.03974497 -0.03570330 0.00599986
v -0.04122430 -0.03655719 0.00000000
v -0.04054087 -0.03603297 0.00000000
v -0.04122430 -0.03655719 0.00599986
v -0.04054081 -0.03603291 0.00599980
v -0.04174876 -0.03724086 0.00000000
v -0.04122430 -0.03655719 0.00000000
v -0.04174876 -0.03724086 0.00599986
v -0.04122430 -0.03655719 0.00599986
v -0.04207819 -0.03803676 0.00000000
v -0.04174876 -0.03724086 0.00000000
v -0.04207819 -0.03803676 0.00599986
v -0.04219079 -0.03889065 0.00000000
v -0.04207819 -0.03803676 0.00000000
v -0.04207819 -0.03803676 0.00599986
v -0.04174876 -0.03724086 0.00599986
v -0.04207819 -0.03974497 0.00000000
v -0.04219079 -0.03889065 0.00000000
v -0.04219079 -0.03889065 0.00599986
v -0.04219079 -0.03889065 0.00599986
v -0.04207819 -0.03974497 0.00599986
v -0.04174876 -0.04054087 0.00000000
v -0.04207819 -0.03974497 0.00000000
v -0.04174876 -0.04054087 0.00599986
v -0.04122430 -0.04122430 0.00000000
v -0.04174876 -0.04054087 0.00000000
v -0.04174876 -0.04054087 0.00599986
v -0.04207819 -0.03974497 0.00599986
v -0.04122430 -0.04122430 0.00599986
v -0.04054087 -0.04174876 0.00000000
v -0.04122430 -0.04122430 0.00000000
v -0.04054087 -0.04174876 0.00599986
v -0.03974497 -0.04207819 0.00000000
v -0.04054087 -0.04174876 0.00000000
v -0.04054087 -0.04174876 0.00599986
v -0.04122430 -0.04122430 0.00599986
v -0.03974497 -0.04207843 0.00599986
v -0.03974497 -0.04207819 0.00000000
v 0.03803676 -0.03570330 0.00000000
v 0.03889065 -0.03559064 0.00000000
v 0.03889065 -0.03559064 0.00599986
v 0.03803676 -0.03570330 0.00599986
v 0.03724086 -0.03603297 0.00000000
v 0.03803676 -0.03570330 0.00000000
v 0.03724086 -0.03603297 0.00599986
v 0.03803676 -0.03570330 0.00599986
v 0.03655719 -0.03655719 0.00000000
v 0.03724086 -0.03603297 0.00000000
v 0.03655719 -0.03655719 0.00599986
v 0.03724086 -0.03603297 0.00599986
v 0.03603297 -0.03724086 0.00000000
v 0.03655719 -0.03655719 0.00000000
v 0.03603285 -0.03724098 0.00599980
v 0.03655719 -0.03655719 0.00599986
v 0.03570330 -0.03803676 0.00000000
v 0.03603297 -0.03724086 0.00000000
v 0.03570330 -0.03803676 0.00599986
v 0.03559064 -0.03889065 0.00000000
v 0.03570330 -0.03803676 0.00000000
v 0.03570330 -0.03803676 0.00599986
v 0.03603285 -0.03724098 0.00599980
v 0.03570330 -0.03974497 0.00000000
v 0.03559064 -0.03889065 0.00000000
v 0.03559064 -0.03889065 0.00599986
v 0.03559064 -0.03889065 0.00599986
v 0.03570330 -0.03974497 0.00599986
v 0.03603297 -0.04054087 0.00000000
v 0.03570330 -0.03974497 0.00000000
v 0.03603297 -0.04054087 0.00599986
v 0.03655719 -0.04122430 0.00000000
v 0.03603297 -0.04054087 0.00000000
v 0.03603297 -0.04054087 0.00599986
v 0.03570330 -0.03974497 0.00599986
v 0.03655719 -0.04122430 0.00599986
v 0.03724086 -0.04174876 0.00000000
v 0.03655719 -0.04122430 0.00000000
v 0.03724086 -0.04174876 0.00599986
v 0.03803676 -0.04207819 0.00000000
v 0.03724086 -0.04174876 0.00000000
v 0.03724086 -0.04174876 0.00599986
v 0.03655719 -0.04122430 0.00599986
v 0.03803676 -0.04207843 0.00599986
v 0.03803676 -0.04207819 0.00000000
v -0.04054087 0.04174870 0.00599998
v 0.03803676 0.04207819 0.00000000
v 0.03889065 0.04219079 0.00000000
v 0.03889065 0.04219079 0.00599998
v 0.03803676 0.04207819 0.00599998
v 0.03803676 0.04207819 0.00000000
v 0.03724086 0.04174876 0.00000000
v -0.04122430 0.04122430 0.00599998
v 0.03603297 0.04054087 0.00000000
v 0.03655719 0.04122430 0.00000000
v 0.03603297 0.04054087 0.00599998
v 0.03655719 0.04122430 0.00599998
v 0.03570330 0.03974497 0.00000000
v 0.03603297 0.04054087 0.00000000
v 0.03570330 0.03974497 0.00599998
v 0.03559064 0.03889065 0.00000000
v 0.03570330 0.03974497 0.00000000
v 0.03570330 0.03974497 0.00599998
v 0.03603297 0.04054087 0.00599998
v 0.03570330 0.03803676 0.00000000
v 0.03559064 0.03889065 0.00000000
v 0.03559064 0.03889065 0.00599998
v 0.03559064 0.03889065 0.00599998
v 0.03570330 0.03803676 0.00599998
v 0.03603297 0.03724086 0.00000000
v 0.03570330 0.03803676 0.00000000
v 0.03603297 0.03724086 0.00599998
v 0.03655719 0.03655719 0.00000000
v 0.03603297 0.03724086 0.00000000
v 0.03603297 0.03724086 0.00599998
v 0.03570330 0.03803676 0.00599998
v 0.03655719 0.03655719 0.00599998
v 0.03724086 0.03603297 0.00000000
v 0.03655719 0.03655719 0.00000000
v 0.03724086 0.03603297 0.00599998
v 0.03803676 0.03570330 0.00000000
v 0.03724086 0.03603297 0.00000000
v 0.03724086 0.03603297 0.00599998
v 0.03655719 0.03655719 0.00599998
v 0.03803676 0.03570330 0.00599998
v 0.03889065 0.03559064 0.00000000
v 0.03803676 0.03570330 0.00000000
v 0.03889065 0.03559064 0.00599998
v 0.03803676 0.03570330 0.00599998
v -0.04421514 -0.03324085 0.00000000
v -0.04122430 -0.03655719 0.00000000
v -0.04174876 -0.03724086 0.00000000
v -0.04174876 0.03724086 0.00000000
v -0.04122430 0.03655719 0.00000000
v -0.04387307 0.03310507 0.00000000
v 0.03889065 0.03559064 0.00000000
v 0.03889065 0.03559064 0.00599998
v 0.03974497 0.03570330 0.00599998
v 0.03974497 0.03570330 0.00000000
v 0.04054087 0.03603297 0.00000000
v 0.03974497 0.03570330 0.00000000
v 0.04054087 0.03603297 0.00599998
v 0.03974497 0.03570330 0.00599998
v 0.04122430 0.03655719 0.00000000
v 0.04054087 0.03603297 0.00000000
v 0.04122430 0.03655719 0.00599998
v 0.04174876 0.03724086 0.00000000
v 0.04122430 0.03655719 0.00000000
v 0.04122430 0.03655719 0.00599998
v 0.04054087 0.03603297 0.00599998
v 0.04174876 0.03724086 0.00599998
v 0.04207819 0.03803676 0.00000000
v 0.04174876 0.03724086 0.00000000
v 0.04207819 0.03803676 0.00599998
v 0.04219079 0.03889065 0.00000000
v 0.04207819 0.03803676 0.00000000
v 0.04207819 0.03803676 0.00599998
v 0.04174876 0.03724086 0.00599998
v 0.04207819 0.03974497 0.00000000
v 0.04219079 0.03889065 0.00000000
v 0.04219079 0.03889065 0.00599998
v 0.04219079 0.03889065 0.00599998
v 0.04174876 0.04054087 0.00000000
v 0.04207819 0.03974497 0.00000000
v 0.04207819 0.03974497 0.00599998
v 0.04207819 0.03974497 0.00599998
v 0.04174882 0.04054093 0.00599998
v 0.04122430 0.04122430 0.00000000
v 0.04174876 0.04054087 0.00000000
v 0.04122430 0.04122430 0.00599998
v 0.04174882 0.04054093 0.00599998
v 0.04054087 0.04174876 0.00000000
v 0.04122430 0.04122430 0.00000000
v 0.04054087 0.04174870 0.00599998
v 0.04122430 0.04122430 0.00599998
v 0.03974497 0.04207819 0.00000000
v 0.04054087 0.04174876 0.00000000
v 0.03974497 0.04207819 0.00599998
v 0.03889065 0.04219079 0.00000000
v 0.03974497 0.04207819 0.00000000
v 0.03974497 0.04207819 0.00599998
v 0.04054087 0.04174870 0.00599998
v 0.03889065 0.04219079 0.00599998
v 0.03889065 -0.04219079 0.00000000
v 0.03889065 -0.04219079 0.00599986
v 0.03974497 -0.04207843 0.00599986
v 0.03974497 -0.04207819 0.00000000
v 0.04054087 -0.04174876 0.00000000
v 0.03974497 -0.04207819 0.00000000
v 0.04054087 -0.04174876 0.00599986
v 0.03974497 -0.04207843 0.00599986
v 0.04122430 -0.04122430 0.00000000
v 0.04054087 -0.04174876 0.00000000
v 0.04122430 -0.04122430 0.00599986
v 0.04174876 -0.04054087 0.00000000
v 0.04122430 -0.04122430 0.00000000
v 0.04122430 -0.04122430 0.00599986
v 0.04054087 -0.04174876 0.00599986
v 0.04174876 -0.04054087 0.00599986
v 0.04207819 -0.03974497 0.00000000
v 0.04174876 -0.04054087 0.00000000
v 0.04207819 -0.03974497 0.00599986
v 0.04219079 -0.03889065 0.00000000
v 0.04207819 -0.03974497 0.00000000
v 0.04207819 -0.03974497 0.00599986
v 0.04174876 -0.04054087 0.00599986
v 0.04207819 -0.03803676 0.00000000
v 0.04219079 -0.03889065 0.00000000
v 0.04219079 -0.03889065 0.00599986
v 0.04219079 -0.03889065 0.00599986
v 0.04174876 -0.03724086 0.00000000
v 0.04207819 -0.03803676 0.00000000
v 0.04207819 -0.03803676 0.00599986
v 0.04207819 -0.03803676 0.00599986
v 0.04174876 -0.03724086 0.00599986
v 0.04122430 -0.03655719 0.00000000
v 0.04174876 -0.03724086 0.00000000
v 0.04122430 -0.03655719 0.00599986
v 0.04174876 -0.03724086 0.00599986
v 0.04054087 -0.03603297 0.00000000
v 0.04122430 -0.03655719 0.00000000
v 0.04054087 -0.03603297 0.00599986
v 0.04122430 -0.03655719 0.00599986
v 0.03974497 -0.03570330 0.00000000
v 0.04054087 -0.03603297 0.00000000
v 0.03974497 -0.03570330 0.00599986
v 0.03889065 -0.03559064 0.00000000
v 0.03974497 -0.03570330 0.00000000
v 0.03974497 -0.03570330 0.00599986
v 0.04054087 -0.03603297 0.00599986
v 0.03889065 -0.03559064 0.00599986
v -0.03889065 -0.04219079 0.00000000
v -0.03889065 -0.04219079 0.00599986
v -0.03803676 -0.04207843 0.00599986
v -0.03803676 -0.04207819 0.00000000
v -0.03724086 -0.04174876 0.00000000
v -0.03803676 -0.04207819 0.00000000
v -0.03724086 -0.04174876 0.00599986
v -0.03803676 -0.04207843 0.00599986
v -0.03655719 -0.04122430 0.00000000
v -0.03724086 -0.04174876 0.00000000
v -0.03655719 -0.04122430 0.00599986
v -0.03603297 -0.04054087 0.00000000
v -0.03655719 -0.04122430 0.00000000
v -0.03655719 -0.04122430 0.00599986
v -0.03724086 -0.04174876 0.00599986
v -0.03603297 -0.04054087 0.00599986
v -0.03570330 -0.03974497 0.00000000
v -0.03603297 -0.04054087 0.00000000
v -0.03570330 -0.03974497 0.00599986
v -0.03559064 -0.03889065 0.00000000
v -0.03570330 -0.03974497 0.00000000
v -0.03570330 -0.03974497 0.00599986
v -0.03603297 -0.04054087 0.00599986
v -0.03570330 -0.03803676 0.00000000
v -0.03559064 -0.03889065 0.00000000
v -0.03559064 -0.03889065 0.00599986
v -0.03559064 -0.03889065 0.00599986
v -0.03603297 -0.03724086 0.00000000
v -0.03570330 -0.03803676 0.00000000
v -0.03570330 -0.03803676 0.00599986
v -0.03570330 -0.03803676 0.00599986
v -0.03603291 -0.03724086 0.00599986
v -0.03655719 -0.03655719 0.00000000
v -0.03603297 -0.03724086 0.00000000
v -0.03655719 -0.03655719 0.00599986
v -0.03603291 -0.03724086 0.00599986
v -0.03724086 -0.03603297 0.00000000
v -0.03655719 -0.03655719 0.00000000
v -0.03724086 -0.03603297 0.00599986
v -0.03655719 -0.03655719 0.00599986
v -0.03803676 -0.03570330 0.00000000
v -0.03724086 -0.03603297 0.00000000
v -0.03803676 -0.03570330 0.00599986
v -0.03889065 -0.03559064 0.00000000
v -0.03803676 -0.03570330 0.00000000
v -0.03803676 -0.03570330 0.00599986
v -0.03724086 -0.03603297 0.00599986
v -0.03889065 -0.03559064 0.00599986
v -0.03889065 0.03559064 0.00000000
v -0.03889065 0.03559064 0.00599998
v -0.03803676 0.03570330 0.00599998
v -0.03803676 0.03570330 0.00000000
v -0.03724086 0.03603297 0.00000000
v -0.03803676 0.03570330 0.00000000
v -0.03724086 0.03603297 0.00599998
v -0.03803676 0.03570330 0.00599998
v -0.03655719 0.03655719 0.00000000
v -0.03724086 0.03603297 0.00000000
v -0.03655725 0.03655725 0.00599998
v -0.03603297 0.03724086 0.00000000
v -0.03655719 0.03655719 0.00000000
v -0.03655725 0.03655725 0.00599998
v -0.03724086 0.03603297 0.00599998
v -0.03603297 0.03724086 0.00599998
v -0.03570330 0.03803676 0.00000000
v -0.03603297 0.03724086 0.00000000
v -0.03570330 0.03803676 0.00599998
v -0.03559064 0.03889065 0.00000000
v -0.03570330 0.03803676 0.00000000
v -0.03570330 0.03803676 0.00599998
v -0.03603297 0.03724086 0.00599998
v -0.03570330 0.03974497 0.00000000
v -0.03559064 0.03889065 0.00000000
v -0.03559064 0.03889065 0.00599998
v -0.03559064 0.03889065 0.00599998
v -0.03603297 0.04054087 0.00000000
v -0.03570330 0.03974497 0.00000000
v -0.03570330 0.03974497 0.00599998
v -0.03570330 0.03974497 0.00599998
v -0.03603297 0.04054087 0.00599998
v -0.03655719 0.04122430 0.00000000
v -0.03603297 0.04054087 0.00000000
v -0.03655719 0.04122430 0.00599998
v -0.03603297 0.04054087 0.00599998
v -0.03724086 0.04174876 0.00000000
v -0.03655719 0.04122430 0.00000000
v -0.03724080 0.04174870 0.00599986
v -0.03655719 0.04122430 0.00599998
v -0.03803676 0.04207819 0.00000000
v -0.03724086 0.04174876 0.00000000
v -0.03803676 0.04207825 0.00599998
v -0.03889065 0.04219079 0.00000000
v -0.03803676 0.04207819 0.00000000
v -0.03803676 0.04207825 0.00599998
v -0.03724080 0.04174870 0.00599986
v -0.03889065 0.04219079 0.00599998
v 0.03889065 0.04219079 0.00599998
v 0.04207819 0.03803676 0.00599998
v 0.04054087 0.04174870 0.00599998
v 0.03862988 0.03436952 0.00599998
v 0.03724086 0.03603297 0.00599998
v -0.04219079 0.03889065 0.00599998
v -0.04207819 0.03974497 0.00599998
v 0.03803676 0.03570330 0.00599998
v 0.03570330 0.03803676 0.00599998
v 0.03559064 -0.03889065 0.00599986
v 0.03570330 -0.03803676 0.00599986
v 0.03559064 0.03889065 0.00599998
v 0.03974497 0.03570330 0.00599998
v 0.03889065 0.03559064 0.00599998
v -0.03382951 0.04008775 0.00599998
v -0.03570330 0.03974497 0.00599998
v -0.03559064 0.03889065 0.00599998
v 0.03570330 0.03974497 0.00599998
v 0.03603297 0.04054087 0.00599998
v 0.04054087 0.03603297 0.00599998
v 0.03655719 0.04122430 0.00599998
v 0.04174876 0.03724086 0.00599998
v 0.04122430 0.03655719 0.00599998
v 0.04207819 -0.03974497 0.00599986
v 0.04277998 -0.04277968 0.00599980
v 0.03724086 -0.04174876 0.00599986
v 0.03570330 -0.03974497 0.00599986
v 0.04054087 -0.03603297 0.00599986
v 0.03803676 -0.04207843 0.00599986
v 0.04122430 -0.03655719 0.00599986
v 0.04174876 -0.03724086 0.00599986
v -0.03889065 -0.04219079 0.00599986
v 0.03603285 -0.03724098 0.00599980
v 0.04164069 -0.04365402 0.00599986
v 0.04054087 -0.04174876 0.00599986
v 0.04122430 -0.04122430 0.00599986
v 0.04174876 -0.04054087 0.00599986
v 0.03655719 -0.03655719 0.00599986
v -0.04054081 -0.03603291 0.00599980
v -0.03974497 -0.03570330 0.00599986
v -0.03733777 -0.03382951 0.00599986
v -0.03803676 -0.03570330 0.00599986
v -0.03889065 -0.03559064 0.00599986
v -0.04164069 -0.04365402 0.00599986
v -0.03889065 0.03559064 0.00599998
v -0.03974497 0.03570330 0.00599998
v -0.03559064 -0.03889065 0.00599986
v -0.04174876 -0.04054087 0.00599986
v -0.03724086 -0.03603297 0.00599986
v -0.03974497 -0.04207843 0.00599986
v -0.03655719 -0.03655719 0.00599986
v -0.04207819 -0.03974497 0.00599986
v -0.03570330 -0.03803676 0.00599986
v -0.03603291 -0.03724086 0.00599986
v -0.04174876 -0.03724086 0.00599986
v -0.04122430 -0.03655719 0.00599986
v -0.03974497 0.04207819 0.00599998
v -0.03889065 0.04219079 0.00599998
v -0.04031419 0.04420346 0.00599998
v -0.04164069 0.04365396 0.00599998
v -0.03570330 0.03803676 0.00599998
v -0.03803676 0.04207825 0.00599998
v -0.04054087 0.03603297 0.00599998
v -0.03603297 0.04054087 0.00599998
v -0.03655719 0.04122430 0.00599998
v -0.04207819 0.03803676 0.00599998
v -0.03724080 0.04174870 0.00599986
v -0.03655725 0.03655725 0.00599998
v -0.04054087 0.04174870 0.00599998
v -0.03603297 0.03724086 0.00599998
v 0.03404814 0.04144090 0.05000281
v 0.04289931 0.03444081 0.04600948
v 0.04277992 0.04277992 0.00599998
v 0.04298639 0.04256170 0.03015315
v 0.04265111 0.04290419 0.03013920
v 0.04164069 0.04365396 0.00599998
v 0.04164069 0.04365396 0.00599998
v 0.04265111 0.04290419 0.03013920
v 0.04031437 0.04420346 0.00599998
v -0.04268687 0.04287064 0.03013563
v -0.04164069 0.04365396 0.00599998
v -0.04031419 0.04420346 0.00599998
v 0.04235225 -0.04316467 0.03021448
v 0.04268687 -0.04287070 0.03013557
v 0.04031419 -0.04420334 0.00599986
v -0.04164069 0.04365396 0.00599998
v 0.04277998 -0.04277968 0.00599980
v 0.04268687 -0.04287070 0.03013557
v 0.04317659 -0.04232871 0.03023278
v 0.04277998 -0.04277968 0.00599980
v 0.04235225 -0.04316467 0.03021448
v 0.04031419 -0.04420334 0.00599986
v -0.04277992 0.04277992 0.00599998
v -0.04365354 0.04187870 0.03013461
v -0.04235136 0.04316461 0.03021526
v -0.04432749 0.03805887 0.03613919
v -0.03360146 0.04145687 0.05078256
v 0.04277998 -0.04277968 0.00599980
v -0.03361588 -0.03733301 0.05983901
v -0.03634321 -0.03406131 0.06106632
v -0.03353095 -0.03963577 0.05496931
v -0.03490686 -0.03500479 0.06213700
v -0.03940176 -0.03343874 0.05566489
v -0.03343117 0.03918457 0.05615663
v -0.03791600 0.03347784 0.05884552
v -0.04278010 -0.04277956 0.00599980
v -0.04031413 -0.04420346 0.00599986
v -0.04226732 -0.04323244 0.03024345
f 1 2 3
f 2 4 5
f 6 7 8
f 9 10 11
f 12 13 14
f 15 16 17
f 18 19 20
f 21 22 23
f 24 25 26
f 1 27 2
f 28 29 30
f 31 32 33
f 34 35 36
f 3 5 37
f 38 39 21
f 40 41 42
f 43 44 45
f 46 47 48
f 49 50 51
f 52 53 54
f 55 56 57
f 58 59 60
f 61 62 63
f 64 65 66
f 67 7 68
f 69 70 71
f 24 47 46
f 72 73 74
f 75 76 77
f 78 79 80
f 72 81 82
f 83 84 85
f 86 87 88
f 89 43 45
f 90 91 92
f 6 68 7
f 68 6 93
f 94 95 96
f 2 5 3
f 97 98 99
f 100 101 102
f 103 104 105
f 106 107 108
f 109 110 81
f 111 112 113
f 114 115 116
f 117 118 119
f 120 121 122
f 123 124 125
f 19 126 20
f 127 128 129
f 130 131 132
f 133 134 135
f 81 110 136
f 43 137 44
f 6 8 138
f 139 140 141
f 142 143 144
f 145 146 147
f 148 149 150
f 151 53 152
f 68 153 67
f 154 155 156
f 154 156 157
f 155 158 156
f 159 160 55
f 161 58 60
f 132 70 69
f 70 132 162
f 163 164 165
f 163 165 166
f 59 58 167
f 168 169 170
f 42 94 96
f 53 151 54
f 171 172 173
f 148 17 16
f 149 174 175
f 174 176 177
f 25 24 46
f 131 162 132
f 26 25 178
f 48 179 180
f 46 48 180
f 181 182 183
f 176 159 184
f 41 94 42
f 185 186 187
f 185 187 188
f 189 190 191
f 192 193 194
f 195 196 197
f 196 198 197
f 199 200 201
f 202 203 204
f 200 205 201
f 206 207 208
f 202 204 209
f 206 208 210
f 211 212 213
f 214 215 216
f 212 217 213
f 214 216 218
f 219 220 221
f 222 223 224
f 220 225 221
f 222 224 226
f 227 228 229
f 228 230 229
f 231 232 233
f 231 233 234
f 235 236 237
f 236 238 237
f 239 240 241
f 240 242 241
f 243 244 245
f 244 246 245
f 247 248 249
f 250 251 252
f 248 253 249
f 254 255 256
f 250 252 257
f 254 256 258
f 259 260 261
f 262 263 264
f 260 265 261
f 262 264 266
f 267 268 269
f 270 271 272
f 268 273 269
f 270 272 274
f 275 90 92
f 276 277 278
f 276 278 279
f 280 281 282
f 281 283 282
f 284 285 286
f 285 287 286
f 288 289 290
f 289 291 290
f 292 293 294
f 295 296 297
f 293 298 294
f 299 300 301
f 295 297 302
f 299 301 303
f 304 305 306
f 307 308 309
f 305 310 306
f 307 309 311
f 312 313 314
f 315 316 317
f 313 318 314
f 315 317 319
f 320 75 77
f 190 321 191
f 322 323 324
f 322 324 325
f 326 83 85
f 327 103 105
f 193 328 194
f 329 330 331
f 330 332 331
f 333 334 335
f 336 337 338
f 334 339 335
f 340 341 342
f 336 338 343
f 340 342 344
f 345 346 347
f 348 349 350
f 346 351 347
f 348 350 352
f 353 354 355
f 356 357 358
f 354 359 355
f 356 358 360
f 361 362 363
f 362 364 363
f 365 366 367
f 368 369 370
f 371 372 373
f 374 371 373
f 375 376 377
f 376 378 377
f 379 380 381
f 382 383 384
f 380 385 381
f 382 384 386
f 387 388 389
f 390 391 392
f 388 393 389
f 394 395 396
f 390 392 397
f 398 399 400
f 394 396 401
f 398 400 402
f 403 404 405
f 404 406 405
f 407 408 409
f 408 410 409
f 411 412 413
f 414 415 416
f 412 417 413
f 414 416 418
f 419 420 421
f 422 419 421
f 423 424 425
f 424 426 425
f 427 428 429
f 430 431 432
f 428 433 429
f 430 432 434
f 435 436 437
f 438 439 440
f 436 441 437
f 442 443 444
f 438 440 445
f 446 447 448
f 442 444 449
f 446 448 450
f 451 452 453
f 452 454 453
f 455 456 457
f 456 458 457
f 459 460 461
f 462 463 464
f 460 465 461
f 462 464 466
f 467 468 469
f 470 467 469
f 471 472 473
f 472 474 473
f 475 476 477
f 478 479 480
f 476 481 477
f 478 480 482
f 483 484 485
f 486 487 488
f 484 489 485
f 490 491 492
f 486 488 493
f 494 495 496
f 490 492 497
f 494 496 498
f 499 500 501
f 500 502 501
f 503 504 505
f 504 506 505
f 507 508 509
f 510 511 512
f 508 513 509
f 510 512 514
f 515 516 517
f 518 515 517
f 519 520 521
f 520 522 521
f 523 524 525
f 526 527 528
f 524 529 525
f 526 528 530
f 531 532 533
f 534 535 536
f 532 537 533
f 538 539 540
f 534 536 541
f 542 543 544
f 538 540 545
f 542 544 546
f 547 548 549
f 548 550 549
f 551 552 553
f 552 554 553
f 555 556 557
f 558 559 560
f 556 561 557
f 558 560 562
f 121 563 122
f 564 100 102
f 122 563 124
f 565 123 125
f 133 566 567
f 563 125 124
f 566 133 135
f 568 569 80
f 570 567 566
f 101 100 129
f 565 128 123
f 135 134 571
f 123 128 127
f 572 573 108
f 135 571 574
f 575 576 566
f 577 578 579
f 135 580 581
f 575 566 582
f 122 135 583
f 135 581 583
f 584 585 100
f 585 566 100
f 583 120 122
f 564 584 100
f 82 81 136
f 586 587 74
f 587 72 74
f 106 63 588
f 107 589 108
f 63 106 108
f 585 582 566
f 590 72 82
f 591 588 63
f 590 592 72
f 73 72 593
f 592 593 72
f 108 589 572
f 62 591 63
f 126 594 20
f 573 595 108
f 61 63 596
f 61 596 597
f 597 596 587
f 597 587 598
f 598 587 599
f 595 600 81
f 600 109 81
f 586 599 587
f 601 602 603
f 604 603 605
f 606 111 113
f 607 608 119
f 86 88 609
f 99 113 610
f 113 112 610
f 604 611 603
f 606 20 612
f 111 606 612
f 611 613 603
f 99 610 614
f 615 88 616
f 603 613 616
f 99 614 97
f 594 612 20
f 98 617 99
f 88 18 20
f 99 617 618
f 87 18 88
f 99 618 601
f 619 620 621
f 622 619 621
f 623 577 579
f 88 615 609
f 621 620 624
f 80 119 78
f 78 119 625
f 603 602 605
f 626 578 577
f 627 626 577
f 625 119 608
f 80 79 628
f 627 577 629
f 574 580 135
f 80 628 568
f 118 607 119
f 576 570 566
f 630 117 119
f 569 114 80
f 80 114 116
f 116 115 622
f 115 631 622
f 622 631 619
f 623 632 577
f 632 630 577
f 633 95 634
f 180 179 634
f 23 38 21
f 635 636 637
f 635 637 638
f 639 640 641
f 160 56 55
f 642 643 644
f 645 646 647
f 143 142 648
f 649 650 651
f 652 653 654
f 655 656 657
f 149 175 150
f 89 658 52
f 54 89 52
f 174 177 175
f 659 151 152
f 22 21 660
f 17 148 150
f 95 633 96
f 60 154 157
f 179 633 634
f 177 176 184
f 661 662 663
f 155 663 158
f 664 662 661
f 662 665 663
f 663 665 158
f 161 60 157
f 666 659 152
f 173 172 667
f 172 666 667
f 152 667 666
f 668 669 670
f 159 55 184
f 658 89 45

