mtllib material.mtl
usemtl material_forearm_1
v 0.02972793 -0.00764334 0.17779970
v 0.02917963 -0.00940311 0.17220069
v 0.03069067 -0.00000194 0.17219990
v 0.03054261 0.00190020 0.17779990
v -0.00294554 -0.03079384 0.17779990
v -0.00770718 -0.03006017 0.17219990
v 0.00628626 -0.03042250 0.17219990
v 0.00695193 -0.03011566 0.17779970
v 0.02887523 0.00977182 0.17219999
v 0.02836745 0.01122838 0.17779949
v 0.01690018 -0.02591449 0.17779990
v 0.01828110 -0.02494829 0.17219900
v 0.02441692 0.01825135 0.17219990
v 0.02288579 0.02010953 0.17780110
v 0.01548266 0.02622449 0.17219940
v 0.02541810 -0.01749885 0.17780019
v 0.01690018 -0.02591449 0.17779990
v 0.01828110 -0.02494829 0.17219900
v 0.02563661 -0.01704335 0.17219999
v 0.01541376 0.02610731 0.17779949
v 0.00734478 0.02942055 0.17779960
v 0.00295567 0.03029847 0.17219999
v -0.00919342 -0.02671730 0.05846667
v -0.00153816 -0.02815371 0.05852103
v -0.00254559 -0.02732068 0.06037616
v -0.01058065 -0.02539527 0.06026828
v -0.01688659 -0.02247911 0.05864739
v -0.01762658 -0.02093058 0.06033742
v -0.02095812 -0.01764822 0.05988770
v -0.02342844 -0.01431852 0.05941963
v -0.01688659 -0.02247911 0.05864739
v -0.02342844 -0.01431852 0.05941963
v -0.02668327 -0.00557798 0.06036669
v -0.02623742 -0.00906843 0.05889177
v -0.02797240 0.00108457 0.05855441
v -0.02917456 -0.01143372 0.05498969
v -0.02623742 -0.00906843 0.05889177
v -0.02668327 -0.00557798 0.06036669
v -0.02797240 0.00108457 0.05855441
v -0.02797240 0.00108457 0.05855441
v -0.02668327 -0.00557798 0.06036669
v -0.02701395 0.00236708 0.06040650
v -0.02559733 0.01071768 0.05861592
v -0.02504956 0.01041764 0.06026983
v -0.02186053 0.01715576 0.05847615
v -0.02042067 0.01759558 0.06025958
v -0.01665836 0.02128100 0.05932438
v -0.01085990 0.02545893 0.05852055
v -0.01665836 0.02128100 0.05932438
v -0.01063734 0.02472048 0.06036317
v -0.00317580 0.02663952 0.06039136
v -0.00109786 0.02773702 0.05849719
v 0.00271970 0.02673828 0.06038749
v 0.00083500 -0.02800446 0.16468421
v -0.00967765 -0.03009402 0.16884170
v -0.00580430 -0.02692085 0.16402981
v -0.01232743 -0.02445644 0.16325560
v -0.00580430 -0.02692085 0.16402981
v -0.01243805 -0.02502024 0.16471639
v -0.01987969 -0.01896005 0.16353071
v -0.01911187 -0.02070629 0.16507550
v -0.01911187 -0.02070629 0.16507550
v -0.02427875 -0.01263099 0.16401200
v -0.02642023 -0.00672257 0.16319560
v -0.02427875 -0.01263099 0.16401200
v -0.02622771 -0.01004987 0.16509791
v -0.02642023 -0.00672257 0.16319560
v -0.02622771 -0.01004987 0.16509791
v -0.02768898 -0.00319684 0.16502450
v -0.02721810 0.00151181 0.16414310
v -0.02642023 -0.00672257 0.16319560
v -0.02768898 -0.00319684 0.16502450
v -0.03122520 -0.00332671 0.16896160
v -0.02177232 0.01608479 0.16333000
v -0.02449256 0.01201689 0.16442680
v -0.02110832 0.01793462 0.16506021
v -0.02177232 0.01608479 0.16333000
v -0.02110832 0.01793462 0.16506021
v -0.01622974 0.02159351 0.16414700
v -0.02111423 0.02242475 0.16830190
v -0.01000022 0.02590167 0.16512220
v -0.01162791 0.02421689 0.16324051
v -0.01622974 0.02159351 0.16414700
v -0.01000022 0.02590167 0.16512220
v -0.00570297 0.02632856 0.16404779
v -0.01162791 0.02421689 0.16324051
v -0.00105512 0.02680474 0.16323730
v -0.00570297 0.02632856 0.16404779
v 0.00186306 0.02765786 0.16516510
v 0.00484711 0.02643620 0.16337331
v 0.01103067 0.02877324 0.05506086
v 0.01865857 0.02485406 0.05477309
v 0.01361614 0.02809989 0.05390197
v 0.01220399 0.02891540 0.05233818
v 0.00351423 0.03085803 0.05475431
v 0.00162893 -0.03140848 0.05493658
v -0.00418043 -0.03124070 0.05484962
v -0.00195307 -0.03183817 0.05230987
v 0.00430226 -0.03155779 0.05232793
v 0.00957870 -0.03032428 0.05401223
v 0.00850034 -0.03010022 0.05525177
v 0.01561611 -0.02734535 0.05494111
v 0.02142518 -0.02323025 0.05460381
v 0.01561611 -0.02734535 0.05494111
v 0.02084511 -0.02435541 0.05233436
v 0.02610671 -0.01750856 0.05491834
v 0.02784365 -0.01541894 0.05235630
v 0.02912712 -0.01148229 0.05497092
v 0.03033047 -0.00846708 0.05445206
v 0.03095114 -0.00659192 0.05235087
v 0.03033047 -0.00846708 0.05445206
v 0.03064346 -0.00312585 0.05552649
v 0.02912712 -0.01148229 0.05497092
v 0.03150796 0.00173402 0.05380570
v 0.03077358 0.00359309 0.05517697
v 0.02971398 0.00979888 0.05461233
v 0.02722859 0.01504743 0.05487537
v 0.02899175 0.01241856 0.05237132
v 0.00643641 -0.03117430 0.16944189
v -0.00051880 -0.03163641 0.16889450
v 0.00860292 -0.02993875 0.16811250
v 0.01478189 -0.02801692 0.16912930
v 0.00643641 -0.03117430 0.16944189
v 0.00860292 -0.02993875 0.16811250
v 0.02102196 -0.02326756 0.16845331
v 0.02188235 -0.02323240 0.17218070
v 0.02546972 -0.01863908 0.16933280
v 0.02102196 -0.02326756 0.16845331
v 0.02191448 -0.01757395 0.16501780
v 0.02546972 -0.01863908 0.16933280
v 0.02901101 -0.01231312 0.16893710
v 0.02490752 -0.01294153 0.16511030
v 0.02901101 -0.01231312 0.16893710
v 0.02902960 -0.01323455 0.17219590
v 0.03093355 -0.00556386 0.16908380
v 0.02740955 -0.00573480 0.16507740
v 0.03136485 0.00095055 0.16892360
v 0.03043931 0.00695789 0.16883390
v 0.03038305 0.00879079 0.17218390
v 0.02830922 0.01319473 0.16892150
v 0.02687638 0.01015937 0.16613171
v 0.02482444 0.01099354 0.16407630
v 0.02830922 0.01319473 0.16892150
v 0.02402615 0.01977086 0.16879500
v 0.02142453 0.01752334 0.16496250
v 0.02402615 0.01977086 0.16879500
v 0.02690273 0.01623415 0.17219061
v 0.01173394 0.02868121 0.16866180
v 0.02037501 0.02355659 0.16903231
v 0.01627814 0.02236688 0.16508740
v 0.01596206 0.02683311 0.16963691
v 0.00669348 0.03047794 0.16974279
v 0.00316155 0.03059661 0.16846821
v -0.00051880 -0.03163641 0.16889450
v 0.00279927 -0.03183215 0.17219450
v -0.00482672 -0.03149420 0.17218950
v 0.03093355 -0.00556386 0.16908380
v 0.03164058 -0.00084856 0.17219700
v 0.00426805 0.03098756 0.17219999
v 0.01294112 0.02854979 0.17219970
v 0.01173394 0.02868121 0.16866180
v 0.01596206 0.02683311 0.16963691
v 0.02190893 0.02256757 0.17220010
v 0.02037501 0.02355659 0.16903231
v 0.01309996 -0.02915847 0.17219980
v 0.03136485 0.00095055 0.16892360
v 0.02769947 0.00048162 0.16481940
v 0.03043931 0.00695789 0.16883390
v 0.02660346 0.00564301 0.16414531
v -0.00455642 -0.03078043 0.16818880
v 0.01478189 -0.02801692 0.16912930
v 0.00806785 -0.02662730 0.16457979
v 0.01293349 -0.02433478 0.16417670
v 0.01742494 -0.02130919 0.16423631
v 0.00998235 0.02510029 0.16409640
v 0.00186306 0.02765786 0.16516510
v 0.02637010 -0.00714898 0.06003320
v 0.02707469 -0.00252146 0.16317341
v 0.02581381 -0.00864059 0.16323569
v 0.02712500 0.00157678 0.06040471
v 0.02447080 -0.01242756 0.05934303
v 0.02259212 -0.01543235 0.16323660
v 0.01148718 0.02445143 0.05940306
v 0.00484711 0.02643620 0.16337331
v 0.00998235 0.02510029 0.16409640
v 0.00271970 0.02673828 0.06038749
v 0.02096807 -0.01789414 0.05934417
v 0.01675564 0.02110183 0.16325970
v 0.01725077 0.02094542 0.05937665
v 0.01898247 -0.01965975 0.06034183
v 0.01742494 -0.02130919 0.16423631
v 0.02009993 0.01791971 0.06055718
v 0.02183258 0.01589351 0.16334110
v 0.01556468 -0.02273279 0.05928713
v 0.01293349 -0.02433478 0.16417670
v 0.01030552 -0.02544862 0.06030452
v 0.02346783 0.01326668 0.06035244
v 0.02482444 0.01099354 0.16407630
v 0.00302005 -0.02737712 0.16350371
v 0.02570688 0.00875389 0.05959516
v 0.02660346 0.00564301 0.16414531
v 0.00313872 -0.02741473 0.05937522
v -0.00254559 -0.02732068 0.06037616
v -0.00580430 -0.02692085 0.16402981
v 0.02763128 -0.00516224 0.05837941
v 0.02447080 -0.01242756 0.05934303
v 0.02610671 -0.01750856 0.05491834
v 0.00351423 0.03085803 0.05475431
v 0.00721091 0.02625143 0.05903905
v 0.02096807 -0.01789414 0.05934417
v 0.01148718 0.02445143 0.05940306
v 0.02142518 -0.02323025 0.05460381
v 0.01556468 -0.02273279 0.05928713
v 0.02334707 0.02062898 0.05472135
v 0.01725077 0.02094542 0.05937665
v 0.02277028 0.01585471 0.05848377
v 0.01063114 -0.02615123 0.05849194
v 0.02722859 0.01504743 0.05487537
v 0.02570688 0.00875389 0.05959516
v 0.00313872 -0.02741473 0.05937522
v 0.02971398 0.00979888 0.05461233
v 0.00162893 -0.03140848 0.05493658
v -0.00418043 -0.03124070 0.05484962
v 0.02784395 0.00107562 0.05852478
v 0.03156238 0.00108302 0.05235815
v 0.00643158 0.03051990 0.05238401
v 0.01865857 0.02485406 0.05477309
v 0.02210974 0.02232760 0.05237329
v 0.02334707 0.02062898 0.05472135
v 0.00966293 -0.03037351 0.05236524
v -0.03151726 -0.00280762 0.05240297
v -0.03093302 0.00609541 0.05233556
v -0.03057903 -0.00011092 0.05217427
v -0.02995687 0.00584423 0.05223727
v -0.02983582 0.01044875 0.05234354
v -0.02848106 0.01089888 0.05225670
v -0.02460718 0.01790767 0.05223363
v -0.02644109 0.01515167 0.05227071
v -0.02488940 0.01905572 0.05232000
v -0.02112317 0.02175986 0.05218213
v -0.02460718 0.01790767 0.05223363
v -0.01682239 0.02523463 0.05220383
v -0.01682239 0.02523463 0.05220383
v -0.02160990 0.02272278 0.05232495
v -0.02160990 0.02272278 0.05232495
v -0.01744824 0.02616667 0.05236524
v -0.01106584 0.02821987 0.05222171
v -0.01682239 0.02523463 0.05220383
v -0.02160990 0.02272278 0.05232495
v -0.01106584 0.02821987 0.05222171
v 0.00430226 -0.03155779 0.05232793
v -0.01017707 -0.03019160 0.05233168
v -0.00358373 -0.03063422 0.05220711
v -0.01017707 -0.03019160 0.05233168
v -0.01613742 -0.02637410 0.05223578
v -0.00883794 -0.02958405 0.05223166
v -0.00358373 -0.03063422 0.05220711
v -0.00759870 0.03040808 0.05247968
v -0.00417835 0.03004300 0.05226814
v -0.01801306 -0.02621918 0.05232471
v -0.00359583 0.03114056 0.05240017
v 0.00079559 0.03034794 0.05224829
v 0.00510853 0.02984255 0.05215770
v -0.02673280 -0.01515614 0.05225318
v -0.02292960 -0.02060645 0.05223548
v -0.02608984 -0.01827251 0.05241048
v -0.03028440 -0.00939262 0.05234307
v -0.02959859 -0.00842243 0.05225092
v 0.03054261 0.00190020 0.04580003
v 0.02997100 0.00611717 0.05224651
v 0.03054958 -0.00212091 0.05224072
v 0.00152022 -0.03087723 0.04579997
v 0.00277489 -0.03082633 0.05223608
v -0.00358373 -0.03063422 0.05220711
v -0.00920004 -0.02957427 0.04580008
v 0.02972793 -0.00764316 0.04579991
v 0.00534797 0.02997237 0.04579997
v 0.00510853 0.02984255 0.05215770
v 0.01044178 0.02840268 0.05218440
v 0.02957952 -0.00797087 0.05222880
v 0.01617199 0.02569699 0.04580062
v 0.01572489 0.02594643 0.05223459
v 0.02737092 -0.01396828 0.05219495
v 0.02541804 -0.01749885 0.04579955
v 0.02088189 0.02200043 0.05218362
v 0.02295410 -0.02060139 0.05224841
v 0.02341580 0.01942795 0.04579842
v 0.02386587 0.01874959 0.05214554
v 0.01756870 -0.02540022 0.04580080
v 0.01769715 -0.02522850 0.05220574
v 0.02729398 0.01356238 0.05223917
v 0.02836745 0.01122850 0.04580014
v 0.01125687 -0.02879935 0.05225068
v 0.00978518 -0.02925217 0.04580020
v -0.03061801 0.00144666 0.04579997
v -0.03057903 -0.00011092 0.05217427
v -0.02995687 0.00584423 0.05223727
v -0.00883794 -0.02958405 0.05223166
v -0.02766412 0.01304972 0.04580003
v -0.02848106 0.01089888 0.05225670
v -0.01613742 -0.02637410 0.05223578
v -0.02460718 0.01790767 0.05223363
v -0.01870679 -0.02453809 0.04579895
v -0.01927965 0.02368533 0.04580020
v -0.02292960 -0.02060645 0.05223548
v -0.02112317 0.02175986 0.05218213
v -0.02528280 -0.01757258 0.04580080
v -0.02673280 -0.01515614 0.05225318
v -0.00745487 0.02946573 0.04579997
v -0.02938401 -0.00891620 0.04579979
v -0.02959859 -0.00842243 0.05225092
v -0.00417835 0.03004300 0.05226814
v 0.02997100 0.00611717 0.05224651
v 0.03156238 0.00108302 0.05235815
v 0.03054958 -0.00212091 0.05224072
v 0.03095114 -0.00659192 0.05235087
v 0.02957952 -0.00797087 0.05222880
v 0.02737092 -0.01396828 0.05219495
v 0.02784365 -0.01541894 0.05235630
v 0.02295410 -0.02060139 0.05224841
v 0.02084511 -0.02435541 0.05233436
v 0.00643158 0.03051990 0.05238401
v 0.01769715 -0.02522850 0.05220574
v 0.01220399 0.02891540 0.05233818
v 0.01125687 -0.02879935 0.05225068
v 0.01572489 0.02594643 0.05223459
v 0.01044178 0.02840268 0.05218440
v 0.00510853 0.02984255 0.05215770
v 0.01572489 0.02594643 0.05223459
v 0.00966293 -0.03037351 0.05236524
v 0.00277489 -0.03082633 0.05223608
v 0.02088189 0.02200043 0.05218362
v 0.02210974 0.02232760 0.05237329
v 0.00430226 -0.03155779 0.05232793
v -0.00358373 -0.03063422 0.05220711
v 0.02386587 0.01874959 0.05214554
v 0.02088189 0.02200043 0.05218362
v 0.02729398 0.01356238 0.05223917
v 0.02729398 0.01356238 0.05223917
v 0.02899175 0.01241856 0.05237132
v -0.01017707 -0.03019160 0.05233168
v 0.00430226 -0.03155779 0.05232793
v -0.00195307 -0.03183817 0.05230987
v -0.00359583 0.03114056 0.05240017
v -0.00229907 0.03097051 0.05462360
v -0.03151726 -0.00280762 0.05240297
v -0.03113043 0.00337344 0.05456691
v -0.03093302 0.00609541 0.05233556
v -0.01017707 -0.03019160 0.05233168
v -0.00843853 -0.03049427 0.05474472
v -0.01801306 -0.02621918 0.05232471
v -0.01465374 -0.02797853 0.05469548
v -0.02488940 0.01905572 0.05232000
v -0.02983582 0.01044875 0.05234354
v -0.02617925 0.01725304 0.05379194
v -0.01903378 -0.02508383 0.05478239
v -0.02309554 -0.02144551 0.05479252
v -0.02488940 0.01905572 0.05232000
v -0.02617925 0.01725304 0.05379194
v -0.02160990 0.02272278 0.05232495
v -0.02608984 -0.01827251 0.05241048
v -0.03028440 -0.00939262 0.05234307
v -0.02917456 -0.01143372 0.05498969
v -0.00759870 0.03040808 0.05247968
v -0.01744824 0.02616667 0.05236524
v -0.01093912 0.02901220 0.05480533
v -0.02961349 0.00808513 0.05549502
v -0.03113043 0.00337344 0.05456691
v -0.00843853 -0.03049427 0.05474472
v -0.00919342 -0.02671730 0.05846667
v -0.02845275 0.01242268 0.05499523
v -0.02353334 0.02026039 0.05490821
v -0.01465374 -0.02797853 0.05469548
v -0.01688659 -0.02247911 0.05864739
v -0.01665836 0.02128100 0.05932438
v -0.01903378 -0.02508383 0.05478239
v -0.01730966 0.02551496 0.05517697
v -0.01085990 0.02545893 0.05852055
v -0.02309554 -0.02144551 0.05479252
v -0.01093912 0.02901220 0.05480533
v -0.02592611 -0.01766115 0.05486655
v -0.00109786 0.02773702 0.05849719
v -0.00229907 0.03097051 0.05462360
v -0.03080606 -0.00165772 0.05546641
v -0.02701395 0.00236708 0.06040650
v -0.02721810 0.00151181 0.16414310
v -0.02638274 0.00664025 0.16426800
v -0.02504956 0.01041764 0.06026983
v -0.01058065 -0.02539527 0.06026828
v -0.01063734 0.02472048 0.06036317
v -0.02642023 -0.00672257 0.16319560
v -0.00317580 0.02663952 0.06039136
v -0.02668327 -0.00557798 0.06036669
v -0.03108447 0.00266558 0.16864830
v -0.02975726 -0.01025307 0.16897731
v -0.00040484 0.03107011 0.16896801
v -0.00801480 0.02998983 0.16890450
v -0.02772462 -0.01449805 0.16863780
v -0.02536904 -0.01857507 0.16874330
v -0.01952379 -0.02444303 0.16846029
v -0.01451814 0.02752584 0.16900121
v -0.01602578 -0.02726429 0.16903670
v -0.02729034 0.01429527 0.16824980
v -0.02449256 0.01201689 0.16442680
v -0.02638274 0.00664025 0.16426800
v -0.03031146 0.00779319 0.16905850
v -0.00040484 0.03107011 0.16896801
v -0.00670826 0.03070825 0.17219660
v -0.00967765 -0.03009402 0.16884170
v -0.01247495 -0.02936244 0.17219080
v -0.03031146 0.00779319 0.16905850
v -0.03108447 0.00266558 0.16864830
v -0.03136307 0.00481170 0.17219810
v -0.02836614 0.01338869 0.16965240
v -0.02727955 0.01561546 0.17220010
v -0.01602578 -0.02726429 0.16903670
v -0.02069878 -0.02420806 0.17219760
v -0.02515560 0.01860648 0.16972689
v -0.01991170 0.02447164 0.17219970
v -0.02079254 0.02339923 0.16991749
v -0.02249407 -0.02226495 0.16946220
v -0.02694886 -0.01691699 0.17219080
v -0.01451814 0.02752584 0.16900121
v -0.02975726 -0.01025307 0.16897731
v -0.03085947 -0.00725371 0.17219540
v -0.00801480 0.02998983 0.16890450
v -0.03122520 -0.00332671 0.16896160
v -0.02694886 -0.01691699 0.17219080
v -0.02069878 -0.02420806 0.17219760
v -0.02702194 -0.01524198 0.17219990
v -0.01816213 -0.02494889 0.17219961
v -0.03085947 -0.00725371 0.17219540
v -0.01247495 -0.02936244 0.17219080
v -0.03067505 -0.00132322 0.17219990
v -0.00770718 -0.03006017 0.17219990
v -0.03136307 0.00481170 0.17219810
v -0.00482672 -0.03149420 0.17218950
v -0.02836936 0.01163256 0.17219999
v 0.00279927 -0.03183215 0.17219450
v 0.00628626 -0.03042250 0.17219990
v -0.02727955 0.01561546 0.17220010
v 0.01309996 -0.02915847 0.17219980
v -0.01991170 0.02447164 0.17219970
v -0.02150952 0.02148967 0.17219940
v 0.01828110 -0.02494829 0.17219900
v 0.02188235 -0.02323240 0.17218070
v -0.01128357 0.02836185 0.17220020
v -0.00670826 0.03070825 0.17219660
v 0.02563661 -0.01704335 0.17219999
v 0.02902960 -0.01323455 0.17219590
v 0.00295567 0.03029847 0.17219999
v 0.02917963 -0.00940311 0.17220069
v 0.00426805 0.03098756 0.17219999
v 0.03069067 -0.00000194 0.17219990
v 0.03164058 -0.00084856 0.17219700
v 0.01294112 0.02854979 0.17219970
v 0.01548266 0.02622449 0.17219940
v 0.03038305 0.00879079 0.17218390
v 0.02887523 0.00977182 0.17219999
v 0.02190893 0.02256757 0.17220010
v 0.02441692 0.01825135 0.17219990
v 0.02690273 0.01623415 0.17219061
v -0.02772462 -0.01449805 0.16863780
v -0.02536904 -0.01857507 0.16874330
v -0.02249407 -0.02226495 0.16946220
v -0.01952379 -0.02444303 0.16846029
v -0.00455642 -0.03078043 0.16818880
v -0.01730966 0.02551496 0.05517697
v -0.02353334 0.02026039 0.05490821
v -0.02845275 0.01242268 0.05499523
v -0.02617925 0.01725304 0.05379194
v -0.02961349 0.00808513 0.05549502
v -0.03105223 -0.00478995 0.05456233
v -0.03080606 -0.00165772 0.05546641
v -0.03105223 -0.00478995 0.05456233
v -0.02592611 -0.01766115 0.05486655
v 0.00186306 0.02765786 0.16516510
v 0.01675564 0.02110183 0.16325970
v 0.02142453 0.01752334 0.16496250
v 0.02707469 -0.00252146 0.16317341
v 0.02740955 -0.00573480 0.16507740
v 0.02581381 -0.00864059 0.16323569
v 0.02490752 -0.01294153 0.16511030
v 0.02259212 -0.01543235 0.16323660
v 0.00302005 -0.02737712 0.16350371
v 0.00302005 -0.02737712 0.16350371
v 0.00806785 -0.02662730 0.16457979
v 0.00083500 -0.02800446 0.16468421
v 0.00302005 -0.02737712 0.16350371
v 0.00721091 0.02625143 0.05903905
v -0.00109786 0.02773702 0.05849719
v 0.00271970 0.02673828 0.06038749
v 0.00271970 0.02673828 0.06038749
v 0.02277028 0.01585471 0.05848377
v 0.02784395 0.00107562 0.05852478
v 0.02763128 -0.00516224 0.05837941
v 0.02637010 -0.00714898 0.06003320
v 0.02763128 -0.00516224 0.05837941
v 0.01063114 -0.02615123 0.05849194
v 0.01556468 -0.02273279 0.05928713
v 0.01030552 -0.02544862 0.06030452
v 0.00313872 -0.02741473 0.05937522
v -0.03024464 0.00412691 0.17779990
v -0.02794069 0.01222711 0.17780010
v -0.02836936 0.01163256 0.17219999
v -0.01366734 -0.02777498 0.17779981
v -0.00306392 0.03020685 0.17779990
v -0.03067505 -0.00132322 0.17219990
v -0.01128357 0.02836185 0.17220020
v -0.03037047 -0.00421453 0.17779990
v -0.01419925 0.02690339 0.17779990
v -0.02702194 -0.01524198 0.17219990
v -0.02810162 -0.01232469 0.17779911
v -0.02314347 -0.02045464 0.17779949
v -0.01419925 0.02690339 0.17779990
v -0.01128357 0.02836185 0.17220020
v -0.02150952 0.02148967 0.17219940
v -0.02270126 0.02024573 0.17780110
v -0.01816213 -0.02494889 0.17219961
v -0.02766412 0.01304972 0.04580003
v -0.00745487 0.02946573 0.04579997
v -0.02528280 -0.01757258 0.04580080
v -0.03061801 0.00144666 0.04579997
v -0.02938401 -0.00891620 0.04579979
v 0.01617199 0.02569699 0.04580062
v 0.00978518 -0.02925217 0.04580020
v 0.00152022 -0.03087723 0.04579997
v 0.01756870 -0.02540022 0.04580080
v 0.03054261 0.00190020 0.04580003
v 0.02972793 -0.00764316 0.04579991
v 0.02836745 0.01122850 0.04580014
v -0.01927965 0.02368533 0.04580020
v 0.02541804 -0.01749885 0.04579955
v 0.02341580 0.01942795 0.04579842
v -0.01870679 -0.02453809 0.04579895
v -0.00920004 -0.02957427 0.04580008
v 0.00534797 0.02997237 0.04579997
v 0.01541376 0.02610731 0.17779949
v 0.00734478 0.02942055 0.17779960
v 0.02288579 0.02010953 0.17780110
v 0.02972793 -0.00764334 0.17779970
v 0.03054261 0.00190020 0.17779990
v 0.02836745 0.01122838 0.17779949
v -0.02810162 -0.01232469 0.17779911
v -0.02314347 -0.02045464 0.17779949
v -0.03037047 -0.00421453 0.17779990
v -0.01419925 0.02690339 0.17779990
v -0.01366734 -0.02777498 0.17779981
v 0.00695193 -0.03011566 0.17779970
v -0.02794069 0.01222711 0.17780010
v -0.02270126 0.02024573 0.17780110
v 0.01690018 -0.02591449 0.17779990
v 0.02541810 -0.01749885 0.17780019
v -0.00306392 0.03020685 0.17779990
v -0.03024464 0.00412691 0.17779990
v -0.00294554 -0.03079384 0.17779990
f 1 2 3
f 4 1 3
f 5 6 7
f 8 5 7
f 4 3 9
f 10 4 9
f 11 8 7
f 11 7 12
f 10 9 13
f 14 10 13
f 14 13 15
f 16 17 18
f 16 18 19
f 20 14 15
f 16 19 2
f 21 20 15
f 1 16 2
f 21 15 22
f 23 24 25
f 23 25 26
f 27 23 26
f 27 26 28
f 27 28 29
f 30 31 29
f 32 33 34
f 35 36 34
f 37 38 39
f 40 41 42
f 40 42 43
f 43 42 44
f 43 44 45
f 45 44 46
f 47 45 46
f 48 49 50
f 48 50 51
f 52 48 51
f 52 51 53
f 54 55 56
f 57 58 59
f 60 57 59
f 59 61 60
f 62 63 60
f 64 65 66
f 67 68 69
f 70 71 72
f 72 73 70
f 74 75 76
f 77 78 79
f 79 80 81
f 82 83 84
f 85 86 81
f 87 88 89
f 89 90 87
f 91 92 93
f 91 93 94
f 95 91 94
f 96 97 98
f 96 98 99
f 100 96 99
f 101 96 100
f 102 101 100
f 103 104 105
f 106 103 105
f 106 105 107
f 108 106 107
f 109 108 107
f 109 107 110
f 111 112 113
f 114 109 110
f 112 109 114
f 115 112 114
f 115 114 116
f 117 116 118
f 119 120 121
f 122 123 124
f 125 126 122
f 127 128 129
f 130 126 125
f 131 129 132
f 131 127 129
f 133 134 130
f 135 131 136
f 137 138 139
f 140 141 142
f 143 139 138
f 144 140 142
f 144 142 145
f 143 146 147
f 148 149 150
f 151 149 148
f 152 148 153
f 154 123 155
f 154 155 156
f 157 137 158
f 152 159 160
f 157 158 134
f 133 157 134
f 161 152 160
f 162 161 160
f 162 160 163
f 130 134 126
f 164 162 163
f 146 164 163
f 146 163 147
f 122 126 165
f 143 147 139
f 123 122 165
f 123 165 155
f 137 139 158
f 166 135 136
f 166 136 167
f 168 167 169
f 168 166 167
f 120 170 54
f 168 169 141
f 120 54 121
f 140 168 141
f 171 172 173
f 171 121 172
f 128 171 173
f 128 173 174
f 149 144 145
f 149 145 150
f 148 150 175
f 128 174 129
f 153 148 176
f 131 132 136
f 177 178 179
f 177 180 178
f 181 177 179
f 181 179 182
f 183 184 185
f 183 186 184
f 187 181 182
f 183 185 188
f 189 183 188
f 190 182 191
f 190 187 182
f 192 188 193
f 192 189 188
f 194 190 191
f 194 191 195
f 196 194 195
f 197 192 193
f 197 193 198
f 196 195 199
f 200 197 198
f 200 198 201
f 202 196 199
f 180 200 201
f 203 202 199
f 180 201 178
f 203 199 204
f 113 205 206
f 113 112 205
f 207 113 206
f 91 208 209
f 207 206 210
f 91 209 211
f 92 91 211
f 102 212 213
f 214 92 215
f 214 215 216
f 102 213 217
f 218 216 219
f 218 214 216
f 101 102 217
f 101 217 220
f 221 218 219
f 222 101 220
f 222 220 24
f 221 219 115
f 223 222 24
f 112 115 224
f 112 224 205
f 225 114 110
f 226 95 94
f 94 93 227
f 228 94 227
f 228 227 229
f 228 229 117
f 118 228 117
f 230 105 104
f 230 104 100
f 118 116 114
f 230 100 99
f 225 118 114
f 231 232 233
f 233 232 234
f 234 235 236
f 237 236 238
f 238 239 237
f 240 241 242
f 243 237 239
f 239 244 243
f 245 246 247
f 248 249 250
f 251 252 253
f 254 255 256
f 257 254 256
f 246 258 247
f 247 258 259
f 254 260 255
f 259 258 261
f 262 259 261
f 263 259 262
f 264 265 266
f 264 267 268
f 267 231 268
f 268 231 233
f 269 270 271
f 272 273 274
f 275 272 274
f 276 269 271
f 277 278 279
f 276 271 280
f 281 279 282
f 276 280 283
f 281 277 279
f 284 276 283
f 281 282 285
f 284 283 286
f 287 281 285
f 287 285 288
f 289 284 286
f 289 286 290
f 287 288 291
f 292 287 291
f 289 290 293
f 294 289 293
f 292 291 270
f 294 293 273
f 269 292 270
f 272 294 273
f 295 296 297
f 275 274 298
f 299 297 300
f 299 295 297
f 275 298 301
f 299 300 302
f 303 275 301
f 304 299 302
f 303 301 305
f 304 302 306
f 307 303 305
f 304 306 248
f 307 305 308
f 304 248 250
f 309 304 250
f 310 308 311
f 310 307 308
f 309 250 312
f 295 311 296
f 295 310 311
f 277 312 278
f 277 309 312
f 313 314 315
f 315 316 317
f 318 317 316
f 316 319 318
f 320 318 319
f 319 321 320
f 263 262 322
f 320 321 323
f 322 324 263
f 323 321 325
f 263 324 326
f 327 328 329
f 321 330 325
f 331 325 330
f 332 326 333
f 334 335 331
f 336 337 338
f 332 333 339
f 313 339 340
f 340 314 313
f 235 239 238
f 235 238 236
f 232 235 234
f 261 322 262
f 324 333 326
f 266 267 264
f 339 333 340
f 266 265 260
f 265 255 260
f 341 342 343
f 315 314 316
f 334 331 330
f 344 345 95
f 346 347 348
f 226 344 95
f 349 98 350
f 351 349 352
f 353 354 355
f 351 356 357
f 358 359 360
f 361 351 357
f 362 361 363
f 364 365 366
f 367 368 35
f 367 35 43
f 369 223 24
f 369 24 370
f 371 367 43
f 372 43 45
f 372 371 43
f 373 370 374
f 373 369 370
f 372 45 375
f 376 373 374
f 377 372 375
f 377 375 378
f 379 376 374
f 379 374 32
f 380 377 378
f 381 379 32
f 36 32 34
f 36 381 32
f 380 378 382
f 208 383 382
f 384 36 35
f 208 382 209
f 368 384 35
f 385 386 387
f 388 385 387
f 388 387 75
f 389 203 204
f 388 75 74
f 389 204 57
f 46 388 74
f 28 389 57
f 28 57 60
f 47 74 83
f 47 46 74
f 47 83 82
f 29 28 60
f 390 47 82
f 29 60 63
f 30 29 63
f 390 82 88
f 30 63 391
f 392 390 88
f 393 30 391
f 392 88 87
f 392 87 184
f 186 392 184
f 393 391 386
f 385 393 386
f 394 70 73
f 395 72 66
f 395 73 72
f 396 176 85
f 397 85 81
f 397 396 85
f 398 395 66
f 399 66 65
f 399 398 66
f 399 65 61
f 400 399 61
f 80 401 81
f 80 79 78
f 400 61 59
f 402 400 59
f 55 402 59
f 55 59 56
f 403 78 404
f 403 80 78
f 170 55 54
f 403 404 405
f 406 403 405
f 394 406 405
f 394 405 70
f 407 408 159
f 152 407 159
f 409 156 410
f 411 412 413
f 414 413 415
f 414 411 413
f 416 410 417
f 418 414 415
f 418 415 419
f 420 418 419
f 421 417 422
f 423 420 419
f 424 422 425
f 423 419 408
f 426 423 408
f 427 425 413
f 428 429 430
f 430 429 431
f 432 428 430
f 429 433 431
f 432 430 434
f 431 433 435
f 432 434 436
f 433 437 435
f 436 434 438
f 437 439 435
f 435 439 440
f 436 438 441
f 440 439 442
f 441 438 443
f 443 438 444
f 440 442 445
f 445 442 446
f 444 447 443
f 443 447 448
f 449 445 446
f 449 446 450
f 447 451 448
f 452 449 450
f 448 451 453
f 454 452 455
f 452 450 455
f 453 451 456
f 456 451 457
f 454 455 458
f 459 454 458
f 456 457 460
f 457 461 460
f 461 459 462
f 459 458 462
f 461 462 460
f 153 176 396
f 407 152 153
f 426 408 407
f 397 81 401
f 420 423 80
f 80 418 420
f 418 80 403
f 414 418 403
f 414 403 406
f 412 427 413
f 427 424 425
f 463 422 424
f 463 464 422
f 464 421 422
f 465 399 400
f 466 417 421
f 466 416 417
f 409 410 416
f 409 154 156
f 409 467 154
f 97 350 98
f 364 345 344
f 383 380 382
f 366 345 364
f 468 366 365
f 469 365 360
f 469 468 365
f 469 360 359
f 470 355 354
f 371 372 471
f 470 354 347
f 347 354 348
f 472 470 347
f 473 347 346
f 474 347 473
f 362 473 346
f 475 36 384
f 473 362 363
f 476 363 361
f 476 361 357
f 356 351 352
f 350 352 349
f 184 477 185
f 176 148 175
f 478 175 150
f 478 150 479
f 478 479 193
f 193 479 198
f 142 141 169
f 169 167 480
f 480 167 481
f 482 480 481
f 482 481 483
f 484 482 483
f 484 483 129
f 174 484 129
f 485 173 172
f 172 121 54
f 486 487 488
f 56 489 54
f 490 491 492
f 493 211 209
f 92 211 215
f 494 189 192
f 494 192 197
f 200 494 197
f 224 115 219
f 200 180 495
f 496 495 180
f 496 180 497
f 181 498 177
f 212 207 210
f 212 210 213
f 194 187 190
f 499 500 501
f 499 501 502
f 24 220 25
f 503 504 505
f 5 506 6
f 507 21 22
f 503 505 508
f 507 22 509
f 510 503 508
f 511 507 509
f 510 508 512
f 513 510 512
f 514 513 512
f 515 516 517
f 518 515 517
f 514 512 519
f 518 517 505
f 504 518 505
f 506 514 519
f 506 519 6
f 520 521 522
f 523 520 522
f 524 523 522
f 521 525 522
f 526 527 528
f 529 530 528
f 525 531 528
f 532 521 520
f 527 525 528
f 530 533 528
f 531 529 528
f 525 534 531
f 522 525 535
f 535 525 527
f 536 535 527
f 521 537 525
f 538 539 540
f 541 542 543
f 539 541 543
f 540 539 543
f 544 545 546
f 546 545 547
f 545 548 547
f 548 549 547
f 550 546 547
f 551 550 547
f 549 552 547
f 547 552 553
f 547 553 554
f 554 553 541
f 555 546 550
f 554 541 539
f 548 556 549

