mtllib material.mtl
usemtl material_upperarm_2
v -0.03789860 0.00004984 0.06175005
v -0.03677356 0.00933915 0.05185008
v -0.03762668 -0.00397915 0.05185008
v -0.00190753 0.03784358 0.06175011
v 0.00402921 0.03767657 0.05185008
v -0.00737721 0.03714174 0.05185008
v -0.03638035 -0.00993836 0.06175017
v -0.03503942 -0.01406186 0.05185014
v -0.01634341 0.03439426 0.06175011
v -0.02074348 0.03192996 0.05185008
v -0.03303915 -0.01845270 0.06174999
v -0.02973783 -0.02339351 0.05185014
v -0.02644658 -0.02692151 0.06174987
v -0.03015393 0.02323126 0.06175017
v -0.03122764 0.02142322 0.05185014
v -0.02101075 -0.03139489 0.05185014
v -0.01590836 -0.03445786 0.06175005
v -0.00886184 -0.03686219 0.05185008
v -0.03603845 0.01136863 0.06174999
v -0.00333404 -0.03757697 0.06175005
v 0.00444502 -0.03750646 0.05185008
v -0.00159729 0.03530621 0.18972249
v -0.00405324 0.03520137 0.19065049
v 0.00608623 0.03486102 0.18973830
v 0.00608623 0.03486102 0.18973830
v 0.01129519 0.03347957 0.18982039
v 0.01799577 0.03040933 0.18971001
v 0.01129519 0.03347957 0.18982039
v 0.01879549 0.03009825 0.19064911
v 0.01799577 0.03040933 0.18971001
v 0.01812082 0.02885979 0.18328460
v 0.01724904 0.02845072 0.18140870
v 0.01139277 0.03119391 0.18124160
v 0.01001662 0.03269350 0.18340920
v 0.00602180 0.03265076 0.18113010
v -0.00001311 0.03333812 0.18214551
v 0.00676840 -0.03344166 0.18343429
v -0.00225341 -0.03394496 0.18338390
v 0.00430405 -0.03291851 0.18124931
v 0.01285582 -0.03050607 0.18120471
v 0.01515012 -0.03042507 0.18330181
v 0.02031689 -0.02627581 0.18130890
v 0.02225267 -0.02569216 0.18323430
v 0.02764278 -0.01846522 0.18130210
v 0.02916812 -0.01763236 0.18328850
v 0.03123968 -0.01108372 0.18119439
v 0.03300786 -0.00843626 0.18336830
v 0.03268992 -0.00562876 0.18120471
v 0.03400886 -0.00139725 0.18338510
v 0.03299742 0.00361460 0.18108089
v 0.03349030 0.00681847 0.18343350
v 0.03099298 0.01185148 0.18122350
v 0.03096067 0.01409155 0.18330690
v 0.02671819 0.01987797 0.18135010
v 0.02732437 0.02031350 0.18327650
v 0.02322190 0.02417743 0.18242431
v 0.01741284 0.02841514 0.07930171
v 0.02177613 0.02706813 0.07603418
v 0.01256793 0.03244906 0.07592701
v 0.01098412 0.03140848 0.07947748
v 0.00423455 0.03295546 0.07954037
v 0.00152779 0.03481251 0.07588553
v -0.00234419 0.03318780 0.07948678
v -0.00010351 -0.03317767 0.07953399
v -0.00237477 -0.03463876 0.07580006
v 0.00420785 -0.03440248 0.07584452
v 0.00787437 -0.03222173 0.07949584
v 0.01082408 -0.03296208 0.07584190
v 0.01430100 -0.02997148 0.07930546
v 0.01748538 -0.02995830 0.07594919
v 0.01983720 -0.02671378 0.07920187
v 0.02214360 -0.02654683 0.07614386
v 0.02399039 -0.02298384 0.07943284
v 0.02848863 -0.01981282 0.07596111
v 0.02864873 -0.01681059 0.07938712
v 0.03133726 -0.01098954 0.07950031
v 0.03272747 -0.01157373 0.07589828
v 0.03320240 -0.00194371 0.07964026
v 0.03476262 -0.00147837 0.07588517
v 0.03376042 0.00814837 0.07587873
v 0.03247642 0.00726485 0.07946103
v 0.03031545 0.01373243 0.07936155
v 0.03129529 0.01492023 0.07598459
v 0.02690303 0.01956808 0.07937866
v 0.02753889 0.02103489 0.07601940
v 0.02192836 0.02504152 0.07946646
v 0.00583810 -0.03493618 0.19065011
v -0.00702143 -0.03462553 0.19064930
v -0.00316518 -0.03516727 0.18972459
v -0.03527635 0.00341487 0.19065011
v -0.03511250 0.00384051 0.18975160
v -0.03524720 -0.00168097 0.18969990
v -0.00405324 0.03520137 0.19065049
v -0.00159729 0.03530621 0.18972249
v -0.00861382 0.03432631 0.18970869
v -0.03452938 -0.00692671 0.19064990
v -0.03424984 -0.00865507 0.18972000
v -0.01416373 0.03233981 0.19065019
v -0.00405324 0.03520137 0.19065049
v -0.00861382 0.03432631 0.18970869
v -0.03137260 -0.01642733 0.19064990
v -0.01514613 0.03193682 0.18971971
v -0.03169596 -0.01545578 0.18972950
v -0.02252650 0.02728855 0.19065060
v -0.02103525 0.02840834 0.18971610
v -0.02879863 -0.02034908 0.18972559
v -0.02607691 0.02388554 0.18972310
v -0.02376067 -0.02604073 0.19064800
v -0.02879863 -0.02034908 0.18972559
v -0.02414172 -0.02574568 0.18972211
v -0.03137260 -0.01642733 0.19064990
v -0.03095316 0.01730185 0.19065011
v -0.02252650 0.02728855 0.19065060
v -0.02607691 0.02388554 0.18972310
v -0.03095316 0.01730185 0.19065011
v -0.02607691 0.02388554 0.18972310
v -0.03109854 0.01685351 0.18973890
v -0.01711058 -0.03079950 0.19064960
v -0.01844716 -0.03003263 0.18974841
v -0.01162010 -0.03332835 0.18971750
v -0.03378832 0.01008880 0.18981931
v -0.00702143 -0.03462553 0.19064930
v -0.01711058 -0.03079950 0.19064960
v -0.01162010 -0.03332835 0.18971750
v -0.03527635 0.00341487 0.19065011
v -0.03095316 0.01730185 0.19065011
v -0.03378832 0.01008880 0.18981931
v -0.03378832 0.01008880 0.18981931
v -0.00702143 -0.03462553 0.19064930
v -0.01162010 -0.03332835 0.18971750
v -0.00316518 -0.03516727 0.18972459
v -0.03759324 -0.00184679 0.18965010
v -0.03702908 0.00482434 0.18707080
v -0.03724581 -0.00233436 0.18694770
v -0.03662616 0.00842196 0.18964770
v 0.00400752 0.03747677 0.18965010
v -0.00251198 0.03736943 0.18717840
v -0.00401217 0.03739303 0.18964531
v -0.03677117 -0.00713843 0.18784229
v -0.01012778 0.03612524 0.18787690
v -0.03448820 -0.01534533 0.18964510
v -0.03527164 -0.01214450 0.18697980
v -0.01347893 0.03517216 0.18964890
v -0.03190732 -0.01943469 0.18715790
v -0.01745551 0.03319811 0.18766519
v -0.02331513 0.02973270 0.18963911
v -0.02735430 -0.02580714 0.18964970
v -0.02808839 -0.02453571 0.18708400
v -0.02380287 -0.02868801 0.18706229
v -0.03229492 0.01946431 0.18964811
v -0.02979928 0.02278953 0.18773530
v -0.01802515 -0.03299462 0.18964981
v -0.01879084 -0.03219461 0.18708231
v -0.01352870 -0.03474456 0.18705830
v -0.00841164 -0.03657037 0.18964989
v -0.00723380 -0.03659641 0.18709029
v -0.03495615 0.01329720 0.18702790
v 0.00102258 -0.03763020 0.18964671
v -0.00020579 -0.03718090 0.18684100
v -0.01026898 0.03547167 0.18626790
v -0.02032780 0.03102308 0.18657181
v -0.02391254 0.02889943 0.18774889
v -0.02741259 0.02479207 0.18643110
v -0.03182369 0.01875478 0.18646909
v -0.03358662 -0.00556564 0.18334121
v -0.03126013 -0.01341176 0.18332240
v -0.00442421 0.03386914 0.18337759
v -0.01090675 0.03235292 0.18342321
v -0.02806496 -0.01912021 0.18330351
v -0.01742315 0.02930432 0.18325110
v -0.02808839 -0.02453571 0.18708400
v -0.02442717 -0.02367568 0.18333329
v -0.02380287 -0.02868801 0.18706229
v -0.01867210 -0.02838808 0.18329009
v -0.02541363 0.02273964 0.18325500
v -0.01879084 -0.03219461 0.18708231
v -0.01105374 -0.03227019 0.18334679
v -0.01352870 -0.03474456 0.18705830
v -0.03012645 0.01585000 0.18330280
v -0.00723380 -0.03659641 0.18709029
v -0.03301107 0.00860965 0.18339381
v -0.03328037 0.00177550 0.18237540
v -0.03249377 -0.00697690 0.18118981
v -0.03324210 -0.00127977 0.07949393
v -0.03073751 -0.01269149 0.07948040
v -0.00760895 0.03239500 0.18130530
v -0.00855726 0.03213918 0.07945758
v -0.02963697 -0.01478737 0.18124470
v -0.02680468 -0.01973092 0.07918912
v -0.01427668 0.03008025 0.07931715
v -0.02627491 -0.02021396 0.18113340
v -0.02339017 -0.02356177 0.07942026
v -0.01611775 0.02906388 0.18123899
v -0.01904916 0.02730375 0.07931858
v -0.01971989 -0.02674013 0.18133441
v -0.02343481 0.02363890 0.07931512
v -0.01792854 -0.02793920 0.07939219
v -0.02087593 0.02589398 0.18137179
v -0.02766489 0.01859426 0.07922863
v -0.01256275 -0.03068262 0.07943367
v -0.01267641 -0.03056252 0.18123040
v -0.02681767 0.01967388 0.18117240
v -0.03061026 0.01311689 0.07932966
v -0.00709409 -0.03235942 0.07954496
v -0.00571638 -0.03262138 0.18112640
v -0.03170663 0.01006716 0.18117709
v -0.03265810 0.00594491 0.07952696
v -0.04300302 -0.01155287 0.06561231
v -0.04050838 -0.01853573 0.06560683
v -0.03192198 -0.01346135 0.07595610
v -0.01146811 0.04329663 0.06531655
v -0.01913195 0.04035174 0.06548368
v -0.00945723 0.03352689 0.07586991
v -0.04437202 -0.00416261 0.06563210
v -0.03457987 -0.00423157 0.07582664
v -0.00147742 0.04455554 0.06574720
v -0.00531959 -0.04425138 0.06562417
v -0.00988829 -0.03328752 0.07586812
v -0.04432785 0.00526863 0.06556129
v -0.03410422 0.00672048 0.07590448
v -0.01372778 -0.04225730 0.06570452
v -0.02078384 -0.03957706 0.06528902
v -0.01757752 -0.02984756 0.07599914
v -0.04222863 0.01490134 0.06527984
v -0.03159117 0.01421749 0.07600367
v -0.02684509 -0.03551453 0.06558263
v -0.02348959 -0.02545046 0.07594180
v -0.03849613 0.02256703 0.06551253
v -0.02777212 0.02085101 0.07597017
v -0.03174555 -0.03128403 0.06544560
v -0.03456461 0.02823615 0.06555449
v -0.03687947 -0.02515947 0.06538701
v -0.02822852 -0.02008694 0.07600879
v -0.02083700 0.02782630 0.07598280
v -0.02701532 0.03516173 0.06605100
v -0.03687947 -0.02515947 0.06538701
v -0.04033786 -0.02026158 0.06265509
v -0.03409940 -0.02947521 0.06265753
v -0.03174555 -0.03128403 0.06544560
v -0.02825117 -0.03504973 0.06265670
v -0.02684509 -0.03551453 0.06558263
v -0.02078384 -0.03957706 0.06528902
v -0.02155983 -0.03956949 0.06265735
v -0.01257979 -0.04326224 0.06265664
v -0.01372778 -0.04225730 0.06570452
v -0.00161642 -0.04508113 0.06265473
v 0.00298899 -0.04446595 0.06553590
v -0.01146811 0.04329663 0.06531655
v -0.00147742 0.04455554 0.06574720
v -0.00339061 0.04502379 0.06265753
v -0.01270490 0.04331737 0.06265473
v -0.02006340 0.04039484 0.06265807
v -0.02700489 0.03617846 0.06265735
v -0.02761059 0.03547573 0.06454586
v -0.03298240 0.03074717 0.06265753
v -0.03887838 0.02305138 0.06265771
v -0.03849613 0.02256703 0.06551253
v -0.04222863 0.01490134 0.06527984
v -0.04331213 0.01262986 0.06265670
v -0.04432785 0.00526863 0.06556129
v -0.04481405 0.00469530 0.06265664
v -0.04497939 -0.00316715 0.06265538
v -0.04437202 -0.00416261 0.06563210
v -0.04366034 -0.01109337 0.06265830
v -0.04300302 -0.01155287 0.06561231
v -0.04050838 -0.01853573 0.06560683
v -0.00163120 -0.04258382 0.06259697
v -0.00946623 -0.04160892 0.06260800
v -0.00478876 -0.04245275 0.06175005
v -0.04264277 0.00163436 0.06260961
v -0.04213804 0.00680554 0.06175005
v -0.04252493 -0.00428534 0.06175005
v -0.04264277 0.00163436 0.06260961
v -0.04165875 0.00951636 0.06260806
v -0.04213804 0.00680554 0.06175005
v -0.00160104 0.04268646 0.06259757
v 0.00000000 0.04270923 0.06175011
v -0.01062464 0.04145359 0.06175005
v -0.04240185 -0.00473928 0.06260824
v -0.00794160 0.04197031 0.06259781
v -0.04121428 -0.01100546 0.06260806
v -0.04032725 -0.01376205 0.06175005
v -0.01401197 0.04035192 0.06259870
v -0.01401197 0.04035192 0.06259870
v -0.01062464 0.04145359 0.06175005
v -0.02099138 0.03720659 0.06174993
v -0.03847068 -0.01851946 0.06260198
v -0.03643286 -0.02230674 0.06175023
v -0.02132451 0.03706753 0.06260251
v -0.03107053 0.02953535 0.06175005
v -0.03442615 -0.02516525 0.06260418
v -0.03847068 -0.01851946 0.06260198
v -0.03643286 -0.02230674 0.06175023
v -0.02784532 0.03237766 0.06259924
v -0.03442615 -0.02516525 0.06260418
v -0.03643286 -0.02230674 0.06175023
v -0.02708142 -0.03313708 0.06175005
v -0.03016471 -0.03013169 0.06260818
v -0.03233963 0.02788442 0.06260287
v -0.02784532 0.03237766 0.06259924
v -0.03107053 0.02953535 0.06175005
v -0.02396506 -0.03531503 0.06260234
v -0.03016471 -0.03013169 0.06260818
v -0.02708142 -0.03313708 0.06175005
v -0.03613770 0.02274614 0.06260043
v -0.03899532 0.01755774 0.06175011
v -0.02396506 -0.03531503 0.06260234
v -0.02708142 -0.03313708 0.06175005
v -0.01596271 -0.03952836 0.06175023
v -0.03911370 0.01709282 0.06259655
v -0.03613770 0.02274614 0.06260043
v -0.03899532 0.01755774 0.06175011
v -0.01704216 -0.03906416 0.06259733
v -0.00946623 -0.04160892 0.06260800
v -0.00478876 -0.04245275 0.06175005
v -0.00639087 0.03066563 0.19905010
v 0.00369781 0.03110623 0.19065011
v -0.00851488 0.03023618 0.19065011
v -0.03126055 -0.00092741 0.19905010
v -0.03120505 -0.00029153 0.19065011
v -0.02970939 -0.00972378 0.19065011
v 0.00446582 0.03100514 0.19905010
v -0.02943998 -0.01030236 0.19905010
v -0.02428901 -0.01979362 0.19905010
v -0.02554965 -0.01784026 0.19065049
v -0.01647639 0.02663362 0.19904970
v -0.01934552 0.02462458 0.19065011
v -0.01726830 -0.02626216 0.19065011
v -0.02368497 0.02036947 0.19905010
v -0.02575773 0.01766848 0.19065019
v -0.01445353 -0.02771532 0.19905020
v -0.02932929 0.01116287 0.19905010
v -0.02994245 0.00908452 0.19065000
v -0.00542241 -0.03070175 0.19065011
v -0.00232321 -0.03122836 0.19904999
v 0.00271839 -0.03102183 0.19065011
v 0.00446582 0.03100514 0.19905010
v -0.01647639 0.02663362 0.19904970
v -0.02932929 0.01116287 0.19905010
v -0.02368497 0.02036947 0.19905010
v 0.02859729 -0.01283103 0.19905031
v 0.01111292 -0.02927958 0.19905010
v 0.02141350 -0.02274572 0.19905010
v 0.02592623 0.01770055 0.19904999
v 0.01603722 0.02700388 0.19905031
v 0.03122234 -0.00131339 0.19905010
v 0.03023016 0.00779665 0.19905010
v -0.03126055 -0.00092741 0.19905010
v -0.02943998 -0.01030236 0.19905010
v -0.00639087 0.03066563 0.19905010
v -0.02428901 -0.01979362 0.19905010
v -0.00232321 -0.03122836 0.19904999
v -0.01445353 -0.02771532 0.19905020
v 0.03122234 -0.00131339 0.19905010
v 0.03032732 -0.00807649 0.19065011
v 0.03081369 0.00590110 0.19065011
v 0.03023016 0.00779665 0.19905010
v 0.01111292 -0.02927958 0.19905010
v 0.01161003 -0.02899128 0.19065000
v 0.02592623 0.01770055 0.19904999
v 0.02685368 0.01594829 0.19065000
v 0.01897454 -0.02467846 0.19065011
v 0.02084231 0.02336871 0.19065070
v 0.02141350 -0.02274572 0.19905010
v 0.02479386 -0.01897501 0.19064979
v 0.01603722 0.02700388 0.19905031
v 0.01287841 0.02847552 0.19065030
v 0.02859729 -0.01283103 0.19905031
v 0.03733414 -0.02094864 0.06174999
v 0.02931857 -0.03096091 0.06175011
v 0.03257119 -0.01938444 0.06175005
v 0.02375721 -0.02940487 0.06175017
v 0.02168285 -0.03670710 0.06175011
v 0.01579868 -0.03422099 0.06175005
v 0.01000028 -0.04160082 0.06174999
v 0.03782290 -0.00395989 0.06175005
v 0.04242497 -0.00585771 0.06175005
v 0.00696880 -0.03714472 0.06175005
v 0.04213804 0.00680554 0.06175005
v -0.00478876 -0.04245275 0.06175005
v -0.00333404 -0.03757697 0.06175005
v 0.03630429 0.01072669 0.06175005
v 0.03899532 0.01755774 0.06175011
v -0.01596271 -0.03952836 0.06175023
v -0.01590836 -0.03445786 0.06175005
v 0.03201186 0.02010285 0.06175035
v -0.02708142 -0.03313708 0.06175005
v 0.03311443 0.02696943 0.06174969
v 0.02318143 0.03020370 0.06175005
v -0.02644658 -0.02692151 0.06174987
v 0.02372980 0.03571057 0.06174999
v -0.03643286 -0.02230674 0.06175023
v -0.03303915 -0.01845270 0.06174999
v 0.00986546 0.03658294 0.06175011
v 0.01062452 0.04145365 0.06175005
v -0.04032725 -0.01376205 0.06175005
v -0.03638035 -0.00993836 0.06175017
v -0.03789860 0.00004984 0.06175005
v -0.04252493 -0.00428534 0.06175005
v -0.00190753 0.03784358 0.06175011
v 0.00000000 0.04270923 0.06175011
v -0.04213804 0.00680554 0.06175005
v -0.01062464 0.04145359 0.06175005
v -0.01634341 0.03439426 0.06175011
v -0.03603845 0.01136863 0.06174999
v -0.03899532 0.01755774 0.06175011
v -0.02099138 0.03720659 0.06174993
v -0.03015393 0.02323126 0.06175017
v -0.03107053 0.02953535 0.06175005
v 0.01706451 0.03916209 0.06261050
v 0.02409964 0.03532445 0.06260842
v 0.02372980 0.03571057 0.06174999
v 0.04164052 -0.00949633 0.06260806
v 0.03910630 -0.01702487 0.06260842
v 0.03733414 -0.02094864 0.06174999
v 0.01706451 0.03916209 0.06261050
v 0.02372980 0.03571057 0.06174999
v 0.01062452 0.04145365 0.06175005
v 0.01096844 0.04128485 0.06259942
v 0.01706451 0.03916209 0.06261050
v 0.01062452 0.04145365 0.06175005
v 0.00423545 -0.04241836 0.06259888
v -0.00163120 -0.04258382 0.06259697
v -0.00478876 -0.04245275 0.06175005
v 0.01000028 -0.04160082 0.06174999
v 0.04252660 -0.00308353 0.06260836
v 0.04164052 -0.00949633 0.06260806
v 0.04242497 -0.00585771 0.06175005
v 0.00462425 0.04246789 0.06259745
v 0.04260498 0.00320184 0.06260895
v 0.01255267 -0.04078519 0.06260806
v 0.00423545 -0.04241836 0.06259888
v 0.01000028 -0.04160082 0.06174999
v 0.04213804 0.00680554 0.06175005
v 0.04083502 0.01260274 0.06260818
v 0.04260498 0.00320184 0.06260895
v 0.04213804 0.00680554 0.06175005
v 0.01992839 -0.03768205 0.06260824
v 0.01000028 -0.04160082 0.06174999
v 0.02168285 -0.03670710 0.06175011
v 0.01255267 -0.04078519 0.06260806
v 0.04083502 0.01260274 0.06260818
v 0.04213804 0.00680554 0.06175005
v 0.03899532 0.01755774 0.06175011
v 0.02660381 -0.03337609 0.06260824
v 0.03773224 0.01997768 0.06260800
v 0.04083502 0.01260274 0.06260818
v 0.03899532 0.01755774 0.06175011
v 0.02931857 -0.03096091 0.06175011
v 0.03342807 0.02664649 0.06260275
v 0.03773224 0.01997768 0.06260800
v 0.03899532 0.01755774 0.06175011
v 0.03311443 0.02696943 0.06174969
v 0.03169804 -0.02849030 0.06260824
v 0.03531450 -0.02398604 0.06260836
v 0.03733414 -0.02094864 0.06174999
v 0.02907705 0.03124642 0.06261229
v 0.03910630 -0.01702487 0.06260842
v 0.03531450 -0.02398604 0.06260836
v 0.03733414 -0.02094864 0.06174999
v 0.04242497 -0.00585771 0.06175005
v -0.03233963 0.02788442 0.06260287
v -0.03613770 0.02274614 0.06260043
v -0.03298240 0.03074717 0.06265753
v -0.02784532 0.03237766 0.06259924
v -0.03233963 0.02788442 0.06260287
v -0.02700489 0.03617846 0.06265735
v -0.03298240 0.03074717 0.06265753
v 0.03169804 -0.02849030 0.06260824
v 0.03189498 -0.03184396 0.06265723
v 0.02660381 -0.03337609 0.06260824
v 0.02311247 -0.03875428 0.06265592
v 0.02660381 -0.03337609 0.06260824
v 0.03703463 -0.02561300 0.06265705
v 0.03189498 -0.03184396 0.06265723
v 0.03169804 -0.02849030 0.06260824
v 0.03531450 -0.02398604 0.06260836
v 0.01992839 -0.03768205 0.06260824
v 0.04104036 -0.01865828 0.06265699
v 0.03910630 -0.01702487 0.06260842
v 0.01255267 -0.04078519 0.06260806
v 0.01021444 -0.04391121 0.06265467
v 0.04164052 -0.00949633 0.06260806
v 0.04447966 -0.00781548 0.06265693
v 0.00423545 -0.04241836 0.06259888
v 0.04164052 -0.00949633 0.06260806
v 0.04252660 -0.00308353 0.06260836
v -0.00161642 -0.04508113 0.06265473
v 0.04260498 0.00320184 0.06260895
v 0.04489064 0.00505203 0.06265735
v -0.00163120 -0.04258382 0.06259697
v -0.00946623 -0.04160892 0.06260800
v -0.01257979 -0.04326224 0.06265664
v 0.04083502 0.01260274 0.06260818
v 0.04083502 0.01260274 0.06260818
v 0.04222846 0.01588201 0.06265574
v -0.01257979 -0.04326224 0.06265664
v -0.01704216 -0.03906416 0.06259733
v -0.02155983 -0.03956949 0.06265735
v 0.03773224 0.01997768 0.06260800
v -0.02396506 -0.03531503 0.06260234
v 0.03797131 0.02439570 0.06265717
v 0.03342807 0.02664649 0.06260275
v -0.02825117 -0.03504973 0.06265670
v 0.03298258 0.03074645 0.06265747
v 0.03342807 0.02664649 0.06260275
v 0.02907705 0.03124642 0.06261229
v -0.03016471 -0.03013169 0.06260818
v -0.03016471 -0.03013169 0.06260818
v -0.02825117 -0.03504973 0.06265670
v -0.03409940 -0.02947521 0.06265753
v 0.02700442 0.03617823 0.06265729
v 0.02409964 0.03532445 0.06260842
v -0.03016471 -0.03013169 0.06260818
v -0.03409940 -0.02947521 0.06265753
v -0.03442615 -0.02516525 0.06260418
v -0.03442615 -0.02516525 0.06260418
v -0.03409940 -0.02947521 0.06265753
v -0.04033786 -0.02026158 0.06265509
v 0.02700442 0.03617823 0.06265729
v 0.02409964 0.03532445 0.06260842
v 0.02010446 0.04037272 0.06265681
v 0.01706451 0.03916209 0.06261050
v -0.03847068 -0.01851946 0.06260198
v 0.01258045 0.04336190 0.06265670
v -0.04121428 -0.01100546 0.06260806
v -0.04366034 -0.01109337 0.06265830
v 0.01096844 0.04128485 0.06259942
v -0.04121428 -0.01100546 0.06260806
v -0.04366034 -0.01109337 0.06265830
v -0.04240185 -0.00473928 0.06260824
v -0.04497939 -0.00316715 0.06265538
v 0.00464654 0.04486382 0.06265670
v 0.01096844 0.04128485 0.06259942
v 0.00462425 0.04246789 0.06259745
v -0.04264277 0.00163436 0.06260961
v -0.00339061 0.04502379 0.06265753
v -0.04481405 0.00469530 0.06265664
v -0.00160104 0.04268646 0.06259757
v -0.04165875 0.00951636 0.06260806
v -0.00160104 0.04268646 0.06259757
v -0.00794160 0.04197031 0.06259781
v -0.04331213 0.01262986 0.06265670
v -0.00794160 0.04197031 0.06259781
v -0.01270490 0.04331737 0.06265473
v -0.01401197 0.04035192 0.06259870
v -0.03911370 0.01709282 0.06259655
v -0.04331213 0.01262986 0.06265670
v -0.02132451 0.03706753 0.06260251
v -0.03887838 0.02305138 0.06265771
v -0.02006340 0.04039484 0.06265807
v 0.01960438 -0.04046535 0.06436842
v 0.01021444 -0.04391121 0.06265467
v 0.02311247 -0.03875428 0.06265592
v 0.03857725 0.02237147 0.06559062
v 0.04208153 0.01506650 0.06550306
v 0.03797131 0.02439570 0.06265717
v 0.03375381 0.02927315 0.06541228
v 0.03298258 0.03074645 0.06265747
v 0.02892762 0.03407669 0.06541711
v 0.02700442 0.03617823 0.06265729
v 0.02255672 0.03848558 0.06560057
v 0.02010446 0.04037272 0.06265681
v 0.01458179 0.04230576 0.06541079
v 0.01258045 0.04336190 0.06265670
v 0.00678813 0.04412579 0.06555211
v 0.00464654 0.04486382 0.06265670
v 0.01004505 -0.04342120 0.06550604
v 0.01884889 -0.04001158 0.06602084
v 0.02820307 -0.03451550 0.06557226
v 0.03189498 -0.03184396 0.06265723
v 0.03377413 -0.02913659 0.06540840
v 0.03703463 -0.02561300 0.06265705
v 0.03784579 -0.02352344 0.06548374
v 0.04104036 -0.01865828 0.06265699
v 0.04137480 -0.01672172 0.06543886
v 0.04447966 -0.00781548 0.06265693
v 0.04344451 -0.00994086 0.06557089
v 0.04460233 -0.00165385 0.06556379
v 0.04489064 0.00505203 0.06265735
v 0.04412966 0.00635850 0.06556487
v 0.04222846 0.01588201 0.06265574
v 0.04412966 0.00635850 0.06556487
v 0.04208153 0.01506650 0.06550306
v 0.00678813 0.04412579 0.06555211
v 0.01458179 0.04230576 0.06541079
v 0.02255672 0.03848558 0.06560057
v 0.04137480 -0.01672172 0.06543886
v 0.03784579 -0.02352344 0.06548374
v 0.02892762 0.03407669 0.06541711
v 0.03377413 -0.02913659 0.06540840
v 0.03375381 0.02927315 0.06541228
v 0.03857725 0.02237147 0.06559062
v 0.03639650 0.00824433 0.18703130
v 0.03730410 0.00138199 0.18704160
v 0.03397220 0.01532739 0.18684870
v 0.00884104 -0.03577148 0.18638460
v 0.02809125 0.02402228 0.18635461
v 0.01412904 -0.03453147 0.18700770
v 0.02245914 -0.02976655 0.18704990
v 0.02328658 0.02920657 0.18704250
v 0.02729237 -0.02523195 0.18687610
v 0.01698821 0.03334218 0.18716531
v 0.03140956 -0.02015113 0.18703990
v 0.01065635 0.03583443 0.18707280
v 0.03397870 -0.01430696 0.18638781
v 0.00466418 0.03708702 0.18704450
v -0.00001311 0.03333812 0.18214551
v 0.03560703 -0.01151543 0.18726490
v 0.03702896 -0.00472516 0.18707059
v 0.02734863 0.02587401 0.18960670
v 0.03039169 0.02197343 0.18762200
v 0.01773035 0.03344792 0.18964510
v 0.00573617 -0.03703129 0.18793461
v 0.01840305 -0.03257751 0.18777139
v 0.02729237 -0.02523195 0.18687610
v 0.02826350 -0.02481615 0.18964390
v 0.03639650 0.00824433 0.18703130
v 0.03775554 0.00115496 0.18964380
v 0.03730410 0.00138199 0.18704160
v 0.03447312 0.01539880 0.18964550
v 0.03702896 -0.00472516 0.18707059
v 0.01625680 -0.03411233 0.18964981
v 0.03502357 -0.01397526 0.18964989
v 0.01065635 0.03583443 0.18707280
v 0.00466418 0.03708702 0.18704450
v 0.02734863 0.02587401 0.18960670
v 0.01773035 0.03344792 0.18964510
v 0.02360618 0.02633517 0.18974420
v 0.02826011 0.02122300 0.18972430
v 0.03447312 0.01539880 0.18964550
v 0.01799577 0.03040933 0.18971001
v 0.03250396 0.01397854 0.18971691
v 0.00608623 0.03486102 0.18973830
v 0.03455370 0.00724798 0.18970400
v 0.00400752 0.03747677 0.18965010
v 0.03775554 0.00115496 0.18964380
v 0.03535795 -0.00000822 0.18970840
v -0.00159729 0.03530621 0.18972249
v -0.00401217 0.03739303 0.18964531
v -0.00861382 0.03432631 0.18970869
v 0.03502357 -0.01397526 0.18964989
v -0.00401217 0.03739303 0.18964531
v -0.01347893 0.03517216 0.18964890
v 0.03427076 -0.00865328 0.18974590
v -0.01514613 0.03193682 0.18971971
v 0.03105562 -0.01679861 0.18972690
v -0.02331513 0.02973270 0.18963911
v 0.02621454 -0.02366048 0.18972380
v -0.02103525 0.02840834 0.18971610
v 0.02826350 -0.02481615 0.18964390
v -0.02607691 0.02388554 0.18972310
v -0.03229492 0.01946431 0.18964811
v 0.01928395 -0.02959156 0.18973701
v -0.03109854 0.01685351 0.18973890
v 0.01625680 -0.03411233 0.18964981
v 0.01140367 -0.03340190 0.18970969
v -0.03662616 0.00842196 0.18964770
v -0.03511250 0.00384051 0.18975160
v 0.00436968 -0.03496944 0.18971661
v 0.00102258 -0.03763020 0.18964671
v -0.03524720 -0.00168097 0.18969990
v -0.03759324 -0.00184679 0.18965010
v -0.00316518 -0.03516727 0.18972459
v -0.00841164 -0.03657037 0.18964989
v -0.01162010 -0.03332835 0.18971750
v -0.03448820 -0.01534533 0.18964510
v -0.03424984 -0.00865507 0.18972000
v -0.01802515 -0.03299462 0.18964981
v -0.03169596 -0.01545578 0.18972950
v -0.02879863 -0.02034908 0.18972559
v -0.01844716 -0.03003263 0.18974841
v -0.02414172 -0.02574568 0.18972211
v -0.02735430 -0.02580714 0.18964970
v 0.03417944 0.00942784 0.19064930
v 0.03535795 -0.00000822 0.18970840
v 0.03455370 0.00724798 0.18970400
v 0.03516501 -0.00236028 0.19064561
v 0.00436968 -0.03496944 0.18971661
v 0.03250396 0.01397854 0.18971691
v 0.01140367 -0.03340190 0.18970969
v 0.02852404 0.02092456 0.19065040
v 0.03250396 0.01397854 0.18971691
v 0.02826011 0.02122300 0.18972430
v 0.02852404 0.02092456 0.19065040
v 0.03417944 0.00942784 0.19064930
v 0.03250396 0.01397854 0.18971691
v 0.01721537 -0.03070783 0.19064561
v 0.00583810 -0.03493618 0.19065011
v 0.01140367 -0.03340190 0.18970969
v 0.01721537 -0.03070783 0.19064561
v 0.01140367 -0.03340190 0.18970969
v 0.01928395 -0.02959156 0.18973701
v 0.02360618 0.02633517 0.18974420
v 0.02636802 -0.02362453 0.19065011
v 0.01721537 -0.03070783 0.19064561
v 0.01928395 -0.02959156 0.18973701
v 0.02621454 -0.02366048 0.18972380
v 0.01879549 0.03009825 0.19064911
v 0.02852404 0.02092456 0.19065040
v 0.02360618 0.02633517 0.18974420
v 0.02360618 0.02633517 0.18974420
v 0.03105562 -0.01679861 0.18972690
v 0.03312045 -0.01225787 0.19064760
v 0.02636802 -0.02362453 0.19065011
v 0.03105562 -0.01679861 0.18972690
v 0.00684762 0.03472667 0.19065011
v 0.01879549 0.03009825 0.19064911
v 0.01129519 0.03347957 0.18982039
v 0.03312045 -0.01225787 0.19064760
v 0.03105562 -0.01679861 0.18972690
v 0.03427076 -0.00865328 0.18974590
v 0.00684762 0.03472667 0.19065011
v 0.01129519 0.03347957 0.18982039
v 0.03516501 -0.00236028 0.19064561
v 0.03427076 -0.00865328 0.18974590
v 0.03535795 -0.00000822 0.18970840
v 0.03516501 -0.00236028 0.19064561
v 0.03312045 -0.01225787 0.19064760
v 0.03427076 -0.00865328 0.18974590
v 0.02852404 0.02092456 0.19065040
v 0.01879549 0.03009825 0.19064911
v 0.02084231 0.02336871 0.19065070
v 0.02685368 0.01594829 0.19065000
v 0.01287841 0.02847552 0.19065030
v 0.03417944 0.00942784 0.19064930
v 0.00684762 0.03472667 0.19065011
v 0.03081369 0.00590110 0.19065011
v 0.00369781 0.03110623 0.19065011
v -0.00405324 0.03520137 0.19065049
v 0.03516501 -0.00236028 0.19064561
v -0.00851488 0.03023618 0.19065011
v 0.03032732 -0.00807649 0.19065011
v 0.03312045 -0.01225787 0.19064760
v -0.01416373 0.03233981 0.19065019
v -0.01934552 0.02462458 0.19065011
v 0.02479386 -0.01897501 0.19064979
v 0.02636802 -0.02362453 0.19065011
v -0.02252650 0.02728855 0.19065060
v -0.02575773 0.01766848 0.19065019
v 0.01897454 -0.02467846 0.19065011
v -0.03095316 0.01730185 0.19065011
v 0.01721537 -0.03070783 0.19064561
v 0.01161003 -0.02899128 0.19065000
v -0.02994245 0.00908452 0.19065000
v 0.00583810 -0.03493618 0.19065011
v 0.00271839 -0.03102183 0.19065011
v -0.03527635 0.00341487 0.19065011
v -0.03120505 -0.00029153 0.19065011
v -0.00542241 -0.03070175 0.19065011
v -0.00702143 -0.03462553 0.19064930
v -0.03452938 -0.00692671 0.19064990
v -0.02970939 -0.00972378 0.19065011
v -0.01726830 -0.02626216 0.19065011
v -0.03137260 -0.01642733 0.19064990
v -0.01711058 -0.03079950 0.19064960
v -0.02554965 -0.01784026 0.19065049
v -0.02376067 -0.02604073 0.19064800
v -0.01608085 0.03049248 0.07642483
v -0.00945723 0.03352689 0.07586991
v -0.02083700 0.02782630 0.07598280
v -0.01608085 0.03049248 0.07642483
v -0.03239363 -0.00816768 0.07886850
v -0.03109854 0.01685351 0.18973890
v -0.03511250 0.00384051 0.18975160
v -0.03378832 0.01008880 0.18981931
v 0.00986546 0.03658294 0.06175011
v 0.00696880 -0.03714472 0.06175005
v 0.03782290 -0.00395989 0.06175005
v 0.03779357 -0.00185686 0.05185008
v 0.03620821 0.01134353 0.05185008
v 0.03630429 0.01072669 0.06175005
v 0.01817864 -0.03335934 0.05185008
v 0.01579868 -0.03422099 0.06175005
v 0.03201186 0.02010285 0.06175035
v 0.03077661 0.02195131 0.05185008
v 0.02375721 -0.02940487 0.06175017
v 0.02973783 -0.02339351 0.05185008
v 0.02318143 0.03020370 0.06175005
v 0.02265477 0.03046923 0.05185008
v 0.03257119 -0.01938444 0.06175005
v 0.03548079 -0.01303982 0.05185008
v 0.01306259 0.03545427 0.05185008
v -0.03762668 -0.00397915 0.05185008
v -0.03677356 0.00933915 0.05185008
v -0.03122764 0.02142322 0.05185014
v -0.00737721 0.03714174 0.05185008
v -0.03503942 -0.01406186 0.05185014
v -0.02074348 0.03192996 0.05185008
v 0.03548079 -0.01303982 0.05185008
v 0.00444502 -0.03750646 0.05185008
v 0.02265477 0.03046923 0.05185008
v 0.03620821 0.01134353 0.05185008
v 0.03077661 0.02195131 0.05185008
v 0.02973783 -0.02339351 0.05185008
v 0.01817864 -0.03335934 0.05185008
v -0.02101075 -0.03139489 0.05185014
v -0.02973783 -0.02339351 0.05185014
v 0.01306259 0.03545427 0.05185008
v 0.00402921 0.03767657 0.05185008
v 0.03779357 -0.00185686 0.05185008
v -0.00886184 -0.03686219 0.05185008
f 1 2 3
f 4 5 6
f 7 3 8
f 7 1 3
f 9 4 6
f 9 6 10
f 11 7 8
f 11 8 12
f 13 11 12
f 14 9 10
f 14 10 15
f 13 12 16
f 17 13 16
f 17 16 18
f 14 15 2
f 19 14 2
f 20 17 18
f 1 19 2
f 20 18 21
f 22 23 24
f 25 26 27
f 28 29 30
f 31 32 33
f 34 31 33
f 34 33 35
f 36 34 35
f 37 38 39
f 37 39 40
f 41 37 40
f 41 40 42
f 43 41 42
f 43 42 44
f 45 43 44
f 45 44 46
f 47 45 46
f 47 46 48
f 49 47 48
f 49 48 50
f 51 49 50
f 51 50 52
f 53 51 52
f 53 52 54
f 55 53 54
f 56 55 54
f 31 56 32
f 57 58 59
f 60 57 59
f 60 59 61
f 61 59 62
f 63 61 62
f 64 65 66
f 64 66 67
f 67 66 68
f 67 68 69
f 69 68 70
f 71 69 72
f 69 70 72
f 73 71 72
f 73 72 74
f 75 73 74
f 76 75 74
f 76 74 77
f 76 77 78
f 78 77 79
f 78 79 80
f 81 78 80
f 81 80 82
f 82 80 83
f 84 82 83
f 84 83 85
f 86 84 85
f 86 85 58
f 57 86 58
f 87 88 89
f 90 91 92
f 93 94 95
f 96 92 97
f 96 90 92
f 98 99 100
f 101 96 97
f 98 100 102
f 101 97 103
f 104 102 105
f 104 98 102
f 101 103 106
f 104 105 107
f 108 109 110
f 108 111 109
f 112 113 114
f 115 116 117
f 118 108 119
f 118 119 120
f 115 117 121
f 122 123 124
f 125 126 127
f 90 128 91
f 129 130 131
f 132 133 134
f 132 135 133
f 136 137 138
f 132 134 139
f 138 137 140
f 141 139 142
f 141 132 139
f 143 138 140
f 141 142 144
f 143 145 146
f 147 144 148
f 147 141 144
f 147 148 149
f 150 146 151
f 152 147 149
f 152 149 153
f 152 153 154
f 155 152 154
f 155 154 156
f 135 150 157
f 155 156 158
f 156 159 158
f 140 137 160
f 145 140 160
f 145 160 161
f 145 143 140
f 145 162 146
f 162 145 161
f 162 161 163
f 151 162 163
f 151 146 162
f 151 163 164
f 157 150 151
f 157 151 164
f 133 135 157
f 139 134 142
f 142 134 165
f 142 165 166
f 160 137 167
f 160 167 168
f 144 142 166
f 169 144 166
f 170 160 168
f 171 144 169
f 161 160 170
f 172 171 169
f 173 171 172
f 173 172 174
f 163 170 175
f 163 161 170
f 176 173 174
f 176 174 177
f 178 176 177
f 164 163 175
f 179 164 175
f 180 178 177
f 180 177 38
f 157 164 179
f 159 180 38
f 157 179 181
f 133 157 181
f 133 181 182
f 134 133 182
f 134 182 165
f 183 182 184
f 183 184 185
f 186 63 187
f 186 36 63
f 188 185 189
f 188 183 185
f 186 187 190
f 191 189 192
f 191 188 189
f 193 190 194
f 193 186 190
f 195 191 192
f 193 194 196
f 195 192 197
f 198 193 196
f 198 196 199
f 195 197 200
f 201 195 200
f 202 198 199
f 202 199 203
f 201 200 204
f 205 201 204
f 205 204 64
f 206 202 203
f 39 205 64
f 206 203 207
f 182 207 184
f 182 206 207
f 208 209 210
f 211 212 213
f 214 208 215
f 216 213 62
f 216 211 213
f 217 65 218
f 219 215 220
f 219 214 215
f 221 217 218
f 222 218 223
f 224 219 220
f 222 221 218
f 224 220 225
f 226 223 227
f 228 224 225
f 226 222 223
f 228 225 229
f 230 226 227
f 231 228 229
f 232 227 233
f 231 229 234
f 232 230 227
f 235 231 234
f 209 232 233
f 209 233 210
f 212 235 234
f 208 210 215
f 212 234 213
f 236 237 238
f 239 236 238
f 239 238 240
f 241 239 240
f 242 240 243
f 242 241 240
f 242 243 244
f 245 242 244
f 217 245 244
f 217 244 246
f 217 246 247
f 248 249 250
f 248 250 251
f 248 251 252
f 212 248 252
f 212 252 253
f 254 212 253
f 235 212 254
f 254 253 255
f 231 254 255
f 235 254 231
f 231 255 256
f 257 231 256
f 258 257 256
f 258 256 259
f 260 259 261
f 260 258 259
f 260 261 262
f 263 260 262
f 263 262 264
f 265 263 264
f 266 265 264
f 266 264 237
f 236 266 237
f 267 268 269
f 270 271 272
f 273 274 275
f 276 277 278
f 279 270 272
f 280 276 278
f 281 272 282
f 281 279 272
f 283 280 278
f 284 285 286
f 287 282 288
f 287 281 282
f 289 284 286
f 289 286 290
f 291 292 293
f 294 289 290
f 295 296 297
f 298 295 297
f 299 300 301
f 302 303 304
f 305 301 306
f 305 299 301
f 307 308 309
f 310 311 312
f 313 307 309
f 314 309 315
f 274 312 275
f 314 313 309
f 274 310 312
f 316 317 318
f 319 320 321
f 316 322 317
f 323 319 321
f 324 321 325
f 324 323 321
f 326 316 318
f 326 318 327
f 324 325 328
f 329 326 327
f 329 327 330
f 331 324 328
f 332 329 330
f 332 330 333
f 331 328 334
f 335 331 334
f 335 334 336
f 319 333 320
f 319 332 333
f 337 338 339
f 338 340 339
f 341 337 342
f 343 341 342
f 342 337 339
f 344 345 337
f 344 337 346
f 347 344 346
f 339 348 349
f 337 350 338
f 339 349 351
f 346 337 341
f 342 339 351
f 352 342 351
f 352 351 353
f 354 355 356
f 357 354 356
f 358 336 359
f 358 335 336
f 360 356 361
f 360 357 356
f 358 359 362
f 360 361 363
f 364 358 362
f 364 362 365
f 366 360 363
f 366 363 367
f 368 364 365
f 368 365 355
f 322 366 367
f 322 367 317
f 354 368 355
f 369 370 371
f 370 372 371
f 370 373 372
f 372 373 374
f 373 375 374
f 369 371 376
f 377 369 376
f 374 375 378
f 379 377 376
f 375 380 381
f 378 375 381
f 379 376 382
f 383 379 382
f 380 384 385
f 381 380 385
f 383 382 386
f 385 384 387
f 383 386 388
f 388 386 389
f 385 387 390
f 388 389 391
f 390 387 392
f 390 392 393
f 391 389 394
f 391 394 395
f 393 392 396
f 393 396 397
f 398 397 399
f 397 396 399
f 394 400 395
f 395 400 401
f 398 399 402
f 401 400 403
f 400 404 403
f 405 398 402
f 405 402 406
f 403 404 407
f 408 405 406
f 408 406 409
f 407 404 409
f 404 408 409
f 410 411 412
f 413 414 415
f 416 417 418
f 419 420 421
f 422 423 424
f 422 424 425
f 426 427 428
f 429 419 421
f 430 426 428
f 429 421 277
f 431 432 433
f 430 428 434
f 276 429 277
f 435 436 437
f 438 439 440
f 438 441 439
f 442 443 444
f 445 438 440
f 446 447 448
f 445 440 449
f 450 451 452
f 450 452 453
f 454 445 449
f 455 449 456
f 455 454 449
f 457 450 453
f 457 453 412
f 411 457 412
f 458 459 460
f 413 415 461
f 462 463 464
f 465 466 467
f 467 466 468
f 469 470 471
f 470 472 473
f 474 475 476
f 474 476 477
f 473 472 478
f 479 474 477
f 479 477 480
f 478 472 481
f 472 482 481
f 479 480 483
f 484 479 483
f 481 482 485
f 484 486 487
f 482 488 485
f 484 487 489
f 490 484 489
f 485 488 491
f 491 488 492
f 492 488 493
f 490 489 494
f 490 495 496
f 492 497 498
f 498 497 499
f 496 495 500
f 498 499 501
f 496 500 502
f 502 500 503
f 501 499 504
f 502 503 505
f 505 506 507
f 501 504 508
f 509 510 511
f 505 507 512
f 512 507 513
f 514 515 516
f 517 518 519
f 520 521 522
f 522 521 523
f 517 519 524
f 522 523 525
f 524 519 526
f 526 519 527
f 525 523 528
f 529 530 531
f 531 530 532
f 525 528 533
f 533 534 535
f 531 532 536
f 533 535 537
f 536 532 538
f 535 539 537
f 540 536 538
f 541 542 537
f 540 538 543
f 537 544 545
f 544 546 545
f 547 540 548
f 546 549 545
f 463 547 550
f 547 548 550
f 545 549 551
f 551 549 467
f 549 465 467
f 463 550 464
f 552 553 554
f 555 556 557
f 558 555 557
f 558 557 559
f 560 558 559
f 560 559 561
f 562 560 561
f 562 561 563
f 564 562 563
f 564 563 565
f 566 564 565
f 566 565 567
f 566 567 249
f 249 567 250
f 247 246 553
f 568 247 553
f 552 568 553
f 569 568 552
f 570 552 554
f 570 569 552
f 570 554 571
f 572 570 571
f 572 571 573
f 574 572 573
f 574 573 575
f 576 574 575
f 576 575 577
f 578 576 577
f 579 578 577
f 579 577 580
f 581 579 580
f 556 581 580
f 556 580 582
f 556 582 557
f 569 70 68
f 568 569 68
f 583 80 79
f 583 584 80
f 568 68 66
f 247 568 66
f 247 66 65
f 579 583 79
f 217 247 65
f 585 216 62
f 585 62 59
f 586 585 59
f 578 79 77
f 578 579 79
f 587 586 59
f 587 59 58
f 588 578 77
f 588 77 74
f 589 588 74
f 590 587 58
f 591 589 74
f 591 74 72
f 592 590 58
f 592 58 85
f 570 591 72
f 593 592 85
f 593 85 83
f 570 72 70
f 569 570 70
f 584 593 83
f 584 83 80
f 52 50 81
f 39 64 67
f 52 81 82
f 39 67 69
f 54 82 84
f 54 52 82
f 40 39 69
f 40 69 71
f 54 84 86
f 42 40 71
f 42 71 73
f 56 54 86
f 56 86 57
f 32 56 57
f 44 42 73
f 44 73 75
f 32 57 60
f 33 32 60
f 33 60 61
f 35 33 61
f 44 75 76
f 36 35 61
f 36 61 63
f 46 44 76
f 46 76 78
f 48 46 78
f 50 78 81
f 50 48 78
f 594 595 51
f 159 38 37
f 596 51 53
f 596 594 51
f 597 159 37
f 597 37 41
f 598 53 55
f 598 596 53
f 599 597 41
f 600 599 41
f 600 41 43
f 598 55 56
f 31 598 56
f 601 598 31
f 602 600 43
f 603 601 31
f 34 603 31
f 604 43 45
f 604 602 43
f 605 603 34
f 606 604 45
f 607 605 34
f 607 34 608
f 167 607 608
f 606 45 47
f 137 607 167
f 609 606 47
f 610 609 47
f 49 610 47
f 595 610 49
f 595 49 51
f 601 611 612
f 601 612 598
f 601 603 613
f 614 159 597
f 599 614 597
f 615 599 600
f 616 617 600
f 604 617 616
f 609 604 606
f 618 619 620
f 596 621 618
f 612 621 596
f 612 596 598
f 619 622 620
f 158 159 614
f 621 619 618
f 623 614 599
f 623 158 614
f 623 599 615
f 623 615 600
f 611 621 612
f 617 623 600
f 611 601 613
f 624 617 604
f 624 604 609
f 613 603 625
f 136 613 625
f 136 625 626
f 624 609 622
f 136 626 137
f 619 624 622
f 627 628 629
f 630 627 629
f 631 627 630
f 629 628 632
f 631 630 633
f 632 628 634
f 631 633 635
f 628 636 634
f 637 631 635
f 637 635 638
f 634 636 639
f 639 636 640
f 639 640 641
f 637 638 642
f 641 643 644
f 642 638 645
f 641 644 646
f 642 645 647
f 646 644 648
f 642 647 649
f 646 648 650
f 642 649 651
f 650 648 652
f 652 648 653
f 651 649 654
f 652 653 655
f 651 654 656
f 656 654 657
f 655 653 658
f 655 658 659
f 656 657 660
f 656 660 661
f 659 658 662
f 662 658 663
f 661 660 664
f 661 664 665
f 664 666 665
f 662 663 667
f 668 662 667
f 665 666 669
f 670 668 667
f 671 670 667
f 666 672 669
f 673 671 674
f 671 667 674
f 672 673 674
f 669 672 674
f 675 676 677
f 675 678 676
f 87 89 679
f 675 677 680
f 87 679 681
f 682 683 684
f 685 686 687
f 688 689 690
f 691 692 693
f 682 684 694
f 695 696 697
f 695 697 698
f 699 700 701
f 29 702 30
f 695 698 703
f 704 705 706
f 707 708 709
f 710 711 712
f 713 714 24
f 713 24 23
f 715 716 717
f 718 719 720
f 721 722 723
f 721 723 724
f 723 722 725
f 726 721 724
f 722 727 725
f 726 724 728
f 725 727 729
f 727 730 729
f 731 726 728
f 729 730 732
f 731 728 733
f 734 731 733
f 732 730 735
f 732 735 736
f 734 733 737
f 734 737 738
f 736 735 739
f 736 739 740
f 738 737 741
f 740 739 742
f 738 741 743
f 743 741 744
f 740 742 745
f 743 744 746
f 744 747 746
f 745 742 748
f 749 745 748
f 747 750 751
f 746 747 751
f 749 748 752
f 753 749 752
f 750 754 751
f 753 752 755
f 751 754 756
f 757 753 755
f 756 754 758
f 754 757 758
f 757 755 758
f 200 197 223
f 200 223 218
f 204 200 218
f 204 218 64
f 64 218 65
f 63 62 213
f 63 213 187
f 187 213 759
f 190 187 759
f 760 761 762
f 194 190 759
f 194 759 234
f 196 194 234
f 196 234 229
f 199 196 229
f 199 229 225
f 203 199 225
f 207 203 220
f 203 225 220
f 184 207 220
f 184 220 215
f 763 184 215
f 185 184 763
f 763 215 210
f 185 763 210
f 189 185 233
f 185 210 233
f 192 189 233
f 192 233 227
f 197 192 227
f 197 227 223
f 177 174 201
f 174 195 201
f 177 201 205
f 38 177 205
f 39 38 205
f 167 608 186
f 168 167 186
f 168 186 193
f 170 168 193
f 170 193 198
f 175 170 198
f 175 198 202
f 179 175 202
f 179 202 206
f 181 179 206
f 181 206 182
f 165 182 183
f 165 183 166
f 166 183 188
f 166 188 191
f 169 166 191
f 172 169 191
f 172 191 195
f 174 172 195
f 764 765 766
f 119 108 110
f 4 767 5
f 768 20 21
f 769 770 771
f 772 769 771
f 768 21 773
f 774 768 773
f 775 771 776
f 775 772 771
f 777 774 773
f 777 773 778
f 779 775 776
f 779 776 780
f 781 777 778
f 781 778 782
f 779 780 783
f 767 779 783
f 769 781 782
f 769 782 770
f 767 783 5
f 784 785 786
f 787 788 786
f 788 784 786
f 787 786 789
f 790 791 792
f 793 790 792
f 794 793 792
f 790 795 796
f 791 797 788
f 797 798 788
f 790 796 791
f 799 792 800
f 801 790 793
f 791 788 787
f 792 791 787
f 800 792 787
f 791 802 797

