mtllib material.mtl
usemtl material_wrist3_0
v 0.00415420 0.04844957 -0.03153157
v 0.01583337 0.04144954 -0.02766251
v -0.00262403 0.04144960 -0.03210252
v -0.02863371 0.04844957 -0.01055943
v -0.02186870 0.04844969 -0.02227020
v -0.02519083 0.04144948 -0.01786136
v 0.00415420 0.04844957 -0.03153157
v 0.01573753 0.04844963 -0.02750730
v 0.01583337 0.04144954 -0.02766251
v -0.02863371 0.04844957 -0.01055943
v -0.02519083 0.04144948 -0.01786136
v -0.02952033 0.04144954 -0.00608635
v 0.03001028 0.04844951 -0.00153708
v 0.02990263 0.04144948 0.00042418
v 0.02654433 0.04144948 -0.01563453
v -0.00962829 0.04844957 -0.03055989
v 0.00415420 0.04844957 -0.03153157
v -0.00262403 0.04144960 -0.03210252
v 0.02560853 0.04844945 -0.01734161
v 0.03001028 0.04844951 -0.00153708
v 0.02654433 0.04144948 -0.01563453
v -0.02915567 0.04844957 0.00359982
v -0.02863371 0.04844957 -0.01055943
v -0.02952033 0.04144954 -0.00608635
v -0.00962829 0.04844957 -0.03055989
v -0.00262403 0.04144960 -0.03210252
v -0.01730060 0.04144948 -0.02634429
v 0.02560853 0.04844945 -0.01734161
v 0.02654433 0.04144948 -0.01563453
v 0.01583337 0.04144954 -0.02766251
v 0.01573753 0.04844963 -0.02750730
v 0.02560853 0.04844945 -0.01734161
v 0.01583337 0.04144954 -0.02766251
v -0.02186870 0.04844969 -0.02227020
v -0.00962829 0.04844957 -0.03055989
v -0.01730060 0.04144948 -0.02634429
v -0.02186870 0.04844969 -0.02227020
v -0.01730060 0.04144948 -0.02634429
v -0.02519083 0.04144948 -0.01786136
v -0.00156319 0.05932331 0.02580016
v 0.00418186 0.06159240 0.02580004
v 0.00162864 0.05948358 0.02880001
v -0.00156319 0.05932331 0.02580016
v 0.00162864 0.05948358 0.02880001
v -0.00340194 0.06075114 0.02880024
v -0.00502372 0.06417244 0.02580010
v -0.00340194 0.06075114 0.02880024
v -0.00499636 0.06427621 0.02880012
v -0.00502372 0.06417244 0.02580010
v -0.00156319 0.05932331 0.02580016
v -0.00340194 0.06075114 0.02880024
v -0.00502372 0.06417244 0.02580010
v -0.00499636 0.06427621 0.02880012
v -0.00373280 0.06779658 0.02879977
v -0.00211757 0.06937265 0.02579993
v -0.00502372 0.06417244 0.02580010
v -0.00373280 0.06779658 0.02879977
v 0.00162864 0.05948358 0.02880001
v 0.00407070 0.06137990 0.03185278
v 0.00056974 0.05939382 0.03184509
v -0.00340194 0.06075114 0.02880024
v 0.00056974 0.05939382 0.03184509
v -0.00427371 0.06155431 0.03180009
v -0.00340194 0.06075114 0.02880024
v 0.00162864 0.05948358 0.02880001
v 0.00056974 0.05939382 0.03184509
v -0.00499636 0.06427621 0.02880012
v -0.00340194 0.06075114 0.02880024
v -0.00427371 0.06155431 0.03180009
v -0.00499636 0.06427621 0.02880012
v -0.00427371 0.06155431 0.03180009
v -0.00462985 0.06632566 0.03180193
v -0.00373280 0.06779658 0.02879977
v -0.00462985 0.06632566 0.03180193
v -0.00197476 0.06918179 0.03183293
v -0.00373280 0.06779658 0.02879977
v -0.00499636 0.06427621 0.02880012
v -0.00462985 0.06632566 0.03180193
v 0.00056974 0.05939382 0.03184509
v 0.00407070 0.06137990 0.03185278
v 0.00142473 0.06050783 0.03527581
v -0.00427371 0.06155431 0.03180009
v 0.00056974 0.05939382 0.03184509
v -0.00240153 0.06029456 0.03425508
v -0.00462985 0.06632566 0.03180193
v -0.00427371 0.06155431 0.03180009
v -0.00459701 0.06341630 0.03438156
v -0.00197476 0.06918179 0.03183293
v -0.00462985 0.06632566 0.03180193
v -0.00342387 0.06792140 0.03412240
v -0.00459701 0.06341630 0.03438156
v -0.00342387 0.06792140 0.03412240
v -0.00462985 0.06632566 0.03180193
v -0.00209415 0.06694465 0.03572791
v -0.00342387 0.06792140 0.03412240
v -0.00341105 0.06527417 0.03580480
v -0.00240153 0.06029456 0.03425508
v -0.00341105 0.06527417 0.03580480
v -0.00459701 0.06341630 0.03438156
v -0.00459701 0.06341630 0.03438156
v -0.00341105 0.06527417 0.03580480
v -0.00342387 0.06792140 0.03412240
v 0.00142473 0.06050783 0.03527581
v -0.00240153 0.06029456 0.03425508
v 0.00056974 0.05939382 0.03184509
v 0.00142473 0.06050783 0.03527581
v -0.00341105 0.06527417 0.03580480
v -0.00240153 0.06029456 0.03425508
v 0.00142473 0.06050783 0.03527581
v 0.00336337 0.06342613 0.03579330
v -0.00341105 0.06527417 0.03580480
v -0.00240153 0.06029456 0.03425508
v -0.00459701 0.06341630 0.03438156
v -0.00427371 0.06155431 0.03180009
v -0.00209415 0.06694465 0.03572791
v -0.00341105 0.06527417 0.03580480
v 0.00336337 0.06342613 0.03579330
v 0.01814681 0.07044953 0.01817166
v 0.01486432 0.07044953 0.01559698
v 0.01557946 0.08044952 0.01723104
v 0.01814681 0.07044953 0.01817166
v 0.01557946 0.08044952 0.01723104
v 0.02005422 0.08044952 0.01714438
v 0.02031791 0.07044953 0.01547765
v 0.01814681 0.07044953 0.01817166
v 0.02005422 0.08044952 0.01714438
v 0.01312875 0.08029443 0.01323956
v 0.01278418 0.08035880 0.01630502
v 0.01491665 0.08036082 0.01128035
v 0.01846987 0.07044953 -0.01733624
v 0.01481872 0.07044959 -0.01937532
v 0.01504606 0.08044958 -0.01865255
v 0.01846987 0.07044953 -0.01733624
v 0.01504606 0.08044958 -0.01865255
v 0.01975136 0.08044958 -0.01797258
v 0.02036416 0.07044959 -0.02072089
v 0.01846987 0.07044953 -0.01733624
v 0.01975136 0.08044958 -0.01797258
v 0.02185583 0.08047372 -0.02306032
v 0.02006816 0.08046728 -0.02453565
v 0.02275598 0.08034986 -0.01937818
v -0.01954472 0.07044953 -0.01801061
v -0.02003473 0.07044953 -0.02111470
v -0.02005434 0.08044952 -0.02138757
v -0.01954472 0.07044953 -0.01801061
v -0.02005434 0.08044952 -0.02138757
v -0.01910042 0.08044958 -0.01762747
v -0.01633501 0.07044959 -0.01755189
v -0.01954472 0.07044953 -0.01801061
v -0.01910042 0.08044958 -0.01762747
v -0.01633501 0.07044959 -0.01755189
v -0.01910042 0.08044958 -0.01762747
v -0.01587271 0.08044952 -0.01792109
v -0.01511567 0.07044959 -0.02021461
v -0.01633501 0.07044959 -0.01755189
v -0.01587271 0.08044952 -0.01792109
v -0.01511567 0.07044959 -0.02021461
v -0.01587271 0.08044952 -0.01792109
v -0.01560401 0.08044952 -0.02178251
v 0.03133547 0.07945120 -0.00685060
v 0.03167182 0.04844951 -0.00151318
v 0.02837073 0.04844963 -0.01702237
v 0.02869760 0.08024340 -0.01454091
v 0.03133547 0.07945120 -0.00685060
v 0.02837073 0.04844963 -0.01702237
v 0.02325630 0.07945084 -0.02362632
v 0.02869760 0.08024340 -0.01454091
v 0.02837073 0.04844963 -0.01702237
v 0.02325630 0.07945084 -0.02362632
v 0.02837073 0.04844963 -0.01702237
v 0.01423978 0.04844957 -0.03086757
v 0.01293087 0.07945483 -0.03127574
v 0.02325630 0.07945084 -0.02362632
v 0.01423978 0.04844957 -0.03086757
v 0.00029784 0.07945042 -0.03382062
v 0.01423978 0.04844957 -0.03086757
v -0.00432062 0.04844957 -0.03381770
v 0.00029784 0.07945042 -0.03382062
v 0.01293087 0.07945483 -0.03127574
v 0.01423978 0.04844957 -0.03086757
v -0.01139163 0.07945233 -0.03183078
v 0.00029784 0.07945042 -0.03382062
v -0.00432062 0.04844957 -0.03381770
v -0.01139163 0.07945233 -0.03183078
v -0.00432062 0.04844957 -0.03381770
v -0.01805877 0.04844969 -0.02822685
v -0.02217960 0.07944929 -0.02482032
v -0.01139163 0.07945233 -0.03183078
v -0.01805877 0.04844969 -0.02822685
v -0.02217960 0.07944929 -0.02482032
v -0.01805877 0.04844969 -0.02822685
v -0.02697134 0.04844951 -0.01894474
v -0.02848434 0.07945036 -0.01593494
v -0.02217960 0.07944929 -0.02482032
v -0.02697134 0.04844951 -0.01894474
v -0.02848434 0.07945036 -0.01593494
v -0.02697134 0.04844951 -0.01894474
v -0.03104645 0.04844957 -0.00812220
v -0.03179484 0.07945436 -0.00351930
v -0.02848434 0.07945036 -0.01593494
v -0.03104645 0.04844957 -0.00812220
v -0.03179484 0.07945436 -0.00351930
v -0.03104645 0.04844957 -0.00812220
v -0.03130984 0.04844951 0.00275904
v -0.02856504 0.08045321 -0.01421630
v -0.03179484 0.07945436 -0.00351930
v -0.03038257 0.08045119 0.00292605
v -0.02848434 0.07945036 -0.01593494
v -0.03179484 0.07945436 -0.00351930
v -0.02856504 0.08045321 -0.01421630
v -0.02217960 0.07944929 -0.02482032
v -0.02848434 0.07945036 -0.01593494
v -0.02856504 0.08045321 -0.01421630
v -0.02183568 0.08037889 -0.02293586
v -0.02217960 0.07944929 -0.02482032
v -0.02856504 0.08045321 -0.01421630
v -0.01950836 0.08048254 -0.02482861
v -0.02217960 0.07944929 -0.02482032
v -0.02183568 0.08037889 -0.02293586
v -0.01139163 0.07945233 -0.03183078
v -0.02217960 0.07944929 -0.02482032
v -0.01950836 0.08048254 -0.02482861
v -0.00706863 0.08045357 -0.03237217
v -0.01139163 0.07945233 -0.03183078
v -0.01950836 0.08048254 -0.02482861
v 0.00029784 0.07945042 -0.03382062
v -0.01139163 0.07945233 -0.03183078
v -0.00706863 0.08045357 -0.03237217
v 0.01014518 0.08045107 -0.03129398
v 0.00029784 0.07945042 -0.03382062
v -0.00706863 0.08045357 -0.03237217
v 0.01293087 0.07945483 -0.03127574
v 0.00029784 0.07945042 -0.03382062
v 0.01014518 0.08045107 -0.03129398
v 0.02006816 0.08046728 -0.02453565
v 0.01293087 0.07945483 -0.03127574
v 0.01014518 0.08045107 -0.03129398
v 0.02325630 0.07945084 -0.02362632
v 0.01293087 0.07945483 -0.03127574
v 0.02006816 0.08046728 -0.02453565
v 0.02185583 0.08047372 -0.02306032
v 0.02325630 0.07945084 -0.02362632
v 0.02006816 0.08046728 -0.02453565
v 0.02869760 0.08024340 -0.01454091
v 0.02325630 0.07945084 -0.02362632
v 0.02185583 0.08047372 -0.02306032
v 0.03056353 0.08045017 0.00038920
v 0.03133547 0.07945120 -0.00685060
v 0.02869760 0.08024340 -0.01454091
v -0.02043867 0.08031874 0.01969933
v -0.02276998 0.08033978 0.01502722
v -0.02045714 0.08045470 0.02043920
v -0.01644539 0.08026236 -0.01511293
v -0.01978826 0.08033144 -0.01531732
v -0.01404547 0.08029448 -0.01631295
v -0.01605141 0.07944059 -0.00172383
v -0.01604163 0.08044242 -0.00857878
v -0.01545381 0.08044469 0.00527316
v 0.00604010 0.07946527 0.01255363
v 0.00669241 0.08044844 0.01335424
v 0.01160717 0.07943791 0.00853914
v 0.01160717 0.07943791 0.00853914
v 0.00669241 0.08044844 0.01335424
v 0.01498568 0.08044475 0.00617242
v -0.01605141 0.07944059 -0.00172383
v -0.01545381 0.08044469 0.00527316
v -0.01190519 0.07946640 0.00861663
v 0.01160717 0.07943791 0.00853914
v 0.01498568 0.08044475 0.00617242
v 0.01518440 0.07946562 0.00265521
v -0.01190519 0.07946640 0.00861663
v -0.01545381 0.08044469 0.00527316
v -0.00495684 0.08044224 0.01433622
v 0.01518440 0.07946562 0.00265521
v 0.01498568 0.08044475 0.00617242
v 0.01610499 0.08017235 -0.00453496
v -0.01190519 0.07946640 0.00861663
v -0.00495684 0.08044224 0.01433622
v -0.00285029 0.07942152 0.01350659
v -0.00285029 0.07942152 0.01350659
v -0.00495684 0.08044224 0.01433622
v 0.00604010 0.07946527 0.01255363
v 0.00604010 0.07946527 0.01255363
v -0.00495684 0.08044224 0.01433622
v 0.00669241 0.08044844 0.01335424
v -0.00094986 0.07444953 0.02584999
v -0.00322240 0.07444953 0.02237588
v -0.00315571 0.08036023 0.02343517
v -0.00094986 0.07444953 0.02584999
v -0.00315571 0.08036023 0.02343517
v -0.00060415 0.08033406 0.02602595
v 0.00279069 0.07444947 0.02441096
v -0.00094986 0.07444953 0.02584999
v -0.00060415 0.08033406 0.02602595
v 0.00279069 0.07444947 0.02441096
v -0.00060415 0.08033406 0.02602595
v 0.00258422 0.08034664 0.02464431
v 0.00279069 0.07444947 0.02441096
v 0.00258422 0.08034664 0.02464431
v 0.00248951 0.08032995 0.02040618
v 0.00365591 0.07394951 0.01329714
v -0.00411224 0.07394951 0.01314300
v -0.00285029 0.07942152 0.01350659
v 0.00365591 0.07394951 0.01329714
v -0.00285029 0.07942152 0.01350659
v 0.00604010 0.07946527 0.01255363
v 0.01035881 0.07394951 0.00982278
v 0.00365591 0.07394951 0.01329714
v 0.00604010 0.07946527 0.01255363
v -0.01606279 0.07394951 -0.00056579
v -0.01605141 0.07944059 -0.00172383
v -0.01190519 0.07946640 0.00861663
v -0.01128864 0.07394951 0.00908941
v -0.01606279 0.07394951 -0.00056579
v -0.01190519 0.07946640 0.00861663
v 0.01035881 0.07394951 0.00982278
v 0.00604010 0.07946527 0.01255363
v 0.01160717 0.07943791 0.00853914
v 0.01500201 0.07394951 0.00326031
v 0.01035881 0.07394951 0.00982278
v 0.01160717 0.07943791 0.00853914
v 0.01500201 0.07394951 0.00326031
v 0.01160717 0.07943791 0.00853914
v 0.01518440 0.07946562 0.00265521
v -0.00411224 0.07394951 0.01314300
v -0.01128864 0.07394951 0.00908941
v -0.01190519 0.07946640 0.00861663
v -0.00411224 0.07394951 0.01314300
v -0.01190519 0.07946640 0.00861663
v -0.00285029 0.07942152 0.01350659
v 0.01566159 0.07394951 -0.00474977
v 0.01500201 0.07394951 0.00326031
v 0.01518440 0.07946562 0.00265521
v 0.01566159 0.07394951 -0.00474977
v 0.01518440 0.07946562 0.00265521
v 0.01610499 0.08017235 -0.00453496
v -0.01861810 0.07044947 0.01804518
v -0.02005422 0.07044953 0.01381117
v -0.02038758 0.08044952 0.01660031
v -0.01861810 0.07044947 0.01804518
v -0.02038758 0.08044952 0.01660031
v -0.01602882 0.08044952 0.01762682
v -0.01555514 0.07044959 0.01698178
v -0.01861810 0.07044947 0.01804518
v -0.01602882 0.08044952 0.01762682
v -0.01557940 0.07044959 0.01372438
v -0.01555514 0.07044959 0.01698178
v -0.01525700 0.08044958 0.01447534
v -0.01555514 0.07044959 0.01698178
v -0.01602882 0.08044952 0.01762682
v -0.01525700 0.08044958 0.01447534
v -0.02045714 0.08045470 0.02043920
v -0.01516175 0.08031862 0.01979690
v -0.02043867 0.08031874 0.01969933
v -0.01285523 0.08031857 0.01416474
v -0.01525700 0.08044958 0.01447534
v -0.01602882 0.08044952 0.01762682
v -0.02038758 0.08044952 0.01660031
v -0.02276998 0.08033978 0.01502722
v -0.02043867 0.08031874 0.01969933
v -0.01285523 0.08031857 0.01416474
v -0.01602882 0.08044952 0.01762682
v -0.01324361 0.08035933 0.01769334
v -0.01484775 0.08034211 0.01130551
v -0.01525700 0.08044958 0.01447534
v -0.01285523 0.08031857 0.01416474
v -0.01484775 0.08034211 0.01130551
v -0.01931166 0.08035004 0.01060777
v -0.01803117 0.08044952 0.01279234
v -0.01484775 0.08034211 0.01130551
v -0.01803117 0.08044952 0.01279234
v -0.01525700 0.08044958 0.01447534
v -0.01602882 0.08044952 0.01762682
v -0.02043867 0.08031874 0.01969933
v -0.01516175 0.08031862 0.01979690
v -0.01602882 0.08044952 0.01762682
v -0.02038758 0.08044952 0.01660031
v -0.02043867 0.08031874 0.01969933
v -0.01324361 0.08035933 0.01769334
v -0.01602882 0.08044952 0.01762682
v -0.01516175 0.08031862 0.01979690
v -0.01803117 0.08044952 0.01279234
v -0.02276998 0.08033978 0.01502722
v -0.02038758 0.08044952 0.01660031
v -0.01931166 0.08035004 0.01060777
v -0.02276998 0.08033978 0.01502722
v -0.01803117 0.08044952 0.01279234
v -0.01557940 0.07044959 0.01372438
v -0.01525700 0.08044958 0.01447534
v -0.01803117 0.08044952 0.01279234
v -0.02005422 0.07044953 0.01381117
v -0.01557940 0.07044959 0.01372438
v -0.01803117 0.08044952 0.01279234
v -0.02005422 0.07044953 0.01381117
v -0.01803117 0.08044952 0.01279234
v -0.02038758 0.08044952 0.01660031
v -0.01555514 0.07044959 0.01698178
v -0.01557940 0.07044959 0.01372438
v -0.01861810 0.07044947 0.01804518
v -0.02005422 0.07044953 0.01381117
v -0.01606279 0.07394951 -0.00056579
v -0.01128864 0.07394951 0.00908941
v -0.00411224 0.07394951 0.01314300
v 0.01500201 0.07394951 0.00326031
v 0.01035881 0.07394951 0.00982278
v -0.01354336 0.07394963 -0.01057195
v -0.00811100 0.07394945 -0.01583766
v -0.00091028 0.07394957 -0.01809632
v 0.01566159 0.07394951 -0.00474977
v 0.00365591 0.07394951 0.01329714
v 0.01226449 0.07394951 -0.01249122
v 0.00587273 0.07394951 -0.01689386
v -0.00094986 0.07444953 0.02584999
v 0.00279069 0.07444947 0.02441096
v -0.00322240 0.07444953 0.02237588
v 0.00119364 0.07444947 0.01952773
v -0.00091028 0.07394957 -0.01809632
v 0.00302696 0.07943540 -0.01805424
v -0.00651360 0.07944846 -0.01666831
v -0.00811100 0.07394945 -0.01583766
v -0.00091028 0.07394957 -0.01809632
v -0.00651360 0.07944846 -0.01666831
v 0.01226449 0.07394951 -0.01249122
v 0.01566159 0.07394951 -0.00474977
v 0.01610499 0.08017235 -0.00453496
v 0.01226449 0.07394951 -0.01249122
v 0.01610499 0.08017235 -0.00453496
v 0.01227951 0.07942140 -0.01239919
v -0.00811100 0.07394945 -0.01583766
v -0.00651360 0.07944846 -0.01666831
v -0.01296639 0.07944393 -0.01154851
v -0.01354336 0.07394963 -0.01057195
v -0.00811100 0.07394945 -0.01583766
v -0.01296639 0.07944393 -0.01154851
v 0.01226449 0.07394951 -0.01249122
v 0.01227951 0.07942140 -0.01239919
v 0.00302696 0.07943540 -0.01805424
v 0.00587273 0.07394951 -0.01689386
v 0.01226449 0.07394951 -0.01249122
v 0.00302696 0.07943540 -0.01805424
v -0.01354336 0.07394963 -0.01057195
v -0.01296639 0.07944393 -0.01154851
v -0.01605141 0.07944059 -0.00172383
v -0.01606279 0.07394951 -0.00056579
v -0.01354336 0.07394963 -0.01057195
v -0.01605141 0.07944059 -0.00172383
v -0.00091028 0.07394957 -0.01809632
v 0.00587273 0.07394951 -0.01689386
v 0.00302696 0.07943540 -0.01805424
v 0.00119364 0.07444947 0.01952773
v 0.00279069 0.07444947 0.02441096
v 0.00248951 0.08032995 0.02040618
v 0.00119364 0.07444947 0.01952773
v 0.00248951 0.08032995 0.02040618
v -0.00208032 0.08036857 0.02031463
v -0.00322240 0.07444953 0.02237588
v 0.00119364 0.07444947 0.01952773
v -0.00208032 0.08036857 0.02031463
v -0.00322240 0.07444953 0.02237588
v -0.00208032 0.08036857 0.02031463
v -0.00315571 0.08036023 0.02343517
v -0.00651360 0.07944846 -0.01666831
v -0.00802326 0.08044850 -0.01711225
v -0.01296639 0.07944393 -0.01154851
v -0.01296639 0.07944393 -0.01154851
v -0.00802326 0.08044850 -0.01711225
v -0.01604163 0.08044242 -0.00857878
v 0.01227951 0.07942140 -0.01239919
v 0.01610499 0.08017235 -0.00453496
v 0.01196527 0.08044439 -0.01450872
v -0.01296639 0.07944393 -0.01154851
v -0.01604163 0.08044242 -0.00857878
v -0.01605141 0.07944059 -0.00172383
v 0.01227951 0.07942140 -0.01239919
v 0.01196527 0.08044439 -0.01450872
v 0.00302696 0.07943540 -0.01805424
v 0.00302696 0.07943540 -0.01805424
v 0.01196527 0.08044439 -0.01450872
v 0.00124776 0.08044785 -0.01915442
v 0.00302696 0.07943540 -0.01805424
v 0.00124776 0.08044785 -0.01915442
v -0.00651360 0.07944846 -0.01666831
v -0.00651360 0.07944846 -0.01666831
v 0.00124776 0.08044785 -0.01915442
v -0.00802326 0.08044850 -0.01711225
v 0.01664650 0.08027207 0.02029919
v 0.01440405 0.08034074 0.01925736
v 0.00991249 0.08045452 0.02727144
v 0.02869760 0.08024340 -0.01454091
v 0.02275598 0.08034986 -0.01937818
v 0.01955330 0.08037173 -0.01510715
v 0.01312875 0.08029443 0.01323956
v 0.00669241 0.08044844 0.01335424
v 0.01278418 0.08035880 0.01630502
v 0.02052140 0.08044892 0.01973861
v 0.01664650 0.08027207 0.02029919
v 0.00991249 0.08045452 0.02727144
v -0.01404547 0.08029448 -0.01631295
v -0.01978826 0.08033144 -0.01531732
v -0.01604163 0.08044242 -0.00857878
v 0.02185583 0.08047372 -0.02306032
v 0.02275598 0.08034986 -0.01937818
v 0.02869760 0.08024340 -0.01454091
v 0.02006816 0.08046728 -0.02453565
v 0.01014518 0.08045107 -0.03129398
v 0.01509773 0.08032387 -0.02434593
v -0.02276998 0.08033978 0.01502722
v -0.02873468 0.08014172 0.01051992
v -0.02045714 0.08045470 0.02043920
v 0.01312875 0.08029443 0.01323956
v 0.01498568 0.08044475 0.00617242
v 0.00669241 0.08044844 0.01335424
v -0.01516175 0.08031862 0.01979690
v -0.02045714 0.08045470 0.02043920
v -0.00924969 0.08045190 0.02727955
v -0.01931166 0.08035004 0.01060777
v -0.02873468 0.08014172 0.01051992
v -0.02276998 0.08033978 0.01502722
v -0.00802326 0.08044850 -0.01711225
v -0.01404547 0.08029448 -0.01631295
v -0.01604163 0.08044242 -0.00857878
v -0.01931166 0.08035004 0.01060777
v -0.03038257 0.08045119 0.00292605
v -0.02873468 0.08014172 0.01051992
v 0.01498568 0.08044475 0.00617242
v 0.01312875 0.08029443 0.01323956
v 0.01491665 0.08036082 0.01128035
v -0.01324361 0.08035933 0.01769334
v -0.01516175 0.08031862 0.01979690
v -0.00924969 0.08045190 0.02727955
v -0.00802326 0.08044850 -0.01711225
v -0.01269191 0.08034086 -0.02008122
v -0.01404547 0.08029448 -0.01631295
v -0.00060415 0.08033406 0.02602595
v -0.00315571 0.08036023 0.02343517
v -0.00924969 0.08045190 0.02727955
v 0.01498568 0.08044475 0.00617242
v 0.01491665 0.08036082 0.01128035
v 0.01920461 0.08034169 0.01068168
v -0.00060415 0.08033406 0.02602595
v -0.00924969 0.08045190 0.02727955
v 0.00991249 0.08045452 0.02727144
v -0.00208032 0.08036857 0.02031463
v -0.01324361 0.08035933 0.01769334
v -0.00924969 0.08045190 0.02727955
v -0.00208032 0.08036857 0.02031463
v -0.00924969 0.08045190 0.02727955
v -0.00315571 0.08036023 0.02343517
v 0.02655982 0.08014792 0.01443761
v 0.02205103 0.08032429 0.01286810
v 0.02238094 0.08047139 0.01753312
v 0.00258422 0.08034664 0.02464431
v -0.00060415 0.08033406 0.02602595
v 0.00991249 0.08045452 0.02727144
v -0.00802326 0.08044850 -0.01711225
v -0.01420009 0.08036494 -0.02363240
v -0.01269191 0.08034086 -0.02008122
v -0.00706863 0.08045357 -0.03237217
v -0.01950836 0.08048254 -0.02482861
v -0.01420009 0.08036494 -0.02363240
v 0.02655982 0.08014792 0.01443761
v 0.01920461 0.08034169 0.01068168
v 0.02205103 0.08032429 0.01286810
v -0.00495684 0.08044224 0.01433622
v -0.01484775 0.08034211 0.01130551
v -0.01285523 0.08031857 0.01416474
v -0.01545381 0.08044469 0.00527316
v -0.01545381 0.08044469 0.00527316
v -0.01931166 0.08035004 0.01060777
v -0.01484775 0.08034211 0.01130551
v -0.00706863 0.08045357 -0.03237217
v -0.01420009 0.08036494 -0.02363240
v -0.00802326 0.08044850 -0.01711225
v -0.00495684 0.08044224 0.01433622
v -0.01285523 0.08031857 0.01416474
v -0.01324361 0.08035933 0.01769334
v 0.02655982 0.08014792 0.01443761
v 0.01498568 0.08044475 0.00617242
v 0.01920461 0.08034169 0.01068168
v 0.00248951 0.08032995 0.02040618
v 0.00258422 0.08034664 0.02464431
v 0.00991249 0.08045452 0.02727144
v 0.03056353 0.08045017 0.00038920
v 0.02655982 0.08014792 0.01443761
v -0.00495684 0.08044224 0.01433622
v -0.01324361 0.08035933 0.01769334
v -0.00208032 0.08036857 0.02031463
v -0.03038257 0.08045119 0.00292605
v -0.00706863 0.08045357 -0.03237217
v -0.00802326 0.08044850 -0.01711225
v 0.00124776 0.08044785 -0.01915442
v 0.03056353 0.08045017 0.00038920
v 0.01610499 0.08017235 -0.00453496
v 0.01498568 0.08044475 0.00617242
v -0.01604163 0.08044242 -0.00857878
v -0.03038257 0.08045119 0.00292605
v -0.01545381 0.08044469 0.00527316
v -0.00495684 0.08044224 0.01433622
v -0.00208032 0.08036857 0.02031463
v 0.00248951 0.08032995 0.02040618
v -0.02856504 0.08045321 -0.01421630
v 0.01727288 0.08028233 -0.01481223
v 0.01359719 0.08033287 -0.01688194
v 0.01196527 0.08044439 -0.01450872
v 0.01283162 0.08033853 -0.02102118
v 0.01196527 0.08044439 -0.01450872
v 0.01359719 0.08033287 -0.01688194
v 0.00669241 0.08044844 0.01335424
v -0.00495684 0.08044224 0.01433622
v 0.00248951 0.08032995 0.02040618
v 0.01727288 0.08028233 -0.01481223
v 0.01196527 0.08044439 -0.01450872
v 0.01610499 0.08017235 -0.00453496
v 0.01283162 0.08033853 -0.02102118
v 0.00124776 0.08044785 -0.01915442
v 0.01196527 0.08044439 -0.01450872
v 0.01955330 0.08037173 -0.01510715
v 0.01727288 0.08028233 -0.01481223
v 0.01610499 0.08017235 -0.00453496
v 0.01014518 0.08045107 -0.03129398
v 0.02869760 0.08024340 -0.01454091
v 0.01610499 0.08017235 -0.00453496
v 0.03056353 0.08045017 0.00038920
v -0.02262687 0.08033806 -0.01877135
v -0.02856504 0.08045321 -0.01421630
v -0.01978826 0.08033144 -0.01531732
v -0.01978826 0.08033144 -0.01531732
v -0.02856504 0.08045321 -0.01421630
v -0.01604163 0.08044242 -0.00857878
v 0.02869760 0.08024340 -0.01454091
v 0.01955330 0.08037173 -0.01510715
v 0.01610499 0.08017235 -0.00453496
v 0.01278418 0.08035880 0.01630502
v 0.00248951 0.08032995 0.02040618
v 0.01278418 0.08035880 0.01630502
v 0.00991249 0.08045452 0.02727144
v 0.01440405 0.08034074 0.01925736
v 0.01014518 0.08045107 -0.03129398
v 0.00124776 0.08044785 -0.01915442
v 0.01283162 0.08033853 -0.02102118
v 0.01278418 0.08035880 0.01630502
v 0.00669241 0.08044844 0.01335424
v 0.00248951 0.08032995 0.02040618
v 0.01014518 0.08045107 -0.03129398
v 0.01283162 0.08033853 -0.02102118
v 0.01509773 0.08032387 -0.02434593
v -0.02183568 0.08037889 -0.02293586
v -0.02856504 0.08045321 -0.01421630
v -0.02262687 0.08033806 -0.01877135
v 0.00116611 0.05669289 0.02893424
v 0.01419305 0.05693060 0.02584451
v -0.01333045 0.05680376 0.02612155
v -0.01434469 0.05716079 0.02579790
v -0.01333045 0.05680376 0.02612155
v 0.01419305 0.05693060 0.02584451
v -0.00156319 0.05932331 0.02580016
v 0.01419305 0.05693060 0.02584451
v 0.00418186 0.06159240 0.02580004
v 0.00447929 0.06712502 0.02580010
v 0.01419305 0.05693060 0.02584451
v 0.01418876 0.07212322 0.02590769
v 0.00447929 0.06712502 0.02580010
v 0.00418186 0.06159240 0.02580004
v 0.01419305 0.05693060 0.02584451
v -0.00211757 0.06937265 0.02579993
v 0.00447929 0.06712502 0.02580010
v 0.01418876 0.07212322 0.02590769
v -0.01434469 0.05716079 0.02579790
v -0.00156319 0.05932331 0.02580016
v -0.00502372 0.06417244 0.02580010
v -0.01419639 0.07198917 0.02583760
v -0.00211757 0.06937265 0.02579993
v 0.01418876 0.07212322 0.02590769
v -0.01419639 0.07198917 0.02583760
v -0.00211757 0.06937265 0.02579993
v -0.01434469 0.05716079 0.02579790
v 0.00013873 0.07230043 0.02915793
v -0.01419639 0.07198917 0.02583760
v 0.01418876 0.07212322 0.02590769
v 0.03084707 0.07945096 0.00501102
v 0.03133547 0.07945120 -0.00685060
v 0.03056353 0.08045017 0.00038920
v 0.02655982 0.08014792 0.01443761
v 0.03084707 0.07945096 0.00501102
v 0.03056353 0.08045017 0.00038920
v 0.02052140 0.08044892 0.01973861
v 0.02655982 0.08014792 0.01443761
v 0.02238094 0.08047139 0.01753312
v 0.01894760 0.07941454 0.02323526
v 0.02655982 0.08014792 0.01443761
v 0.02052140 0.08044892 0.01973861
v 0.00991249 0.08045452 0.02727144
v 0.01894760 0.07941454 0.02323526
v 0.02052140 0.08044892 0.01973861
v 0.00785065 0.07942038 0.02859324
v 0.01894760 0.07941454 0.02323526
v 0.00991249 0.08045452 0.02727144
v -0.00617409 0.07945591 0.02893537
v 0.00785065 0.07942038 0.02859324
v 0.00991249 0.08045452 0.02727144
v -0.00924969 0.08045190 0.02727955
v -0.00617409 0.07945591 0.02893537
v 0.00991249 0.08045452 0.02727144
v -0.01617813 0.07945102 0.02491468
v -0.00617409 0.07945591 0.02893537
v -0.00924969 0.08045190 0.02727955
v -0.02045714 0.08045470 0.02043920
v -0.01617813 0.07945102 0.02491468
v -0.00924969 0.08045190 0.02727955
v -0.02326202 0.07945209 0.01922124
v -0.01617813 0.07945102 0.02491468
v -0.02045714 0.08045470 0.02043920
v -0.02873468 0.08014172 0.01051992
v -0.02326202 0.07945209 0.01922124
v -0.02045714 0.08045470 0.02043920
v -0.03179484 0.07945436 -0.00351930
v -0.02873468 0.08014172 0.01051992
v -0.03038257 0.08045119 0.00292605
v 0.00116611 0.05669289 0.02893424
v 0.00755882 0.05593937 0.02847236
v 0.01419305 0.05693060 0.02584451
v -0.01333045 0.05680376 0.02612155
v -0.00586891 0.05595928 0.02884477
v 0.00116611 0.05669289 0.02893424
v 0.00013873 0.07230043 0.02915793
v -0.00998306 0.07301253 0.02774232
v -0.01419639 0.07198917 0.02583760
v -0.02873468 0.08014172 0.01051992
v -0.03179484 0.07945436 -0.00351930
v -0.03130984 0.04844951 0.00275904
v -0.02873468 0.08014172 0.01051992
v -0.03130984 0.04844951 0.00275904
v -0.02663373 0.04844951 0.01507562
v -0.02326202 0.07945209 0.01922124
v -0.02873468 0.08014172 0.01051992
v -0.02663373 0.04844951 0.01507562
v -0.02326202 0.07945209 0.01922124
v -0.02663373 0.04844951 0.01507562
v -0.01807212 0.04844975 0.02378171
v -0.01617813 0.07945102 0.02491468
v -0.02326202 0.07945209 0.01922124
v -0.01807212 0.04844975 0.02378171
v -0.01434469 0.05716079 0.02579790
v -0.01807212 0.04844975 0.02378171
v -0.00730324 0.04844957 0.02878731
v -0.01617813 0.07945102 0.02491468
v -0.01807212 0.04844975 0.02378171
v -0.01434469 0.05716079 0.02579790
v -0.01333045 0.05680376 0.02612155
v -0.01434469 0.05716079 0.02579790
v -0.00730324 0.04844957 0.02878731
v -0.01419639 0.07198917 0.02583760
v -0.01617813 0.07945102 0.02491468
v -0.01434469 0.05716079 0.02579790
v -0.00998306 0.07301253 0.02774232
v -0.01617813 0.07945102 0.02491468
v -0.01419639 0.07198917 0.02583760
v -0.00586891 0.05595928 0.02884477
v -0.01333045 0.05680376 0.02612155
v -0.00730324 0.04844957 0.02878731
v -0.00617409 0.07945591 0.02893537
v -0.01617813 0.07945102 0.02491468
v -0.00998306 0.07301253 0.02774232
v 0.00013873 0.07230043 0.02915793
v -0.00617409 0.07945591 0.02893537
v -0.00998306 0.07301253 0.02774232
v 0.00116611 0.05669289 0.02893424
v -0.00586891 0.05595928 0.02884477
v -0.00730324 0.04844957 0.02878731
v 0.00680828 0.04844957 0.02875632
v 0.00116611 0.05669289 0.02893424
v -0.00730324 0.04844957 0.02878731
v 0.00755882 0.05593937 0.02847236
v 0.00116611 0.05669289 0.02893424
v 0.00680828 0.04844957 0.02875632
v 0.00785065 0.07942038 0.02859324
v -0.00617409 0.07945591 0.02893537
v 0.00013873 0.07230043 0.02915793
v 0.00785065 0.07942038 0.02859324
v 0.00013873 0.07230043 0.02915793
v 0.01418876 0.07212322 0.02590769
v 0.01419305 0.05693060 0.02584451
v 0.00680828 0.04844957 0.02875632
v 0.01932430 0.04844945 0.02316516
v 0.01419305 0.05693060 0.02584451
v 0.00755882 0.05593937 0.02847236
v 0.00680828 0.04844957 0.02875632
v 0.01894760 0.07941454 0.02323526
v 0.00785065 0.07942038 0.02859324
v 0.01418876 0.07212322 0.02590769
v 0.01894760 0.07941454 0.02323526
v 0.01418876 0.07212322 0.02590769
v 0.01419305 0.05693060 0.02584451
v 0.01894760 0.07941454 0.02323526
v 0.01419305 0.05693060 0.02584451
v 0.01932430 0.04844945 0.02316516
v 0.02655982 0.08014792 0.01443761
v 0.01894760 0.07941454 0.02323526
v 0.01932430 0.04844945 0.02316516
v 0.02655982 0.08014792 0.01443761
v 0.01932430 0.04844945 0.02316516
v 0.02885818 0.04844957 0.01103013
v 0.03084707 0.07945096 0.00501102
v 0.02655982 0.08014792 0.01443761
v 0.02885818 0.04844957 0.01103013
v 0.03084707 0.07945096 0.00501102
v 0.02885818 0.04844957 0.01103013
v 0.03167182 0.04844951 -0.00151318
v 0.03133547 0.07945120 -0.00685060
v 0.03084707 0.07945096 0.00501102
v 0.03167182 0.04844951 -0.00151318
v -0.02697134 0.04844951 -0.01894474
v -0.02863371 0.04844957 -0.01055943
v -0.03104645 0.04844957 -0.00812220
v 0.01568603 0.04844969 0.02302449
v 0.02490663 0.04844939 0.01407140
v 0.01932430 0.04844945 0.02316516
v -0.01805877 0.04844969 -0.02822685
v -0.00432062 0.04844957 -0.03381770
v -0.00962829 0.04844957 -0.03055989
v -0.02186870 0.04844969 -0.02227020
v 0.02885818 0.04844957 0.01103013
v 0.00680828 0.04844957 0.02875632
v 0.00357819 0.04844951 0.02733451
v 0.03001028 0.04844951 -0.00153708
v 0.03167182 0.04844951 -0.00151318
v -0.00730324 0.04844957 0.02878731
v -0.01267910 0.04844951 0.02500861
v 0.02837073 0.04844963 -0.01702237
v 0.02560853 0.04844945 -0.01734161
v -0.01807212 0.04844975 0.02378171
v -0.02430057 0.04844939 0.01484483
v 0.01573753 0.04844963 -0.02750730
v -0.02663373 0.04844951 0.01507562
v 0.01423978 0.04844957 -0.03086757
v -0.02915567 0.04844957 0.00359982
v -0.03130984 0.04844951 0.00275904
v 0.00415420 0.04844957 -0.03153157
v -0.01269191 0.08034086 -0.02008122
v -0.01587271 0.08044952 -0.01792109
v -0.01404547 0.08029448 -0.01631295
v -0.01269191 0.08034086 -0.02008122
v -0.01560401 0.08044952 -0.02178251
v -0.01587271 0.08044952 -0.01792109
v -0.01950836 0.08048254 -0.02482861
v -0.02005434 0.08044952 -0.02138757
v -0.01560401 0.08044952 -0.02178251
v -0.01910042 0.08044958 -0.01762747
v -0.02262687 0.08033806 -0.01877135
v -0.01978826 0.08033144 -0.01531732
v -0.01420009 0.08036494 -0.02363240
v -0.01560401 0.08044952 -0.02178251
v -0.01269191 0.08034086 -0.02008122
v -0.01420009 0.08036494 -0.02363240
v -0.01950836 0.08048254 -0.02482861
v -0.01560401 0.08044952 -0.02178251
v -0.02005434 0.08044952 -0.02138757
v -0.02262687 0.08033806 -0.01877135
v -0.01910042 0.08044958 -0.01762747
v -0.01910042 0.08044958 -0.01762747
v -0.01978826 0.08033144 -0.01531732
v -0.01644539 0.08026236 -0.01511293
v -0.01587271 0.08044952 -0.01792109
v -0.01910042 0.08044958 -0.01762747
v -0.01644539 0.08026236 -0.01511293
v -0.02005434 0.08044952 -0.02138757
v -0.02183568 0.08037889 -0.02293586
v -0.02262687 0.08033806 -0.01877135
v -0.01404547 0.08029448 -0.01631295
v -0.01587271 0.08044952 -0.01792109
v -0.01644539 0.08026236 -0.01511293
v -0.01950836 0.08048254 -0.02482861
v -0.01698267 0.07044953 -0.02247136
v -0.01511567 0.07044959 -0.02021461
v -0.01560401 0.08044952 -0.02178251
v -0.01698267 0.07044953 -0.02247136
v -0.01560401 0.08044952 -0.02178251
v -0.02005434 0.08044952 -0.02138757
v -0.02003473 0.07044953 -0.02111470
v -0.01698267 0.07044953 -0.02247136
v -0.02005434 0.08044952 -0.02138757
v -0.01633501 0.07044959 -0.01755189
v -0.01511567 0.07044959 -0.02021461
v -0.01954472 0.07044953 -0.01801061
v -0.02003473 0.07044953 -0.02111470
v -0.01698267 0.07044953 -0.02247136
v 0.01727288 0.08028233 -0.01481223
v 0.01955330 0.08037173 -0.01510715
v 0.01359719 0.08033287 -0.01688194
v 0.02275598 0.08034986 -0.01937818
v 0.01954460 0.08044958 -0.02174443
v 0.01975136 0.08044958 -0.01797258
v 0.02006816 0.08046728 -0.02453565
v 0.01667487 0.08044952 -0.02229791
v 0.01954460 0.08044958 -0.02174443
v 0.02006816 0.08046728 -0.02453565
v 0.01509773 0.08032387 -0.02434593
v 0.01667487 0.08044952 -0.02229791
v 0.01504606 0.08044958 -0.01865255
v 0.01359719 0.08033287 -0.01688194
v 0.01955330 0.08037173 -0.01510715
v 0.01504606 0.08044958 -0.01865255
v 0.01283162 0.08033853 -0.02102118
v 0.01359719 0.08033287 -0.01688194
v 0.02006816 0.08046728 -0.02453565
v 0.01954460 0.08044958 -0.02174443
v 0.02275598 0.08034986 -0.01937818
v 0.01975136 0.08044958 -0.01797258
v 0.01504606 0.08044958 -0.01865255
v 0.01955330 0.08037173 -0.01510715
v 0.01504606 0.08044958 -0.01865255
v 0.01509773 0.08032387 -0.02434593
v 0.01283162 0.08033853 -0.02102118
v 0.01667487 0.08044952 -0.02229791
v 0.01509773 0.08032387 -0.02434593
v 0.01504606 0.08044958 -0.01865255
v 0.02275598 0.08034986 -0.01937818
v 0.01975136 0.08044958 -0.01797258
v 0.01955330 0.08037173 -0.01510715
v 0.02036416 0.07044959 -0.02072089
v 0.01975136 0.08044958 -0.01797258
v 0.01954460 0.08044958 -0.02174443
v 0.01724070 0.07044953 -0.02244186
v 0.02036416 0.07044959 -0.02072089
v 0.01954460 0.08044958 -0.02174443
v 0.01724070 0.07044953 -0.02244186
v 0.01954460 0.08044958 -0.02174443
v 0.01667487 0.08044952 -0.02229791
v 0.01481872 0.07044959 -0.01937532
v 0.01724070 0.07044953 -0.02244186
v 0.01667487 0.08044952 -0.02229791
v 0.01481872 0.07044959 -0.01937532
v 0.01667487 0.08044952 -0.02229791
v 0.01504606 0.08044958 -0.01865255
v 0.01846987 0.07044953 -0.01733624
v 0.02036416 0.07044959 -0.02072089
v 0.01481872 0.07044959 -0.01937532
v 0.01724070 0.07044953 -0.02244186
v 0.02205103 0.08032429 0.01286810
v 0.02005422 0.08044952 0.01714438
v 0.02238094 0.08047139 0.01753312
v 0.01557946 0.08044952 0.01723104
v 0.01278418 0.08035880 0.01630502
v 0.01440405 0.08034074 0.01925736
v 0.01920461 0.08034169 0.01068168
v 0.01491665 0.08036082 0.01128035
v 0.01871412 0.08044958 0.01297545
v 0.02205103 0.08032429 0.01286810
v 0.01871412 0.08044958 0.01297545
v 0.02005422 0.08044952 0.01714438
v 0.01557946 0.08044952 0.01723104
v 0.01440405 0.08034074 0.01925736
v 0.01664650 0.08027207 0.02029919
v 0.02005422 0.08044952 0.01714438
v 0.01664650 0.08027207 0.02029919
v 0.02052140 0.08044892 0.01973861
v 0.02005422 0.08044952 0.01714438
v 0.02205103 0.08032429 0.01286810
v 0.01920461 0.08034169 0.01068168
v 0.01871412 0.08044958 0.01297545
v 0.01559901 0.08044958 0.01388269
v 0.01278418 0.08035880 0.01630502
v 0.01557946 0.08044952 0.01723104
v 0.01559901 0.08044958 0.01388269
v 0.01491665 0.08036082 0.01128035
v 0.01278418 0.08035880 0.01630502
v 0.02238094 0.08047139 0.01753312
v 0.02005422 0.08044952 0.01714438
v 0.02052140 0.08044892 0.01973861
v 0.01871412 0.08044958 0.01297545
v 0.01491665 0.08036082 0.01128035
v 0.01559901 0.08044958 0.01388269
v 0.01803803 0.07044953 0.01274007
v 0.02031791 0.07044953 0.01547765
v 0.01871412 0.08044958 0.01297545
v 0.02031791 0.07044953 0.01547765
v 0.02005422 0.08044952 0.01714438
v 0.01871412 0.08044958 0.01297545
v 0.01803803 0.07044953 0.01274007
v 0.01871412 0.08044958 0.01297545
v 0.01559901 0.08044958 0.01388269
v 0.01486432 0.07044953 0.01559698
v 0.01803803 0.07044953 0.01274007
v 0.01559901 0.08044958 0.01388269
v 0.01486432 0.07044953 0.01559698
v 0.01559901 0.08044958 0.01388269
v 0.01557946 0.08044952 0.01723104
v 0.01814681 0.07044953 0.01817166
v 0.02031791 0.07044953 0.01547765
v 0.01486432 0.07044953 0.01559698
v 0.01803803 0.07044953 0.01274007
v 0.00336337 0.06342613 0.03579330
v 0.00193214 0.06710350 0.03562551
v -0.00009060 0.06691974 0.03581279
v 0.00336337 0.06342613 0.03579330
v -0.00009060 0.06691974 0.03581279
v -0.00209415 0.06694465 0.03572791
v 0.00336337 0.06342613 0.03579330
v 0.00142473 0.06050783 0.03527581
v 0.00407070 0.06137990 0.03185278
v 0.00336337 0.06342613 0.03579330
v 0.00468415 0.06457793 0.03448480
v 0.00405234 0.06723344 0.03399389
v 0.00468415 0.06457793 0.03448480
v 0.00336337 0.06342613 0.03579330
v 0.00407070 0.06137990 0.03185278
v 0.00040340 0.06875890 0.03480738
v 0.00405234 0.06723344 0.03399389
v 0.00232631 0.06904935 0.03182333
v 0.00040340 0.06875890 0.03480738
v 0.00193214 0.06710350 0.03562551
v 0.00405234 0.06723344 0.03399389
v 0.00193214 0.06710350 0.03562551
v 0.00336337 0.06342613 0.03579330
v 0.00405234 0.06723344 0.03399389
v 0.00040340 0.06875890 0.03480738
v 0.00232631 0.06904935 0.03182333
v -0.00197476 0.06918179 0.03183293
v -0.00342387 0.06792140 0.03412240
v 0.00040340 0.06875890 0.03480738
v -0.00197476 0.06918179 0.03183293
v -0.00209415 0.06694465 0.03572791
v 0.00040340 0.06875890 0.03480738
v -0.00342387 0.06792140 0.03412240
v -0.00209415 0.06694465 0.03572791
v -0.00009060 0.06691974 0.03581279
v 0.00193214 0.06710350 0.03562551
v -0.00209415 0.06694465 0.03572791
v 0.00193214 0.06710350 0.03562551
v 0.00040340 0.06875890 0.03480738
v 0.00507635 0.06442397 0.03180003
v 0.00232631 0.06904935 0.03182333
v 0.00405234 0.06723344 0.03399389
v 0.00507635 0.06442397 0.03180003
v 0.00405234 0.06723344 0.03399389
v 0.00468415 0.06457793 0.03448480
v 0.00507635 0.06442397 0.03180003
v 0.00468415 0.06457793 0.03448480
v 0.00407070 0.06137990 0.03185278
v 0.00010618 0.06951081 0.02880012
v -0.00373280 0.06779658 0.02879977
v -0.00197476 0.06918179 0.03183293
v 0.00010618 0.06951081 0.02880012
v -0.00197476 0.06918179 0.03183293
v 0.00232631 0.06904935 0.03182333
v 0.00350565 0.06799179 0.02880018
v 0.00010618 0.06951081 0.02880012
v 0.00232631 0.06904935 0.03182333
v 0.00350565 0.06799179 0.02880018
v 0.00232631 0.06904935 0.03182333
v 0.00507635 0.06442397 0.03180003
v 0.00509274 0.06406074 0.02880018
v 0.00350565 0.06799179 0.02880018
v 0.00507635 0.06442397 0.03180003
v 0.00509274 0.06406074 0.02880018
v 0.00507635 0.06442397 0.03180003
v 0.00407070 0.06137990 0.03185278
v 0.00162864 0.05948358 0.02880001
v 0.00509274 0.06406074 0.02880018
v 0.00407070 0.06137990 0.03185278
v -0.00211757 0.06937265 0.02579993
v -0.00373280 0.06779658 0.02879977
v 0.00010618 0.06951081 0.02880012
v 0.00447929 0.06712502 0.02580010
v 0.00010618 0.06951081 0.02880012
v 0.00350565 0.06799179 0.02880018
v 0.00447929 0.06712502 0.02580010
v -0.00211757 0.06937265 0.02579993
v 0.00010618 0.06951081 0.02880012
v 0.00447929 0.06712502 0.02580010
v 0.00350565 0.06799179 0.02880018
v 0.00509274 0.06406074 0.02880018
v 0.00418186 0.06159240 0.02580004
v 0.00447929 0.06712502 0.02580010
v 0.00509274 0.06406074 0.02880018
v 0.00418186 0.06159240 0.02580004
v 0.00509274 0.06406074 0.02880018
v 0.00162864 0.05948358 0.02880001
v 0.02490663 0.04844939 0.01407140
v 0.01568603 0.04844969 0.02302449
v 0.02414417 0.04144954 0.01510232
v -0.01267910 0.04844951 0.02500861
v -0.01894092 0.04144960 0.02088063
v -0.00738335 0.04144960 0.02648919
v -0.02915567 0.04844957 0.00359982
v -0.02952033 0.04144954 -0.00608635
v -0.02789175 0.04144948 0.00829857
v 0.02490663 0.04844939 0.01407140
v 0.02414417 0.04144954 0.01510232
v 0.02990263 0.04144948 0.00042418
v 0.00357819 0.04844951 0.02733451
v -0.00738335 0.04144960 0.02648919
v 0.00418854 0.04144948 0.02725404
v 0.00357819 0.04844951 0.02733451
v -0.01267910 0.04844951 0.02500861
v -0.00738335 0.04144960 0.02648919
v 0.03001028 0.04844951 -0.00153708
v 0.02490663 0.04844939 0.01407140
v 0.02990263 0.04144948 0.00042418
v -0.02430057 0.04844939 0.01484483
v -0.02915567 0.04844957 0.00359982
v -0.02789175 0.04144948 0.00829857
v -0.02430057 0.04844939 0.01484483
v -0.02789175 0.04144948 0.00829857
v -0.01894092 0.04144960 0.02088063
v 0.01568603 0.04844969 0.02302449
v 0.00418854 0.04144948 0.02725404
v 0.01566696 0.04144942 0.02298730
v 0.01568603 0.04844969 0.02302449
v 0.00357819 0.04844951 0.02733451
v 0.00418854 0.04144948 0.02725404
v -0.01267910 0.04844951 0.02500861
v -0.02430057 0.04844939 0.01484483
v -0.01894092 0.04144960 0.02088063
v 0.01568603 0.04844969 0.02302449
v 0.01566696 0.04144942 0.02298730
v 0.02414417 0.04144954 0.01510232
v -0.00738335 0.04144960 0.02648919
v 0.02990263 0.04144948 0.00042418
v 0.00418854 0.04144948 0.02725404
v 0.02654433 0.04144948 -0.01563453
v -0.00262403 0.04144960 -0.03210252
v 0.01583337 0.04144954 -0.02766251
v -0.02789175 0.04144948 0.00829857
v -0.01894092 0.04144960 0.02088063
v -0.02952033 0.04144954 -0.00608635
v -0.02519083 0.04144948 -0.01786136
v -0.01730060 0.04144948 -0.02634429
v 0.02414417 0.04144954 0.01510232
v 0.01566696 0.04144942 0.02298730
f 1 2 3
f 4 5 6
f 7 8 9
f 10 11 12
f 13 14 15
f 16 17 18
f 19 20 21
f 22 23 24
f 25 26 27
f 28 29 30
f 31 32 33
f 34 35 36
f 37 38 39
f 40 41 42
f 43 44 45
f 46 47 48
f 49 50 51
f 52 53 54
f 55 56 57
f 58 59 60
f 61 62 63
f 64 65 66
f 67 68 69
f 70 71 72
f 73 74 75
f 76 77 78
f 79 80 81
f 82 83 84
f 85 86 87
f 88 89 90
f 91 92 93
f 94 95 96
f 97 98 99
f 100 101 102
f 103 104 105
f 106 107 108
f 109 110 111
f 112 113 114
f 115 116 117
f 118 119 120
f 121 122 123
f 124 125 126
f 127 128 129
f 130 131 132
f 133 134 135
f 136 137 138
f 139 140 141
f 142 143 144
f 145 146 147
f 148 149 150
f 151 152 153
f 154 155 156
f 157 158 159
f 160 161 162
f 163 164 165
f 166 167 168
f 169 170 171
f 172 173 174
f 175 176 177
f 178 179 180
f 181 182 183
f 184 185 186
f 187 188 189
f 190 191 192
f 193 194 195
f 196 197 198
f 199 200 201
f 202 203 204
f 205 206 207
f 208 209 210
f 211 212 213
f 214 215 216
f 217 218 219
f 220 221 222
f 223 224 225
f 226 227 228
f 229 230 231
f 232 233 234
f 235 236 237
f 238 239 240
f 241 242 243
f 244 245 246
f 247 248 249
f 250 251 252
f 253 254 255
f 256 257 258
f 259 260 261
f 262 263 264
f 265 266 267
f 268 269 270
f 271 272 273
f 274 275 276
f 277 278 279
f 280 281 282
f 283 284 285
f 286 287 288
f 289 290 291
f 292 293 294
f 295 296 297
f 298 299 300
f 301 302 303
f 304 305 306
f 307 308 309
f 310 311 312
f 313 314 315
f 316 317 318
f 319 320 321
f 322 323 324
f 325 326 327
f 328 329 330
f 331 332 333
f 334 335 336
f 337 338 339
f 340 341 342
f 343 344 345
f 346 347 348
f 349 350 351
f 352 353 354
f 355 356 357
f 358 359 360
f 361 362 363
f 364 365 366
f 367 368 369
f 370 371 372
f 373 374 375
f 376 377 378
f 379 380 381
f 382 383 384
f 385 386 387
f 388 389 390
f 391 392 393
f 394 395 396
f 397 398 399
f 399 398 400
f 401 402 403
f 404 401 405
f 404 406 401
f 404 407 406
f 404 408 407
f 409 408 404
f 410 401 403
f 411 412 408
f 411 408 409
f 405 401 410
f 413 414 415
f 414 416 415
f 417 418 419
f 420 421 422
f 423 424 425
f 426 427 428
f 429 430 431
f 432 433 434
f 435 436 437
f 438 439 440
f 441 442 443
f 444 445 446
f 447 448 449
f 450 451 452
f 453 454 455
f 456 457 458
f 459 460 461
f 462 463 464
f 465 466 467
f 468 469 470
f 471 472 473
f 474 475 476
f 477 478 479
f 480 481 482
f 483 484 485
f 486 487 488
f 489 490 491
f 492 493 494
f 495 496 497
f 498 499 500
f 501 502 503
f 504 505 506
f 507 508 509
f 510 511 512
f 513 514 515
f 516 517 518
f 519 520 521
f 522 523 524
f 525 526 527
f 528 529 530
f 531 532 533
f 534 535 536
f 537 538 539
f 540 541 542
f 543 544 545
f 546 547 548
f 549 550 551
f 552 553 554
f 555 556 557
f 558 559 560
f 561 562 563
f 564 565 566
f 564 567 565
f 568 569 570
f 571 572 573
f 574 575 576
f 577 578 579
f 580 581 582
f 583 537 584
f 585 586 587
f 568 588 569
f 589 590 591
f 592 593 594
f 595 596 597
f 598 599 600
f 595 601 596
f 602 603 604
f 605 606 607
f 608 609 610
f 611 612 613
f 614 615 616
f 617 618 619
f 620 589 591
f 621 622 623
f 624 625 626
f 627 628 629
f 630 631 632
f 633 634 554
f 635 636 637
f 638 639 640
f 641 642 643
f 644 645 646
f 647 648 649
f 650 651 652
f 653 654 655
f 656 657 658
f 659 660 661
f 662 663 664
f 665 666 667
f 668 669 670
f 671 670 672
f 671 668 670
f 673 674 675
f 676 657 656
f 677 678 679
f 680 681 682
f 683 684 685
f 686 687 688
f 689 690 691
f 692 693 694
f 695 696 697
f 698 699 700
f 701 702 703
f 704 705 706
f 707 708 709
f 710 711 712
f 713 714 715
f 716 717 718
f 719 720 721
f 722 723 724
f 725 726 727
f 728 729 730
f 731 732 733
f 734 735 736
f 737 738 739
f 740 741 742
f 743 744 745
f 746 747 748
f 749 750 751
f 752 753 754
f 755 756 757
f 758 759 760
f 761 762 763
f 764 765 766
f 767 768 769
f 770 771 772
f 773 774 775
f 776 777 778
f 779 780 781
f 782 783 784
f 785 786 787
f 788 789 790
f 791 792 793
f 794 795 796
f 797 798 799
f 800 801 802
f 803 804 805
f 806 807 808
f 809 810 811
f 812 813 814
f 815 816 817
f 818 819 820
f 812 821 813
f 816 822 817
f 818 820 821
f 818 821 812
f 815 817 823
f 824 815 823
f 825 822 816
f 825 826 822
f 824 823 827
f 828 824 827
f 829 826 825
f 830 829 825
f 831 828 827
f 832 828 831
f 833 829 830
f 834 832 831
f 835 829 833
f 836 832 834
f 837 836 834
f 838 835 833
f 819 835 838
f 819 838 820
f 814 813 836
f 814 836 837
f 839 840 841
f 842 843 844
f 845 846 847
f 848 849 850
f 851 852 853
f 854 855 856
f 857 858 859
f 860 861 862
f 863 864 865
f 866 867 868
f 869 870 871
f 872 867 866
f 873 874 875
f 876 877 878
f 879 880 881
f 882 883 884
f 884 883 885
f 883 886 885
f 887 888 889
f 890 891 892
f 893 894 895
f 896 897 898
f 899 900 901
f 902 903 904
f 905 906 907
f 908 909 910
f 911 912 913
f 914 915 916
f 917 918 919
f 920 921 922
f 923 924 925
f 926 927 928
f 929 930 931
f 932 933 934
f 935 936 937
f 936 938 937
f 939 940 941
f 942 943 944
f 945 946 947
f 948 949 950
f 951 952 953
f 954 955 956
f 957 951 953
f 958 959 960
f 961 962 963
f 964 965 966
f 967 968 969
f 970 971 972
f 973 974 975
f 976 977 978
f 979 980 981
f 982 983 984
f 985 986 987
f 988 989 990
f 989 991 990
f 992 993 994
f 995 996 997
f 998 999 1000
f 1001 1002 1003
f 1004 1005 1006
f 1007 1008 1009
f 1010 1011 1012
f 1013 1014 1015
f 1016 1017 1018
f 1019 1020 1021
f 1022 1023 1024
f 1025 1026 1027
f 1028 1029 1030
f 1031 1032 1033
f 1034 1035 1036
f 1037 1038 1039
f 1040 1041 1042
f 1043 1044 1045
f 1046 1047 1048
f 1049 1050 1051
f 1052 1053 1054
f 1055 1056 1057
f 1058 1059 1060
f 1061 1062 1063
f 1064 1065 1066
f 1067 1068 1069
f 1070 1071 1072
f 1073 1074 1075
f 1076 1077 1078
f 1079 1080 1081
f 1082 1083 1084
f 1085 1086 1087
f 1088 1089 1090
f 1091 1092 1093
f 1094 1095 1096
f 1097 1098 1099
f 1100 1101 1102
f 1103 1104 1105
f 1106 1107 1108
f 1109 1110 1111
f 1112 1113 1114
f 1115 1116 1117
f 1118 1119 1120
f 1118 1121 1119
f 1122 1123 1124
f 1125 1121 1118
f 1126 1122 1124
f 1127 1122 1126
f 1127 1128 1122
f 1120 1129 1130
f 1124 1123 1121
f 1124 1121 1125
f 1120 1119 1129

