mtllib material.mtl
usemtl material_wrist3_1
v -0.02805519 0.04064953 0.00801152
v -0.02950668 0.04064953 -0.00504977
v -0.02919799 0.04844951 0.00322610
v -0.02805519 0.04064953 0.00801152
v -0.02919799 0.04844951 0.00322610
v -0.02550029 0.04844909 0.01282781
v -0.02077102 0.04064935 0.01895231
v -0.02805519 0.04064953 0.00801152
v -0.02550029 0.04844909 0.01282781
v -0.02077102 0.04064935 0.01895231
v -0.02550029 0.04844909 0.01282781
v -0.01887989 0.04844933 0.02072232
v -0.01097774 0.04064947 0.02543824
v -0.02077102 0.04064935 0.01895231
v -0.01887989 0.04844933 0.02072232
v -0.01097774 0.04064947 0.02543824
v -0.01887989 0.04844933 0.02072232
v -0.00988388 0.04844927 0.02569860
v -0.01097774 0.04064947 0.02543824
v -0.00988388 0.04844927 0.02569860
v 0.00376534 0.04844951 0.02755916
v 0.00145340 0.04064953 0.02746260
v -0.01097774 0.04064947 0.02543824
v 0.00376534 0.04844951 0.02755916
v 0.01387786 0.04064947 0.02412599
v 0.00145340 0.04064953 0.02746260
v 0.00376534 0.04844951 0.02755916
v 0.01387786 0.04064947 0.02412599
v 0.00376534 0.04844951 0.02755916
v 0.02147912 0.04844951 0.01887458
v 0.02365779 0.04064929 0.01575082
v 0.01387786 0.04064947 0.02412599
v 0.02147912 0.04844951 0.01887458
v 0.02916711 0.04064953 0.00382298
v 0.02365779 0.04064929 0.01575082
v 0.02147912 0.04844951 0.01887458
v 0.02916711 0.04064953 0.00382298
v 0.02147912 0.04844951 0.01887458
v 0.02935361 0.04844951 0.00297588
v 0.03108751 0.04844957 -0.00810301
v 0.03048115 0.04844951 0.00782484
v 0.03166806 0.04064953 -0.00487095
v 0.03108751 0.04844957 -0.00810301
v 0.03166806 0.04064953 -0.00487095
v 0.02679514 0.04064953 -0.01937723
v 0.02656316 0.04844945 -0.01960515
v 0.03108751 0.04844957 -0.00810301
v 0.02679514 0.04064953 -0.01937723
v 0.01710224 0.04844951 -0.02888679
v 0.02679514 0.04064953 -0.01937723
v 0.01756858 0.04064941 -0.02849769
v 0.01710224 0.04844951 -0.02888679
v 0.02656316 0.04844945 -0.01960515
v 0.02679514 0.04064953 -0.01937723
v 0.01710224 0.04844951 -0.02888679
v 0.01756858 0.04064941 -0.02849769
v 0.00561619 0.04064959 -0.03352886
v 0.00558662 0.04844957 -0.03340017
v 0.01710224 0.04844951 -0.02888679
v 0.00561619 0.04064959 -0.03352886
v -0.00941086 0.04844951 -0.03268694
v 0.00561619 0.04064959 -0.03352886
v -0.01110458 0.04064953 -0.03211212
v -0.00941086 0.04844951 -0.03268694
v 0.00558662 0.04844957 -0.03340017
v 0.00561619 0.04064959 -0.03352886
v -0.02221298 0.04844957 -0.02480983
v -0.01110458 0.04064953 -0.03211212
v -0.02651476 0.04064959 -0.02027082
v -0.02221298 0.04844957 -0.02480983
v -0.00941086 0.04844951 -0.03268694
v -0.01110458 0.04064953 -0.03211212
v -0.03042602 0.04844951 -0.01189756
v -0.02221298 0.04844957 -0.02480983
v -0.02651476 0.04064959 -0.02027082
v -0.03042602 0.04844951 -0.01189756
v -0.02651476 0.04064959 -0.02027082
v -0.03136801 0.04064959 -0.00600195
v -0.03082120 0.04844957 0.00605112
v -0.03042602 0.04844951 -0.01189756
v -0.03136801 0.04064959 -0.00600195
v -0.01110458 0.04064953 -0.03211212
v 0.00086695 0.04064953 -0.03196966
v -0.01498317 0.04064959 -0.02815222
v -0.02651476 0.04064959 -0.02027082
v -0.02606201 0.04064965 -0.01656770
v -0.02950668 0.04064953 -0.00504977
v -0.03136801 0.04064959 -0.00600195
v 0.01387786 0.04064947 0.02412599
v 0.02365779 0.04064929 0.01575082
v 0.01886749 0.04064959 0.02334588
v 0.02900362 0.04064953 0.01109737
v 0.00329137 0.04064953 0.02962321
v 0.02916711 0.04064953 0.00382298
v 0.00145340 0.04064953 0.02746260
v 0.03166806 0.04064953 -0.00487095
v 0.02910268 0.04064959 -0.00759411
v -0.01097774 0.04064947 0.02543824
v -0.01154136 0.04064941 0.02726262
v 0.02679514 0.04064953 -0.01937723
v 0.02490377 0.04064959 -0.01857805
v -0.02132797 0.04064941 0.02124780
v -0.02077102 0.04064935 0.01895231
v 0.01756858 0.04064941 -0.02849769
v 0.01436710 0.04064947 -0.02826213
v -0.03029292 0.04064953 0.00808972
v -0.02805519 0.04064953 0.00801152
v 0.00561619 0.04064959 -0.03352886
v -0.00958252 0.04844975 -0.03025341
v 0.00086319 0.04844957 -0.03184795
v -0.00941086 0.04844951 -0.03268694
v 0.02027130 0.04844939 0.02224630
v 0.03048115 0.04844951 0.00782484
v 0.02147912 0.04844951 0.01887458
v 0.00850487 0.04844945 0.02833455
v -0.01929855 0.04844945 -0.02477169
v 0.00376534 0.04844951 0.02755916
v 0.02935361 0.04844951 0.00297588
v -0.02221298 0.04844957 -0.02480983
v -0.03042602 0.04844951 -0.01189756
v -0.02828353 0.04844951 -0.01219058
v -0.00443649 0.04844951 0.02922552
v 0.03108751 0.04844957 -0.00810301
v 0.02852749 0.04844951 -0.01045513
v -0.00988388 0.04844927 0.02569860
v -0.01583671 0.04844951 0.02519696
v 0.02656316 0.04844945 -0.01960515
v -0.01887989 0.04844933 0.02072232
v 0.02171611 0.04844963 -0.02268791
v -0.02400016 0.04844981 0.01842015
v 0.01710224 0.04844951 -0.02888679
v -0.02550029 0.04844909 0.01282781
v 0.01093864 0.04844975 -0.02973318
v -0.03082120 0.04844957 0.00605112
v -0.02919799 0.04844951 0.00322610
v 0.00558662 0.04844957 -0.03340017
v -0.03082120 0.04844957 0.00605112
v -0.03136801 0.04064959 -0.00600195
v -0.03029292 0.04064953 0.00808972
v -0.02400016 0.04844981 0.01842015
v -0.03082120 0.04844957 0.00605112
v -0.03029292 0.04064953 0.00808972
v -0.02400016 0.04844981 0.01842015
v -0.03029292 0.04064953 0.00808972
v -0.02132797 0.04064941 0.02124780
v -0.01583671 0.04844951 0.02519696
v -0.02400016 0.04844981 0.01842015
v -0.02132797 0.04064941 0.02124780
v -0.01583671 0.04844951 0.02519696
v -0.02132797 0.04064941 0.02124780
v -0.01154136 0.04064941 0.02726262
v -0.00443649 0.04844951 0.02922552
v -0.01583671 0.04844951 0.02519696
v -0.01154136 0.04064941 0.02726262
v -0.00443649 0.04844951 0.02922552
v -0.01154136 0.04064941 0.02726262
v 0.00329137 0.04064953 0.02962321
v 0.00850487 0.04844945 0.02833455
v -0.00443649 0.04844951 0.02922552
v 0.00329137 0.04064953 0.02962321
v 0.00850487 0.04844945 0.02833455
v 0.00329137 0.04064953 0.02962321
v 0.01886749 0.04064959 0.02334588
v 0.02027130 0.04844939 0.02224630
v 0.00850487 0.04844945 0.02833455
v 0.01886749 0.04064959 0.02334588
v 0.02027130 0.04844939 0.02224630
v 0.01886749 0.04064959 0.02334588
v 0.02900362 0.04064953 0.01109737
v 0.03048115 0.04844951 0.00782484
v 0.02027130 0.04844939 0.02224630
v 0.02900362 0.04064953 0.01109737
v 0.03048115 0.04844951 0.00782484
v 0.02900362 0.04064953 0.01109737
v 0.03166806 0.04064953 -0.00487095
v 0.02910268 0.04064959 -0.00759411
v 0.02916711 0.04064953 0.00382298
v 0.02935361 0.04844951 0.00297588
v 0.02910268 0.04064959 -0.00759411
v 0.02935361 0.04844951 0.00297588
v 0.02852749 0.04844951 -0.01045513
v 0.02490377 0.04064959 -0.01857805
v 0.02910268 0.04064959 -0.00759411
v 0.02852749 0.04844951 -0.01045513
v 0.02490377 0.04064959 -0.01857805
v 0.02852749 0.04844951 -0.01045513
v 0.02171611 0.04844963 -0.02268791
v 0.01436710 0.04064947 -0.02826213
v 0.02490377 0.04064959 -0.01857805
v 0.02171611 0.04844963 -0.02268791
v 0.01436710 0.04064947 -0.02826213
v 0.02171611 0.04844963 -0.02268791
v 0.01093864 0.04844975 -0.02973318
v 0.00086695 0.04064953 -0.03196966
v 0.01436710 0.04064947 -0.02826213
v 0.01093864 0.04844975 -0.02973318
v 0.00086695 0.04064953 -0.03196966
v 0.01093864 0.04844975 -0.02973318
v 0.00086319 0.04844957 -0.03184795
v 0.00086695 0.04064953 -0.03196966
v 0.00086319 0.04844957 -0.03184795
v -0.00958252 0.04844975 -0.03025341
v -0.01498317 0.04064959 -0.02815222
v 0.00086695 0.04064953 -0.03196966
v -0.00958252 0.04844975 -0.03025341
v -0.01498317 0.04064959 -0.02815222
v -0.00958252 0.04844975 -0.03025341
v -0.01929855 0.04844945 -0.02477169
v -0.02606201 0.04064965 -0.01656770
v -0.01498317 0.04064959 -0.02815222
v -0.01929855 0.04844945 -0.02477169
v -0.02606201 0.04064965 -0.01656770
v -0.01929855 0.04844945 -0.02477169
v -0.02828353 0.04844951 -0.01219058
v -0.02950668 0.04064953 -0.00504977
v -0.02606201 0.04064965 -0.01656770
v -0.02828353 0.04844951 -0.01219058
v -0.02950668 0.04064953 -0.00504977
v -0.02828353 0.04844951 -0.01219058
v -0.02919799 0.04844951 0.00322610
f 1 2 3
f 4 5 6
f 7 8 9
f 10 11 12
f 13 14 15
f 16 17 18
f 19 20 21
f 22 23 24
f 25 26 27
f 28 29 30
f 31 32 33
f 34 35 36
f 37 38 39
f 40 41 42
f 43 44 45
f 46 47 48
f 49 50 51
f 52 53 54
f 55 56 57
f 58 59 60
f 61 62 63
f 64 65 66
f 67 68 69
f 70 71 72
f 73 74 75
f 76 77 78
f 79 80 81
f 82 83 84
f 85 86 87
f 85 87 88
f 89 90 91
f 90 92 91
f 89 91 93
f 94 92 90
f 85 82 84
f 85 84 86
f 95 89 93
f 94 96 92
f 97 96 94
f 98 95 93
f 99 98 93
f 100 96 97
f 101 100 97
f 102 98 99
f 103 98 102
f 104 100 101
f 105 104 101
f 106 103 102
f 107 103 106
f 108 104 105
f 83 108 105
f 106 87 107
f 88 87 106
f 82 108 83
f 109 110 111
f 112 113 114
f 115 112 114
f 116 109 111
f 115 114 117
f 114 113 118
f 116 111 119
f 120 121 119
f 121 116 119
f 122 115 117
f 113 123 118
f 118 123 124
f 122 117 125
f 122 125 126
f 124 123 127
f 126 125 128
f 124 127 129
f 126 128 130
f 129 127 131
f 130 128 132
f 129 131 133
f 130 132 134
f 134 132 135
f 133 131 136
f 133 136 110
f 134 135 120
f 135 121 120
f 110 136 111
f 137 138 139
f 140 141 142
f 143 144 145
f 146 147 148
f 149 150 151
f 152 153 154
f 155 156 157
f 158 159 160
f 161 162 163
f 164 165 166
f 167 168 169
f 170 171 172
f 173 174 175
f 176 177 178
f 179 180 181
f 182 183 184
f 185 186 187
f 188 189 190
f 191 192 193
f 194 195 196
f 197 198 199
f 200 201 202
f 203 204 205
f 206 207 208
f 209 210 211
f 212 213 214
f 215 216 217
f 218 219 220

